# Created by DisUnity v0.2.1
v 0.094015 -0.275154 -0.648132
v 0.09903 -0.247081 -0.61674
v 0.07129 -0.277635 -0.635845
v 0.125536 -0.23225 -0.630892
v 0.142513 -0.216194 -0.573259
v 0.171181 -0.201194 -0.577479
v 0.179501 -0.223427 -0.503878
v 0.214249 -0.197171 -0.501391
v 0.196208 -0.253118 -0.430816
v 0.242519 -0.210579 -0.425424
v 0.201121 -0.301203 -0.338554
v 0.254178 -0.266845 -0.327018
v 0.186669 -0.34264 -0.230728
v 0.241432 -0.300641 -0.226092
v 0.137905 -0.341377 -0.137925
v 0.193551 -0.30036 -0.123883
v 0.083283 -0.325995 -0.078541
v 0.13676 -0.286986 -0.047705
v 0.291122 -0.141715 -0.408407
v 0.302719 -0.184709 -0.311856
v 0.194577 -0.140828 -0.599224
v 0.142163 -0.207989 -0.65539
v 0.099776 -0.272652 -0.664998
v 0.28789 -0.207874 -0.207751
v 0.245747 -0.20981 -0.109784
v 0.196795 -0.20311 -0.021613
v 0.095501 -0.327403 -0.144895
v 0.044481 -0.313147 -0.103057
v 0.071561 -0.272505 -0.002911
v 0.028832 -0.312051 -0.038502
v 0.0836 -0.183935 -0.147622
v 0.002302 -0.199878 -0.123184
v -0.001135 -0.301137 -0.074717
v -0.038285 -0.183986 -0.123067
v 0.072009 -0.078224 -0.124501
v 0.139807 -0.067867 -0.206675
v -0.002077 -0.084784 -0.087302
v -0.047658 -0.276869 -0.063742
v -0.078882 -0.152297 -0.115117
v -0.121427 -0.223391 -0.054759
v -0.033385 -0.279275 -0.016592
v 0.144953 -0.326162 -0.227099
v 0.170202 -0.286996 -0.335269
v 0.164461 -0.236861 -0.428088
v 0.147893 -0.03081 -0.290356
v 0.148188 0.031047 -0.38307
v 0.150129 -0.208051 -0.49673
v 0.117924 -0.203935 -0.572925
v 0.078676 -0.237391 -0.625985
v 0.087788 -0.073772 -0.624882
v 0.077626 -0.195283 -0.659604
v 0.061559 -0.276834 -0.642644
v 0.059707 -0.297658 -0.631643
v 0.065015 -0.304696 -0.6359
v 0.033999 -0.310813 -0.620087
v 0.061206 -0.306777 -0.6421
v 0.051019 -0.294392 -0.634422
v 0.048659 -0.298516 -0.6421
v 0.054652 -0.304834 -0.645039
v 0.080939 -0.270087 -0.669316
v 0.062443 -0.263814 -0.661467
v 0.104055 -0.182406 -0.680006
v 0.115134 -0.063684 -0.629801
v 0.166452 -0.091073 -0.622422
v 0.123541 -0.194096 -0.673714
v 0.250468 0.068033 -0.489809
v 0.184378 0.111686 -0.489347
v 0.292332 0.114565 -0.381991
v 0.216538 0.207401 -0.371334
v 0.306346 0.13845 -0.288759
v 0.226997 0.240252 -0.268972
v 0.296358 0.120942 -0.161537
v 0.212 0.224517 -0.135331
v 0.263714 0.098021 -0.066465
v 0.184212 0.196704 -0.050731
v 0.211625 0.078557 -2.33E-4
v 0.16093 0.16919 0.00667
v 0.145722 0.053281 0.051649
v 0.129693 0.124507 0.051599
v 0.129989 0.288435 -0.276248
v 0.126351 0.247136 -0.37991
v 0.1122 0.298244 -0.136476
v 0.090645 0.270117 -0.044864
v 0.077686 0.207647 0.023799
v 0.073753 0.122717 0.059885
v 0.071942 0.02278 0.076593
v 0.227709 -0.090661 -0.009044
v 0.27823 -0.089731 -0.085305
v 0.315623 -0.074484 -0.185584
v 0.323947 -0.039682 -0.301018
v 0.311142 -0.025794 -0.395199
v 0.271899 -0.048208 -0.491428
v 0.254501 -0.140011 -0.493046
v 0.123681 -0.19158 0.030789
v 0.001755 -0.245836 0.018773
v 0.051252 -0.17049 0.065129
v 0.153106 -0.09056 0.048659
v 0.072259 -0.082124 0.08058
v 0.016174 -0.067518 0.085373
v 0.030778 0.001494 0.082402
v -0.007183 -0.001606 0.079934
v -0.024763 -0.049684 0.080065
v -0.017657 -0.137766 0.070071
v -0.063383 -0.19207 0.02902
v -0.113692 -0.129193 0.034763
v -0.069215 -0.097292 0.066741
v -0.054084 -0.026731 0.073803
v -0.09323 -0.050965 0.06312
v -0.07713 0.002912 0.063369
v -0.043766 -0.003359 0.072663
v -0.164682 -0.139393 8.84E-4
v -0.11513 -0.227523 -0.004915
v -0.166881 -0.143319 -0.047105
v -0.182286 -0.070576 0.004556
v -0.180237 -0.073753 -0.040676
v -0.159383 0.034747 -0.026901
v -0.159731 0.032685 0.005823
v -0.116527 0.013557 0.043836
v -0.136736 -0.067681 0.039299
v -0.074508 0.080729 -0.026901
v -0.074884 0.079002 0.005823
v -0.076335 0.043563 0.050934
v -0.07153 0.081631 0.049022
v -0.028926 0.090512 0.057475
v 0.020881 0.100986 0.059943
v -0.106371 0.167957 -0.039312
v -0.106746 0.16623 -0.006588
v -0.091762 0.145361 -0.103275
v -0.138324 0.042043 -0.086791
v -0.140458 0.191676 -0.074882
v -0.156992 0.203627 -0.055578
v -0.166516 0.166918 -0.15864
v -0.126352 0.247156 -0.049672
v -0.0909 0.193629 0.008245
v -0.1815 0.206818 -0.138157
v -0.141079 0.263034 -0.140447
v -0.05312 0.218019 0.017689
v 0.013039 0.22611 0.022843
v -0.066459 0.278113 -0.046061
v 0.002764 0.287513 -0.045727
v -0.076586 0.301312 -0.136172
v 0.007953 0.310607 -0.134641
v -0.140212 0.256994 -0.257714
v -0.072507 0.295588 -0.240341
v 0.020199 0.30451 -0.204734
v -0.0981 0.236742 -0.362528
v -0.032517 0.27047 -0.335471
v 0.052226 0.288423 -0.297381
v -0.180796 0.19638 -0.267599
v -0.167482 0.139062 -0.25848
v -0.123832 0.139742 -0.368468
v -0.138816 0.191104 -0.373608
v -0.043976 0.136102 -0.441177
v -0.05896 0.178104 -0.446317
v 0.074732 0.040184 -0.505658
v 0.118289 0.131512 -0.488886
v 0.080023 0.247831 -0.396512
v 0.033696 0.243592 -0.413114
v -0.012632 0.220123 -0.429715
v -0.14931 -0.02607 -0.090864
v -0.123737 -0.101308 -0.10299
vn 0.69542193 -0.65077156 0.30476975
vn 0.04077342 -0.7043792 0.70865184
vn 0.015595421 -0.124275066 0.9921252
vn 0.7136615 -0.69760835 0.06347998
vn 0.07828058 -0.98178804 0.17310232
vn 0.69378895 -0.6661692 -0.27363357
vn 0.10644985 -0.95936096 -0.26133317
vn 0.7002007 -0.6011661 -0.38512108
vn 0.12146622 -0.8888397 -0.44182572
vn 0.7295602 -0.57015866 -0.37770495
vn 0.13248396 -0.90391845 -0.4066687
vn 0.74781466 -0.61792445 -0.2427811
vn 0.1660518 -0.97940344 -0.114872076
vn 0.736621 -0.6699662 0.09238282
vn 0.10440628 -0.9802776 0.1677947
vn 0.6191946 -0.6705271 0.40864587
vn 0.019867815 -0.95634073 0.29157773
vn 0.44104007 -0.67399687 0.59263134
vn 0.9080179 -0.286365 -0.30577546
vn 0.9373283 -0.3283228 -0.116704434
vn 0.80688995 -0.16361198 -0.5675911
vn 0.78709626 -0.31053528 -0.53296095
vn 0.58481055 -0.57986647 -0.5672314
vn 0.91111255 -0.36833313 0.18494481
vn 0.807514 -0.4094794 0.42455602
vn 0.6395779 -0.42200056 0.64253837
vn -0.56295896 -0.6847615 -0.46279463
vn -0.42528874 -0.7335964 -0.530062
vn 0.19495727 -0.64453703 0.7392994
vn -0.13501768 -0.90798175 0.39666024
vn -0.6340022 0.018586084 -0.7731079
vn -0.33275217 -0.075779475 -0.9399646
vn -0.45690298 -0.79746675 -0.39406395
vn -0.2158277 -0.10303087 -0.97098047
vn -0.66442174 -0.21503447 -0.7157541
vn -0.87975144 -0.37609023 -0.29084966
vn -0.16926056 0.08356209 -0.9820225
vn -0.5389733 -0.75190735 -0.3796618
vn -0.270549 -0.054567583 -0.9611585
vn -0.70209205 -0.60354584 -0.3778876
vn -0.35344005 -0.79596496 0.4914468
vn -0.69858474 -0.6006486 -0.38884524
vn -0.7858182 -0.54132587 -0.2990919
vn -0.83776724 -0.5217467 -0.16101636
vn -0.86371815 -0.48537415 -0.13565695
vn -0.80441624 -0.59325624 -0.031007165
vn -0.820361 -0.5592372 0.11942235
vn -0.7704274 -0.41240636 0.4861713
vn -0.80846375 -0.033998813 0.587563
vn -0.9258799 0.19788401 -0.32185146
vn -0.92003864 0.1823841 -0.34679225
vn -0.750842 0.3749937 0.5437058
vn 0.22321324 0.16803557 0.96017706
vn 0.59422284 -0.6205616 0.51166654
vn -0.7217188 -0.35152048 0.5962847
vn 0.27827534 -0.91304713 -0.29817396
vn -0.5535351 0.6722261 0.49164122
vn -0.85935634 0.10098765 -0.5013065
vn -0.29576105 -0.6374534 -0.7114623
vn -0.1626653 -0.29072225 -0.9428789
vn -0.8793247 0.10141593 -0.46529865
vn -0.09598242 0.19895367 -0.9752973
vn -0.1250999 0.48681837 -0.8644986
vn 0.5494425 0.2732106 -0.7896005
vn 0.45898348 -0.009552618 -0.88839346
vn 0.6689815 0.3951325 -0.62955064
vn 0.3511552 0.6033362 -0.71601355
vn 0.8376928 0.40657762 -0.36464417
vn 0.52225256 0.71693754 -0.46179312
vn 0.91365397 0.40270114 -0.055392392
vn 0.64129883 0.7630397 -0.0806621
vn 0.90998685 0.33046037 0.2504394
vn 0.67231053 0.6905306 0.26676953
vn 0.83519536 0.2590186 0.48513722
vn 0.6349208 0.58917254 0.4997514
vn 0.7048763 0.17743985 0.6867783
vn 0.5398834 0.4642265 0.7021536
vn 0.45879662 0.091588415 0.8838084
vn 0.38612318 0.27985692 0.87897044
vn 0.30238548 0.9384692 -0.16684915
vn 0.2735754 0.8141646 -0.5121451
vn 0.3449943 0.92325044 0.16907895
vn 0.33946714 0.80070657 0.49359
vn 0.2263317 0.55676496 0.79924136
vn 0.11368351 0.28056172 0.95307976
vn 0.15909432 0.09540166 0.9826431
vn 0.72535187 -0.13538355 0.674934
vn 0.88354915 -0.13464884 0.44856504
vn 0.9736222 -0.08746791 0.2107348
vn 0.9990029 -0.020295013 -0.039766017
vn 0.96064824 0.019501675 -0.2770825
vn 0.8666882 0.02163821 -0.49838078
vn 0.85245544 -0.31535238 -0.4169805
vn 0.38021076 -0.4098146 0.8291512
vn -0.08423332 -0.55383414 0.8283554
vn 0.09216936 -0.3697151 0.9245624
vn 0.48290625 -0.1278452 0.8662893
vn 0.20923758 -0.106968746 0.97199655
vn -0.032319847 -0.06537216 0.9973374
vn -0.0064701107 0.11096849 0.9938029
vn -0.13236126 0.13263595 0.9822872
vn -0.16641901 -0.01861647 0.98587936
vn -0.17868812 -0.29713193 0.9379676
vn -0.2966751 -0.42400026 0.8556913
vn -0.435967 -0.28941372 0.85215753
vn -0.31416085 -0.2028892 0.92743677
vn -0.24091898 0.054446347 0.9690168
vn -0.38463888 -0.02127218 0.922822
vn -0.3639145 0.1637371 0.91692775
vn -0.23902714 0.13956475 0.9609306
vn -0.8055351 -0.3528374 0.47604516
vn -0.60493076 -0.62873614 0.48862022
vn -0.8781389 -0.33235785 -0.34410787
vn -0.9033933 -0.028321644 0.42787656
vn -0.9575956 -0.030061245 -0.28654316
vn -0.8117783 0.573607 -0.10950263
vn -0.7615163 0.5275252 0.376577
vn -0.49886417 0.3216401 0.804787
vn -0.53594315 -0.06506639 0.841743
vn -0.9347438 0.33824492 0.108831674
vn -0.9118777 0.2986896 0.28153792
vn -0.49501947 0.3538687 0.79355705
vn -0.68159235 0.1470125 0.71681184
vn -0.18076307 0.23356065 0.9553922
vn -0.060702804 0.24778584 0.96691114
vn -0.81496763 -0.56665933 0.12134634
vn -0.91388303 -0.21473688 0.34453735
vn -0.8299102 -0.55612195 -0.04446656
vn -0.7092955 0.27851775 -0.6475553
vn -0.622713 -0.75364023 0.21036859
vn -0.904554 -0.11731521 0.40990132
vn -0.788287 -0.61035854 0.07788565
vn -0.6261 0.6023561 0.49514237
vn -0.56963795 0.28874066 0.76950717
vn -0.98217565 0.044222623 0.18268919
vn -0.6702309 0.7361523 0.09418208
vn -0.24665569 0.49331138 0.8341491
vn -0.009643971 0.55577964 0.8312737
vn -0.29591277 0.82178664 0.48693153
vn 0.009888312 0.877374 0.47970518
vn -0.30876192 0.9464285 0.09454823
vn 0.011536097 0.99457633 0.10336708
vn -0.6290276 0.74936414 -0.20682742
vn -0.27202138 0.94461274 -0.18360603
vn 0.009338732 0.99301845 -0.11758868
vn -0.4616336 0.745096 -0.48137954
vn -0.1764894 0.912691 -0.3685738
vn 0.035920665 0.96552426 -0.25782308
vn -0.96479356 0.162391 -0.20688753
vn -0.7763672 -0.60439384 -0.178779
vn -0.67562485 -0.5863879 -0.44685602
vn -0.7975504 0.19223855 -0.57180214
vn -0.639777 -0.5959207 -0.4853491
vn -0.5028577 0.18738522 -0.8438133
vn -0.9053359 -0.09876169 -0.4130534
vn 0.04425299 0.5633558 -0.82502836
vn 0.14512098 0.8186593 -0.5556409
vn -0.009827255 0.78953755 -0.61362356
vn -0.20930065 0.6305266 -0.7474151
vn -0.55782384 0.12293 -0.8208049
vn -0.39164588 -0.036164604 -0.919405
vt 0.0 0.0
vt 0.0 0.0
vt 0.0 0.0
vt 0.0 0.0
vt 0.0 0.0
vt 0.0 0.0
vt 0.0 0.0
vt 0.0 0.0
vt 0.0 0.0
vt 0.0 0.0
vt 0.0 0.0
vt 0.0 0.0
vt 0.0 0.0
vt 0.0 0.0
vt 0.0 0.0
vt 0.0 0.0
vt 0.0 0.0
vt 0.0 0.0
vt 0.0 0.0
vt 0.0 0.0
vt 0.0 0.0
vt 0.0 0.0
vt 0.0 0.0
vt 0.0 0.0
vt 0.0 0.0
vt 0.0 0.0
vt 0.0 0.0
vt 0.0 0.0
vt 0.0 0.0
vt 0.0 0.0
vt 0.0 0.0
vt 0.0 0.0
vt 0.0 0.0
vt 0.0 0.0
vt 0.0 0.0
vt 0.0 0.0
vt 0.0 0.0
vt 0.0 0.0
vt 0.0 0.0
vt 0.0 0.0
vt 0.0 0.0
vt 0.0 0.0
vt 0.0 0.0
vt 0.0 0.0
vt 0.0 0.0
vt 0.0 0.0
vt 0.0 0.0
vt 0.0 0.0
vt 0.0 0.0
vt 0.0 0.0
vt 0.0 0.0
vt 0.0 0.0
vt 0.0 0.0
vt 0.0 0.0
vt 0.0 0.0
vt 0.0 0.0
vt 0.0 0.0
vt 0.0 0.0
vt 0.0 0.0
vt 0.0 0.0
vt 0.0 0.0
vt 0.0 0.0
vt 0.0 0.0
vt 0.0 0.0
vt 0.0 0.0
vt 0.0 0.0
vt 0.0 0.0
vt 0.0 0.0
vt 0.0 0.0
vt 0.0 0.0
vt 0.0 0.0
vt 0.0 0.0
vt 0.0 0.0
vt 0.0 0.0
vt 0.0 0.0
vt 0.0 0.0
vt 0.0 0.0
vt 0.0 0.0
vt 0.0 0.0
vt 0.0 0.0
vt 0.0 0.0
vt 0.0 0.0
vt 0.0 0.0
vt 0.0 0.0
vt 0.0 0.0
vt 0.0 0.0
vt 0.0 0.0
vt 0.0 0.0
vt 0.0 0.0
vt 0.0 0.0
vt 0.0 0.0
vt 0.0 0.0
vt 0.0 0.0
vt 0.0 0.0
vt 0.0 0.0
vt 0.0 0.0
vt 0.0 0.0
vt 0.0 0.0
vt 0.0 0.0
vt 0.0 0.0
vt 0.0 0.0
vt 0.0 0.0
vt 0.0 0.0
vt 0.0 0.0
vt 0.0 0.0
vt 0.0 0.0
vt 0.0 0.0
vt 0.0 0.0
vt 0.0 0.0
vt 0.0 0.0
vt 0.0 0.0
vt 0.0 0.0
vt 0.0 0.0
vt 0.0 0.0
vt 0.0 0.0
vt 0.0 0.0
vt 0.0 0.0
vt 0.0 0.0
vt 0.0 0.0
vt 0.0 0.0
vt 0.0 0.0
vt 0.0 0.0
vt 0.0 0.0
vt 0.0 0.0
vt 0.0 0.0
vt 0.0 0.0
vt 0.0 0.0
vt 0.0 0.0
vt 0.0 0.0
vt 0.0 0.0
vt 0.0 0.0
vt 0.0 0.0
vt 0.0 0.0
vt 0.0 0.0
vt 0.0 0.0
vt 0.0 0.0
vt 0.0 0.0
vt 0.0 0.0
vt 0.0 0.0
vt 0.0 0.0
vt 0.0 0.0
vt 0.0 0.0
vt 0.0 0.0
vt 0.0 0.0
vt 0.0 0.0
vt 0.0 0.0
vt 0.0 0.0
vt 0.0 0.0
vt 0.0 0.0
vt 0.0 0.0
vt 0.0 0.0
vt 0.0 0.0
vt 0.0 0.0
vt 0.0 0.0
vt 0.0 0.0
vt 0.0 0.0
vt 0.0 0.0
vt 0.0 0.0
vt 0.0 0.0
vt 0.0 0.0
vt 0.0 0.0

o astral_mane
s 1
usemtl astral_mane_0
f 1/1/1 2/2/2 3/3/3
f 1/1/1 4/4/4 2/2/2
f 4/4/4 5/5/5 2/2/2
f 4/4/4 6/6/6 5/5/5
f 6/6/6 7/7/7 5/5/5
f 6/6/6 8/8/8 7/7/7
f 8/8/8 9/9/9 7/7/7
f 8/8/8 10/10/10 9/9/9
f 10/10/10 11/11/11 9/9/9
f 10/10/10 12/12/12 11/11/11
f 12/12/12 13/13/13 11/11/11
f 12/12/12 14/14/14 13/13/13
f 14/14/14 15/15/15 13/13/13
f 14/14/14 16/16/16 15/15/15
f 16/16/16 17/17/17 15/15/15
f 16/16/16 18/18/18 17/17/17
f 19/19/19 12/12/12 10/10/10
f 19/19/19 20/20/20 12/12/12
f 20/20/20 14/14/14 12/12/12
f 21/21/21 8/8/8 6/6/6
f 22/22/22 21/21/21 6/6/6
f 22/22/22 6/6/6 4/4/4
f 23/23/23 22/22/22 4/4/4
f 23/23/23 4/4/4 1/1/1
f 20/20/20 24/24/24 14/14/14
f 24/24/24 16/16/16 14/14/14
f 25/25/25 18/18/18 16/16/16
f 24/24/24 25/25/25 16/16/16
f 25/25/25 26/26/26 18/18/18
f 27/27/27 15/15/15 17/17/17
f 27/27/27 17/17/17 28/28/28
f 17/17/17 18/18/18 29/29/29
f 26/26/26 29/29/29 18/18/18
f 17/17/17 29/29/29 30/30/30
f 28/28/28 31/31/31 27/27/27
f 28/28/28 32/32/32 31/31/31
f 32/32/32 28/28/28 33/33/33
f 32/32/32 33/33/33 34/34/34
f 32/32/32 35/35/35 31/31/31
f 36/36/36 31/31/31 35/35/35
f 32/32/32 37/37/37 35/35/35
f 32/32/32 34/34/34 37/37/37
f 34/34/34 33/33/33 38/38/38
f 34/34/34 38/38/38 39/39/39
f 39/39/39 37/37/37 34/34/34
f 39/39/39 38/38/38 40/40/40
f 33/33/33 41/41/41 38/38/38
f 33/33/33 30/30/30 41/41/41
f 17/17/17 33/33/33 28/28/28
f 17/17/17 30/30/30 33/33/33
f 42/42/42 31/31/31 36/36/36
f 43/43/43 42/42/42 36/36/36
f 13/13/13 42/42/42 43/43/43
f 13/13/13 43/43/43 11/11/11
f 11/11/11 43/43/43 44/44/44
f 43/43/43 45/45/45 44/44/44
f 43/43/43 36/36/36 45/45/45
f 46/46/46 44/44/44 45/45/45
f 46/46/46 47/47/47 44/44/44
f 9/9/9 44/44/44 47/47/47
f 11/11/11 44/44/44 9/9/9
f 9/9/9 47/47/47 7/7/7
f 7/7/7 47/47/47 48/48/48
f 47/47/47 46/46/46 48/48/48
f 7/7/7 48/48/48 5/5/5
f 5/5/5 48/48/48 49/49/49
f 49/49/49 48/48/48 50/50/50
f 49/49/49 50/50/50 51/51/51
f 5/5/5 49/49/49 2/2/2
f 3/3/3 2/2/2 49/49/49
f 3/3/3 49/49/49 52/52/52
f 53/53/53 3/3/3 52/52/52
f 3/3/3 53/53/53 54/54/54
f 54/54/54 53/53/53 55/55/55
f 55/55/55 56/56/56 54/54/54
f 3/3/3 54/54/54 1/1/1
f 1/1/1 54/54/54 56/56/56
f 53/53/53 52/52/52 57/57/57
f 53/53/53 57/57/57 55/55/55
f 55/55/55 57/57/57 58/58/58
f 52/52/52 58/58/58 57/57/57
f 58/58/58 59/59/59 55/55/55
f 59/59/59 56/56/56 55/55/55
f 60/60/60 59/59/59 58/58/58
f 60/60/60 58/58/58 61/61/61
f 52/52/52 61/61/61 58/58/58
f 49/49/49 61/61/61 52/52/52
f 49/49/49 51/51/51 61/61/61
f 50/50/50 62/62/62 51/51/51
f 61/61/61 62/62/62 60/60/60
f 61/61/61 51/51/51 62/62/62
f 50/50/50 63/63/63 62/62/62
f 62/62/62 63/63/63 64/64/64
f 62/62/62 64/64/64 65/65/65
f 60/60/60 62/62/62 65/65/65
f 63/63/63 66/66/66 64/64/64
f 63/63/63 67/67/67 66/66/66
f 67/67/67 68/68/68 66/66/66
f 67/67/67 69/69/69 68/68/68
f 69/69/69 70/70/70 68/68/68
f 69/69/69 71/71/71 70/70/70
f 71/71/71 72/72/72 70/70/70
f 71/71/71 73/73/73 72/72/72
f 73/73/73 74/74/74 72/72/72
f 73/73/73 75/75/75 74/74/74
f 75/75/75 76/76/76 74/74/74
f 75/75/75 77/77/77 76/76/76
f 77/77/77 78/78/78 76/76/76
f 77/77/77 79/79/79 78/78/78
f 80/80/80 71/71/71 69/69/69
f 80/80/80 69/69/69 81/81/81
f 82/82/82 71/71/71 80/80/80
f 82/82/82 73/73/73 71/71/71
f 83/83/83 73/73/73 82/82/82
f 83/83/83 75/75/75 73/73/73
f 83/83/83 77/77/77 75/75/75
f 83/83/83 84/84/84 77/77/77
f 84/84/84 79/79/79 77/77/77
f 84/84/84 85/85/85 79/79/79
f 86/86/86 79/79/79 85/85/85
f 86/86/86 78/78/78 79/79/79
f 74/74/74 76/76/76 87/87/87
f 74/74/74 87/87/87 88/88/88
f 88/88/88 87/87/87 26/26/26
f 88/88/88 26/26/26 25/25/25
f 89/89/89 88/88/88 25/25/25
f 89/89/89 25/25/25 24/24/24
f 90/90/90 89/89/89 24/24/24
f 90/90/90 24/24/24 20/20/20
f 91/91/91 90/90/90 20/20/20
f 91/91/91 20/20/20 19/19/19
f 92/92/92 91/91/91 19/19/19
f 92/92/92 19/19/19 93/93/93
f 93/93/93 19/19/19 10/10/10
f 93/93/93 10/10/10 8/8/8
f 21/21/21 93/93/93 8/8/8
f 21/21/21 92/92/92 93/93/93
f 87/87/87 94/94/94 26/26/26
f 26/26/26 94/94/94 29/29/29
f 94/94/94 95/95/95 29/29/29
f 30/30/30 29/29/29 95/95/95
f 30/30/30 95/95/95 41/41/41
f 94/94/94 96/96/96 95/95/95
f 97/97/97 96/96/96 94/94/94
f 87/87/87 97/97/97 94/94/94
f 97/97/97 98/98/98 96/96/96
f 66/66/66 91/91/91 92/92/92
f 66/66/66 68/68/68 91/91/91
f 68/68/68 90/90/90 91/91/91
f 68/68/68 70/70/70 90/90/90
f 70/70/70 89/89/89 90/90/90
f 70/70/70 72/72/72 89/89/89
f 72/72/72 88/88/88 89/89/89
f 72/72/72 74/74/74 88/88/88
f 76/76/76 97/97/97 87/87/87
f 76/76/76 78/78/78 97/97/97
f 78/78/78 98/98/98 97/97/97
f 78/78/78 86/86/86 98/98/98
f 86/86/86 99/99/99 98/98/98
f 86/86/86 100/100/100 99/99/99
f 101/101/101 99/99/99 100/100/100
f 101/101/101 102/102/102 99/99/99
f 103/103/103 99/99/99 102/102/102
f 103/103/103 98/98/98 99/99/99
f 103/103/103 96/96/96 98/98/98
f 96/96/96 103/103/103 104/104/104
f 103/103/103 105/105/105 104/104/104
f 103/103/103 106/106/106 105/105/105
f 103/103/103 102/102/102 106/106/106
f 107/107/107 106/106/106 102/102/102
f 107/107/107 108/108/108 106/106/106
f 105/105/105 106/106/106 108/108/108
f 109/109/109 108/108/108 107/107/107
f 109/109/109 107/107/107 110/110/110
f 110/110/110 102/102/102 101/101/101
f 110/110/110 107/107/107 102/102/102
f 104/104/104 105/105/105 111/111/111
f 104/104/104 111/111/111 112/112/112
f 111/111/111 40/40/40 112/112/112
f 111/111/111 113/113/113 40/40/40
f 38/38/38 112/112/112 40/40/40
f 38/38/38 41/41/41 112/112/112
f 41/41/41 104/104/104 112/112/112
f 114/114/114 113/113/113 111/111/111
f 105/105/105 114/114/114 111/111/111
f 114/114/114 115/115/115 113/113/113
f 116/116/116 115/115/115 114/114/114
f 116/116/116 114/114/114 117/117/117
f 114/114/114 118/118/118 117/117/117
f 114/114/114 119/119/119 118/118/118
f 119/119/119 109/109/109 118/118/118
f 119/119/119 108/108/108 109/109/109
f 105/105/105 108/108/108 119/119/119
f 105/105/105 119/119/119 114/114/114
f 117/117/117 120/120/120 116/116/116
f 117/117/117 121/121/121 120/120/120
f 118/118/118 121/121/121 117/117/117
f 118/118/118 122/122/122 121/121/121
f 122/122/122 118/118/118 109/109/109
f 123/123/123 122/122/122 109/109/109
f 123/123/123 121/121/121 122/122/122
f 123/123/123 109/109/109 110/110/110
f 101/101/101 123/123/123 110/110/110
f 101/101/101 124/124/124 123/123/123
f 100/100/100 124/124/124 101/101/101
f 100/100/100 125/125/125 124/124/124
f 85/85/85 125/125/125 100/100/100
f 85/85/85 100/100/100 86/86/86
f 121/121/121 126/126/126 120/120/120
f 121/121/121 127/127/127 126/126/126
f 120/120/120 126/126/126 128/128/128
f 120/120/120 128/128/128 129/129/129
f 127/127/127 130/130/130 126/126/126
f 127/127/127 131/131/131 130/130/130
f 126/126/126 132/132/132 128/128/128
f 126/126/126 130/130/130 132/132/132
f 131/131/131 132/132/132 130/130/130
f 127/127/127 133/133/133 131/131/131
f 127/127/127 134/134/134 133/133/133
f 121/121/121 134/134/134 127/127/127
f 121/121/121 123/123/123 134/134/134
f 133/133/133 135/135/135 131/131/131
f 131/131/131 135/135/135 132/132/132
f 133/133/133 136/136/136 135/135/135
f 137/137/137 134/134/134 123/123/123
f 137/137/137 123/123/123 124/124/124
f 125/125/125 137/137/137 124/124/124
f 125/125/125 138/138/138 137/137/137
f 138/138/138 139/139/139 137/137/137
f 139/139/139 134/134/134 137/137/137
f 139/139/139 133/133/133 134/134/134
f 138/138/138 140/140/140 139/139/139
f 140/140/140 141/141/141 139/139/139
f 141/141/141 133/133/133 139/139/139
f 141/141/141 136/136/136 133/133/133
f 140/140/140 142/142/142 141/141/141
f 84/84/84 138/138/138 125/125/125
f 84/84/84 125/125/125 85/85/85
f 83/83/83 138/138/138 84/84/84
f 83/83/83 140/140/140 138/138/138
f 82/82/82 140/140/140 83/83/83
f 82/82/82 142/142/142 140/140/140
f 141/141/141 143/143/143 136/136/136
f 143/143/143 135/135/135 136/136/136
f 141/141/141 144/144/144 143/143/143
f 142/142/142 144/144/144 141/141/141
f 142/142/142 145/145/145 144/144/144
f 142/142/142 82/82/82 145/145/145
f 144/144/144 146/146/146 143/143/143
f 144/144/144 147/147/147 146/146/146
f 145/145/145 147/147/147 144/144/144
f 145/145/145 148/148/148 147/147/147
f 146/146/146 149/149/149 143/143/143
f 143/143/143 149/149/149 135/135/135
f 135/135/135 149/149/149 150/150/150
f 135/135/135 150/150/150 132/132/132
f 149/149/149 151/151/151 150/150/150
f 149/149/149 152/152/152 151/151/151
f 146/146/146 152/152/152 149/149/149
f 152/152/152 153/153/153 151/151/151
f 152/152/152 154/154/154 153/153/153
f 146/146/146 154/154/154 152/152/152
f 154/154/154 155/155/155 153/153/153
f 46/46/46 153/153/153 155/155/155
f 46/46/46 151/151/151 153/153/153
f 48/48/48 46/46/46 155/155/155
f 48/48/48 155/155/155 50/50/50
f 155/155/155 63/63/63 50/50/50
f 155/155/155 156/156/156 63/63/63
f 156/156/156 155/155/155 154/154/154
f 156/156/156 67/67/67 63/63/63
f 69/69/69 67/67/67 156/156/156
f 69/69/69 156/156/156 81/81/81
f 45/45/45 151/151/151 46/46/46
f 45/45/45 150/150/150 151/151/151
f 36/36/36 150/150/150 45/45/45
f 36/36/36 132/132/132 150/150/150
f 157/157/157 81/81/81 156/156/156
f 80/80/80 81/81/81 157/157/157
f 80/80/80 157/157/157 148/148/148
f 80/80/80 148/148/148 145/145/145
f 80/80/80 145/145/145 82/82/82
f 148/148/148 157/157/157 158/158/158
f 156/156/156 158/158/158 157/157/157
f 148/148/148 158/158/158 147/147/147
f 147/147/147 158/158/158 159/159/159
f 159/159/159 158/158/158 156/156/156
f 147/147/147 159/159/159 146/146/146
f 146/146/146 159/159/159 154/154/154
f 156/156/156 154/154/154 159/159/159
f 35/35/35 132/132/132 36/36/36
f 35/35/35 128/128/128 132/132/132
f 37/37/37 128/128/128 35/35/35
f 37/37/37 129/129/129 128/128/128
f 160/160/160 129/129/129 37/37/37
f 116/116/116 129/129/129 160/160/160
f 120/120/120 129/129/129 116/116/116
f 116/116/116 160/160/160 115/115/115
f 160/160/160 113/113/113 115/115/115
f 160/160/160 161/161/161 113/113/113
f 160/160/160 37/37/37 161/161/161
f 39/39/39 113/113/113 161/161/161
f 39/39/39 161/161/161 37/37/37
f 39/39/39 40/40/40 113/113/113
f 42/42/42 15/15/15 27/27/27
f 42/42/42 13/13/13 15/15/15
f 42/42/42 27/27/27 31/31/31
f 65/65/65 21/21/21 22/22/22
f 65/65/65 64/64/64 21/21/21
f 23/23/23 65/65/65 22/22/22
f 60/60/60 65/65/65 23/23/23
f 23/23/23 59/59/59 60/60/60
f 23/23/23 56/56/56 59/59/59
f 1/1/1 56/56/56 23/23/23
f 64/64/64 92/92/92 21/21/21
f 64/64/64 66/66/66 92/92/92
f 41/41/41 95/95/95 104/104/104
f 96/96/96 104/104/104 95/95/95

