# Created by DisUnity v0.2.1
v 0.017384 -0.208391 1.103106
v 0.183416 -0.036942 0.995948
v 0.017384 -0.068587 1.134936
v 0.183416 -0.176746 0.964117
v 0.183416 -0.316551 0.932286
v 0.017384 -0.348196 1.071275
v 0.171008 -0.173488 0.949808
v 0.171008 -0.033684 0.981639
v 0.171008 -0.313293 0.917977
v 0.009011 -0.064747 1.11807
v 0.009011 -0.204551 1.08624
v 0.009011 -0.344356 1.054409
v -0.183416 -0.036942 0.995948
v -0.017384 -0.208391 1.103106
v -0.017384 -0.068587 1.134936
v -0.183416 -0.176746 0.964117
v -0.183416 -0.316551 0.932286
v -0.017384 -0.348196 1.071275
v -0.171008 -0.173488 0.949808
v -0.171008 -0.033684 0.981639
v -0.171008 -0.313293 0.917977
v -0.009011 -0.064747 1.11807
v -0.009011 -0.204551 1.08624
v -0.009011 -0.344356 1.054409
v 0.0 -0.202134 1.075624
v 0.015557 -0.06554 1.113332
v 0.015557 -0.203565 1.081907
v 0.0 -0.06411 1.107049
v 0.015557 -0.341589 1.050481
v 0.0 -0.340158 1.044198
v -0.015557 -0.06554 1.113332
v -0.015557 -0.203565 1.081907
v -0.015557 -0.341589 1.050481
v 0.022001 -0.068994 1.128501
v 0.022001 -0.207018 1.097075
v 0.022001 -0.345042 1.06565
v -0.022001 -0.068994 1.128501
v -0.022001 -0.207018 1.097075
v -0.022001 -0.345042 1.06565
v 0.015557 -0.072448 1.143669
v 0.015557 -0.210472 1.112244
v 0.015557 -0.348496 1.080818
v -0.015557 -0.072448 1.143669
v -0.015557 -0.210472 1.112244
v -0.015557 -0.348496 1.080818
v 0.0 -0.073878 1.149952
v 0.0 -0.211902 1.118527
v 0.0 -0.349927 1.087101
v 0.0 -0.068994 1.128501
v 0.0 -0.345042 1.06565
v 0.002697 -0.077192 1.096475
v 0.015199 -0.19322 1.036473
v 0.002697 -0.20049 1.068402
v 0.015199 -0.069923 1.064545
v 0.002697 -0.323788 1.04033
v 0.015199 -0.316518 1.0084
v 0.051763 -0.185446 1.002327
v 0.051763 -0.062148 1.030399
v 0.051763 -0.308743 0.974254
v 0.092376 -0.178735 0.972851
v 0.092376 -0.055437 1.000923
v 0.092376 -0.302032 0.944778
v 0.139684 -0.173781 0.951094
v 0.139684 -0.050484 0.979167
v 0.139684 -0.297079 0.923022
v 0.011257 -0.081118 1.113718
v 0.152368 -0.053814 0.993795
v 0.011257 -0.327713 1.057572
v 0.152368 -0.30041 0.937651
v 0.152368 -0.177112 0.965723
v 0.011257 -0.204416 1.085645
v -0.015199 -0.19322 1.036473
v -0.002697 -0.077192 1.096475
v -0.002697 -0.20049 1.068402
v -0.015199 -0.069923 1.064545
v -0.002697 -0.323788 1.04033
v -0.015199 -0.316518 1.0084
v -0.051763 -0.185446 1.002327
v -0.051763 -0.062148 1.030399
v -0.051763 -0.308743 0.974254
v -0.092376 -0.178735 0.972851
v -0.092376 -0.055437 1.000923
v -0.092376 -0.302032 0.944778
v -0.139684 -0.173781 0.951094
v -0.139684 -0.050484 0.979167
v -0.139684 -0.297079 0.923022
v -0.011257 -0.081118 1.113718
v -0.152368 -0.053814 0.993795
v -0.011257 -0.327713 1.057572
v -0.152368 -0.30041 0.937651
v -0.152368 -0.177112 0.965723
v -0.011257 -0.204416 1.085645
vn -0.20383742 -0.2173269 0.9545781
vn 0.8136215 0.54889464 0.19166295
vn -0.16819037 0.37150815 0.91306835
vn 0.99682236 -0.017670693 0.0776717
vn 0.8136216 -0.57776624 -0.064854115
vn -0.16819128 -0.7302023 0.6622055
vn 0.078159876 0.2212953 -0.9720696
vn 0.063845806 0.74319935 -0.66601676
vn 0.06384663 -0.38161483 -0.9221138
vn -0.7889968 0.6137828 -0.027467782
vn -0.97930557 0.044924513 -0.19733825
vn -0.7889961 -0.54138947 -0.29048678
vn -0.8136215 0.54889464 0.19166295
vn 0.20383742 -0.2173269 0.9545781
vn 0.16819037 0.37150815 0.91306835
vn -0.99682236 -0.017670693 0.0776717
vn -0.8136216 -0.57776624 -0.064854115
vn 0.16819128 -0.7302023 0.6622055
vn -0.078159876 0.2212953 -0.9720696
vn -0.063845806 0.74319935 -0.66601676
vn -0.06384663 -0.38161483 -0.9221138
vn 0.7889968 0.6137828 -0.027467782
vn 0.97930557 0.044924513 -0.19733825
vn 0.7889961 -0.54138947 -0.29048678
vn 0.0 0.22199441 -0.975048
vn 0.5489842 0.7364043 -0.39537975
vn 0.70710635 0.1569618 -0.6894661
vn 0.0 0.7868941 -0.6170881
vn 0.54897726 -0.49266952 -0.6752042
vn 0.0 -0.4421647 -0.89693385
vn -0.5489842 0.7364043 -0.39537975
vn -0.70710635 0.1569618 -0.6894661
vn -0.54897726 -0.49266952 -0.6752042
vn 0.7763828 0.61453855 0.1399009
vn 1.0 0.0 0.0
vn 0.7763828 -0.61453855 -0.1399009
vn -0.7763828 0.61453855 0.1399009
vn -1.0 0.0 0.0
vn -0.7763828 -0.61453855 -0.1399009
vn 0.54897726 0.49266952 0.6752042
vn 0.70710635 -0.1569618 0.6894661
vn 0.54899085 -0.7364131 0.39535394
vn -0.54897726 0.49266952 0.6752042
vn -0.70710635 -0.1569618 0.6894661
vn -0.54899085 -0.7364131 0.39535394
vn 0.0 0.4421647 0.89693385
vn 0.0 -0.22199441 0.975048
vn 0.0 -0.7868941 0.6170881
vn 0.0 0.975048 0.22199441
vn 0.0 -0.975048 -0.22199441
vn -0.777651 0.6047007 0.1720348
vn -0.8332613 0.12271706 -0.5390883
vn -0.9990735 -0.00955248 0.041963775
vn -0.62534344 0.7365258 -0.25782827
vn -0.77765745 -0.61956847 -0.10669481
vn -0.62533206 -0.5523004 -0.55129325
vn -0.645629 0.1695024 -0.744602
vn -0.46517238 0.7982886 -0.38255715
vn -0.46520844 -0.55395913 -0.6904422
vn -0.5143948 0.19037645 -0.8361548
vn -0.37456328 0.80693 -0.45669067
vn -0.37456235 -0.52966094 -0.76102716
vn 0.21247552 0.21693134 -0.95278275
vn 0.17118402 0.75233674 -0.6361489
vn 0.17118193 -0.40276125 -0.89915526
vn -0.16520128 0.3710238 0.9138106
vn 0.81358236 0.54995704 0.1887616
vn -0.16520096 -0.7300522 0.66312337
vn 0.8135755 -0.5774805 -0.06790477
vn 0.9971131 -0.016846426 0.074038826
vn -0.20017523 -0.2175101 0.955311
vn 0.8332613 0.12271706 -0.5390883
vn 0.777651 0.6047007 0.1720348
vn 0.9990735 -0.00955248 0.041963775
vn 0.62534344 0.7365258 -0.25782827
vn 0.77765745 -0.61956847 -0.10669481
vn 0.62533206 -0.5523004 -0.55129325
vn 0.645629 0.1695024 -0.744602
vn 0.46517238 0.7982886 -0.38255715
vn 0.46520844 -0.55395913 -0.6904422
vn 0.5143948 0.19037645 -0.8361548
vn 0.37456328 0.80693 -0.45669067
vn 0.37456235 -0.52966094 -0.76102716
vn -0.21247552 0.21693134 -0.95278275
vn -0.17118402 0.75233674 -0.6361489
vn -0.17118193 -0.40276125 -0.89915526
vn 0.16520128 0.3710238 0.9138106
vn -0.81358236 0.54995704 0.1887616
vn 0.16520096 -0.7300522 0.66312337
vn -0.8135755 -0.5774805 -0.06790477
vn -0.9971131 -0.016846426 0.074038826
vn 0.20017523 -0.2175101 0.955311
vt 0.0 0.0
vt 0.0 0.0
vt 0.0 0.0
vt 0.0 0.0
vt 0.0 0.0
vt 0.0 0.0
vt 0.0 0.0
vt 0.0 0.0
vt 0.0 0.0
vt 0.0 0.0
vt 0.0 0.0
vt 0.0 0.0
vt 0.0 0.0
vt 0.0 0.0
vt 0.0 0.0
vt 0.0 0.0
vt 0.0 0.0
vt 0.0 0.0
vt 0.0 0.0
vt 0.0 0.0
vt 0.0 0.0
vt 0.0 0.0
vt 0.0 0.0
vt 0.0 0.0
vt 0.0 0.0
vt 0.0 0.0
vt 0.0 0.0
vt 0.0 0.0
vt 0.0 0.0
vt 0.0 0.0
vt 0.0 0.0
vt 0.0 0.0
vt 0.0 0.0
vt 0.0 0.0
vt 0.0 0.0
vt 0.0 0.0
vt 0.0 0.0
vt 0.0 0.0
vt 0.0 0.0
vt 0.0 0.0
vt 0.0 0.0
vt 0.0 0.0
vt 0.0 0.0
vt 0.0 0.0
vt 0.0 0.0
vt 0.0 0.0
vt 0.0 0.0
vt 0.0 0.0
vt 0.0 0.0
vt 0.0 0.0
vt 0.0 0.0
vt 0.0 0.0
vt 0.0 0.0
vt 0.0 0.0
vt 0.0 0.0
vt 0.0 0.0
vt 0.0 0.0
vt 0.0 0.0
vt 0.0 0.0
vt 0.0 0.0
vt 0.0 0.0
vt 0.0 0.0
vt 0.0 0.0
vt 0.0 0.0
vt 0.0 0.0
vt 0.0 0.0
vt 0.0 0.0
vt 0.0 0.0
vt 0.0 0.0
vt 0.0 0.0
vt 0.0 0.0
vt 0.0 0.0
vt 0.0 0.0
vt 0.0 0.0
vt 0.0 0.0
vt 0.0 0.0
vt 0.0 0.0
vt 0.0 0.0
vt 0.0 0.0
vt 0.0 0.0
vt 0.0 0.0
vt 0.0 0.0
vt 0.0 0.0
vt 0.0 0.0
vt 0.0 0.0
vt 0.0 0.0
vt 0.0 0.0
vt 0.0 0.0
vt 0.0 0.0
vt 0.0 0.0
vt 0.0 0.0
vt 0.0 0.0

o book
s 1
usemtl book_0
f 1/1/1 2/2/2 3/3/3
f 1/1/1 4/4/4 2/2/2
f 1/1/1 5/5/5 4/4/4
f 1/1/1 6/6/6 5/5/5
f 2/2/2 4/4/4 7/7/7
f 7/7/7 4/4/4 5/5/5
f 2/2/2 7/7/7 8/8/8
f 3/3/3 2/2/2 8/8/8
f 7/7/7 5/5/5 9/9/9
f 9/9/9 5/5/5 6/6/6
f 1/1/1 3/3/3 10/10/10
f 3/3/3 8/8/8 10/10/10
f 1/1/1 10/10/10 11/11/11
f 11/11/11 8/8/8 7/7/7
f 11/11/11 10/10/10 8/8/8
f 9/9/9 11/11/11 7/7/7
f 1/1/1 12/12/12 6/6/6
f 1/1/1 11/11/11 12/12/12
f 9/9/9 6/6/6 12/12/12
f 9/9/9 12/12/12 11/11/11
f 13/13/13 14/14/14 15/15/15
f 13/13/13 16/16/16 14/14/14
f 14/14/14 16/16/16 17/17/17
f 14/14/14 17/17/17 18/18/18
f 19/19/19 16/16/16 13/13/13
f 17/17/17 16/16/16 19/19/19
f 19/19/19 13/13/13 20/20/20
f 20/20/20 13/13/13 15/15/15
f 17/17/17 19/19/19 21/21/21
f 18/18/18 17/17/17 21/21/21
f 22/22/22 15/15/15 14/14/14
f 20/20/20 15/15/15 22/22/22
f 22/22/22 14/14/14 23/23/23
f 20/20/20 23/23/23 19/19/19
f 20/20/20 22/22/22 23/23/23
f 23/23/23 21/21/21 19/19/19
f 14/14/14 24/24/24 23/23/23
f 14/14/14 18/18/18 24/24/24
f 18/18/18 21/21/21 24/24/24
f 23/23/23 24/24/24 21/21/21
f 25/25/25 26/26/26 27/27/27
f 25/25/25 28/28/28 26/26/26
f 29/29/29 25/25/25 27/27/27
f 29/29/29 30/30/30 25/25/25
f 31/31/31 28/28/28 25/25/25
f 31/31/31 25/25/25 32/32/32
f 25/25/25 33/33/33 32/32/32
f 25/25/25 30/30/30 33/33/33
f 27/27/27 26/26/26 34/34/34
f 27/27/27 34/34/34 35/35/35
f 36/36/36 27/27/27 35/35/35
f 36/36/36 29/29/29 27/27/27
f 37/37/37 31/31/31 32/32/32
f 37/37/37 32/32/32 38/38/38
f 32/32/32 39/39/39 38/38/38
f 32/32/32 33/33/33 39/39/39
f 35/35/35 34/34/34 40/40/40
f 35/35/35 40/40/40 41/41/41
f 42/42/42 35/35/35 41/41/41
f 42/42/42 36/36/36 35/35/35
f 43/43/43 37/37/37 38/38/38
f 43/43/43 38/38/38 44/44/44
f 38/38/38 45/45/45 44/44/44
f 38/38/38 39/39/39 45/45/45
f 41/41/41 40/40/40 46/46/46
f 46/46/46 43/43/43 44/44/44
f 41/41/41 46/46/46 47/47/47
f 46/46/46 44/44/44 47/47/47
f 48/48/48 41/41/41 47/47/47
f 48/48/48 42/42/42 41/41/41
f 44/44/44 48/48/48 47/47/47
f 44/44/44 45/45/45 48/48/48
f 40/40/40 49/49/49 46/46/46
f 49/49/49 43/43/43 46/46/46
f 34/34/34 49/49/49 40/40/40
f 49/49/49 37/37/37 43/43/43
f 50/50/50 42/42/42 48/48/48
f 45/45/45 50/50/50 48/48/48
f 50/50/50 36/36/36 42/42/42
f 39/39/39 50/50/50 45/45/45
f 50/50/50 29/29/29 36/36/36
f 49/49/49 31/31/31 37/37/37
f 33/33/33 50/50/50 39/39/39
f 50/50/50 30/30/30 29/29/29
f 30/30/30 50/50/50 33/33/33
f 49/49/49 28/28/28 31/31/31
f 28/28/28 49/49/49 26/26/26
f 26/26/26 49/49/49 34/34/34

usemtl book_1
f 51/51/51 52/52/52 53/53/53
f 51/51/51 54/54/54 52/52/52
f 52/52/52 55/55/55 53/53/53
f 52/52/52 56/56/56 55/55/55
f 54/54/54 57/57/57 52/52/52
f 57/57/57 56/56/56 52/52/52
f 54/54/54 58/58/58 57/57/57
f 57/57/57 59/59/59 56/56/56
f 58/58/58 60/60/60 57/57/57
f 60/60/60 59/59/59 57/57/57
f 58/58/58 61/61/61 60/60/60
f 51/51/51 61/61/61 54/54/54
f 54/54/54 61/61/61 58/58/58
f 60/60/60 62/62/62 59/59/59
f 62/62/62 55/55/55 56/56/56
f 62/62/62 56/56/56 59/59/59
f 61/61/61 63/63/63 60/60/60
f 63/63/63 62/62/62 60/60/60
f 61/61/61 64/64/64 63/63/63
f 51/51/51 64/64/64 61/61/61
f 63/63/63 65/65/65 62/62/62
f 62/62/62 65/65/65 55/55/55
f 64/64/64 51/51/51 66/66/66
f 64/64/64 66/66/66 67/67/67
f 63/63/63 64/64/64 67/67/67
f 68/68/68 55/55/55 65/65/65
f 68/68/68 65/65/65 69/69/69
f 69/69/69 65/65/65 63/63/63
f 63/63/63 67/67/67 70/70/70
f 69/69/69 63/63/63 70/70/70
f 66/66/66 70/70/70 67/67/67
f 70/70/70 68/68/68 69/69/69
f 71/71/71 55/55/55 68/68/68
f 66/66/66 71/71/71 70/70/70
f 70/70/70 71/71/71 68/68/68
f 51/51/51 71/71/71 66/66/66
f 51/51/51 53/53/53 71/71/71
f 71/71/71 53/53/53 55/55/55
f 72/72/72 73/73/73 74/74/74
f 72/72/72 75/75/75 73/73/73
f 76/76/76 72/72/72 74/74/74
f 76/76/76 77/77/77 72/72/72
f 78/78/78 75/75/75 72/72/72
f 77/77/77 78/78/78 72/72/72
f 78/78/78 79/79/79 75/75/75
f 77/77/77 80/80/80 78/78/78
f 81/81/81 79/79/79 78/78/78
f 80/80/80 81/81/81 78/78/78
f 81/81/81 82/82/82 79/79/79
f 82/82/82 73/73/73 75/75/75
f 82/82/82 75/75/75 79/79/79
f 80/80/80 83/83/83 81/81/81
f 76/76/76 83/83/83 77/77/77
f 77/77/77 83/83/83 80/80/80
f 84/84/84 82/82/82 81/81/81
f 83/83/83 84/84/84 81/81/81
f 84/84/84 85/85/85 82/82/82
f 82/82/82 85/85/85 73/73/73
f 83/83/83 86/86/86 84/84/84
f 76/76/76 86/86/86 83/83/83
f 87/87/87 73/73/73 85/85/85
f 87/87/87 85/85/85 88/88/88
f 88/88/88 85/85/85 84/84/84
f 86/86/86 76/76/76 89/89/89
f 86/86/86 89/89/89 90/90/90
f 84/84/84 86/86/86 90/90/90
f 88/88/88 84/84/84 91/91/91
f 84/84/84 90/90/90 91/91/91
f 91/91/91 87/87/87 88/88/88
f 89/89/89 91/91/91 90/90/90
f 76/76/76 92/92/92 89/89/89
f 91/91/91 92/92/92 87/87/87
f 89/89/89 92/92/92 91/91/91
f 92/92/92 73/73/73 87/87/87
f 92/92/92 74/74/74 73/73/73
f 76/76/76 74/74/74 92/92/92

