# Created by DisUnity v0.2.1
v 0.865241 -0.058076 1.036736
v 0.935958 0.0 0.840784
v 0.885923 0.0 1.036736
v 0.910604 -0.071262 0.840784
v 0.865241 0.058076 1.036736
v 0.910604 0.071262 0.840784
v 0.825245 -0.107518 1.049797
v 0.861573 -0.131873 0.840784
v 0.765388 -0.140554 1.058775
v 0.788193 -0.172373 0.832571
v 0.694782 -0.152155 1.058775
v 0.701636 -0.186594 0.832571
v 0.624176 -0.140554 1.058775
v 0.62004 -0.172373 0.813547
v 0.564319 -0.107518 1.049797
v 0.52115 -0.131873 0.805872
v 0.524323 -0.058076 1.036736
v 0.474559 -0.071262 0.7906
v 0.510279 0.0 1.036736
v 0.458198 0.0 0.785238
v 0.474559 0.071262 0.7906
v 0.524323 0.058076 1.036736
v 0.521151 0.131873 0.805872
v 0.564319 0.107518 1.049797
v 0.62004 0.172373 0.813547
v 0.624176 0.140554 1.058775
v 0.701636 0.186594 0.832571
v 0.694782 0.152155 1.058775
v 0.788193 0.172373 0.832571
v 0.765388 0.140554 1.058775
v 0.861573 0.131873 0.840784
v 0.825245 0.107518 1.049797
v 0.726707 0.242089 0.780992
v 0.629604 0.230839 0.761968
v 0.506155 0.173449 0.749708
v 0.443099 0.085733 0.72904
v 0.433803 0.0 0.725993
v 0.443099 -0.085733 0.72904
v 0.506155 -0.173449 0.749708
v 0.629604 -0.230839 0.761968
v 0.726707 -0.242089 0.780992
v 0.872302 -0.194971 0.789205
v 0.938024 -0.100828 0.789205
v 0.806008 -0.28465 0.817957
v 0.951801 -0.264661 0.834532
v 0.63949 -0.26185 0.798933
v 0.488619 -0.199808 0.77983
v 0.413743 -0.097484 0.74277
v 0.381916 0.0 0.7395
v 0.413743 0.097484 0.74277
v 0.488619 0.199808 0.77983
v 0.63949 0.26185 0.798933
v 0.806008 0.28465 0.817957
v 0.872302 0.19497 0.789205
v 0.938024 0.100827 0.789205
v 0.951801 0.264661 0.834532
v 0.985807 0.098478 0.807843
v 0.948716 0.0 0.788127
v 0.967902 0.0 0.792946
v 0.985807 -0.098478 0.807843
v 0.797861 0.337339 0.827494
v 0.947394 0.314564 0.844068
v 0.792281 0.378393 0.826973
v 0.960556 0.349697 0.845176
v 0.786187 0.379804 0.786
v 0.616493 0.351108 0.766976
v 0.622588 0.349697 0.807949
v 0.455085 0.269388 0.738239
v 0.454344 0.267977 0.778084
v 0.355907 0.147087 0.723812
v 0.359757 0.145676 0.764659
v 0.321348 0.0 0.720262
v 0.325198 0.0 0.761108
v 0.359757 -0.145676 0.764659
v 0.355907 -0.147087 0.723812
v 0.454344 -0.267977 0.778084
v 0.455085 -0.269388 0.738239
v 0.622588 -0.349697 0.807949
v 0.616493 -0.351108 0.766976
v 0.792281 -0.378393 0.826973
v 0.786187 -0.379804 0.786
v 0.960556 -0.349697 0.845176
v 0.958607 -0.351108 0.796258
v 1.105957 -0.267978 0.864775
v 1.104008 -0.269389 0.824219
v 1.203111 -0.145676 0.883458
v 1.207371 -0.147087 0.861911
v 1.111673 -0.149553 0.820638
v 1.115933 -0.150964 0.799091
v 1.024809 -0.081119 0.803934
v 1.029069 -0.08253 0.782387
v 1.034312 -0.234777 0.783395
v 1.108995 -0.1988 0.797757
v 0.948717 -0.282664 0.766936
v 0.799799 -0.308239 0.759073
v 0.828467 -0.149689 0.767286
v 0.878135 -0.078542 0.767286
v 0.718435 -0.185299 0.759073
v 0.646263 -0.176797 0.740049
v 0.633281 -0.279067 0.740049
v 0.49483 -0.199686 0.722929
v 0.409648 -0.097288 0.702264
v 0.385991 0.0 0.699834
v 0.409648 0.097288 0.702264
v 0.49483 0.199686 0.722929
v 0.633281 0.279067 0.740049
v 0.799799 0.308239 0.759073
v 0.948717 0.282664 0.766936
v 0.958607 0.351108 0.796258
v 1.105957 0.267977 0.864775
v 1.104009 0.269388 0.824219
v 1.203111 0.145676 0.883458
v 1.207371 0.147087 0.861911
v 1.111673 0.149553 0.820638
v 1.115933 0.150964 0.799091
v 1.024809 0.081119 0.803934
v 1.029069 0.08253 0.782387
v 1.034312 0.234777 0.783395
v 1.108995 0.1988 0.797757
v 0.828467 0.149689 0.767286
v 0.878135 0.078542 0.767286
v 0.967393 0.0 0.770527
v 0.901805 0.0 0.767286
v 1.093752 0.17347 0.846416
v 1.146241 0.173914 0.873051
v 1.083747 0.244359 0.861034
v 1.032991 0.227234 0.841562
v 1.093752 -0.17347 0.846416
v 1.146241 -0.173914 0.873051
v 1.083747 -0.244359 0.861034
v 0.947394 -0.314564 0.844068
v 0.797861 -0.337339 0.827494
v 0.63533 -0.307226 0.80847
v 0.475557 -0.230357 0.785584
v 0.397101 -0.116472 0.769018
v 0.365647 0.0 0.765787
v 0.397101 0.116472 0.769018
v 0.475557 0.230356 0.785584
v 0.63533 0.307226 0.80847
v 0.646263 0.176797 0.740049
v 0.718435 0.185299 0.759073
v 0.55413 0.133425 0.742366
v 0.506476 0.067134 0.726746
v 0.49945 0.0 0.724444
v 0.506476 -0.067135 0.726746
v 0.55413 -0.133425 0.742366
v 0.648773 0.0 0.951479
v 1.032991 -0.227235 0.841562
vn 0.60055745 -0.29182494 0.7444252
vn 0.9704844 0.0 0.24116379
vn 0.6840203 0.0 0.7294629
vn 0.7716836 -0.3917473 0.50103736
vn 0.6005629 0.291797 0.74443185
vn 0.7716836 0.3917473 0.50103736
vn 0.46104804 -0.40028504 0.7919637
vn 0.5847502 -0.65534145 0.4781157
vn 0.23762482 -0.5409581 0.80678296
vn 0.25746232 -0.82494146 0.50317466
vn -0.009979826 -0.6882723 0.7253838
vn -0.050326463 -0.8920206 0.4491843
vn -0.2361605 -0.5541135 0.7982396
vn -0.32649812 -0.8368765 0.4393594
vn -0.45501238 -0.41433012 0.78822225
vn -0.63162696 -0.664893 0.39870384
vn -0.6413293 -0.25303423 0.7243414
vn -0.8721528 -0.33775815 0.35393342
vn -0.68176454 0.0 0.7315717
vn -0.94332564 0.0 0.33186847
vn -0.8721528 0.33775815 0.35393342
vn -0.6413293 0.25303423 0.7243414
vn -0.63162696 0.664893 0.39870384
vn -0.45501238 0.41433012 0.78822225
vn -0.32649812 0.8368765 0.4393594
vn -0.2361605 0.5541135 0.7982396
vn -0.050326463 0.8920206 0.4491843
vn -0.009979826 0.6882723 0.7253838
vn 0.25746232 0.82494146 0.50317466
vn 0.23762482 0.5409581 0.80678296
vn 0.5847502 0.65534145 0.4781157
vn 0.46104804 0.40028504 0.7919637
vn -0.05252372 -0.05783408 0.99694353
vn -0.0809376 -0.0933285 0.9923401
vn -0.11780499 -0.11313552 0.986571
vn -0.24891123 -0.062624544 0.9664995
vn -0.35188252 0.0 0.93604416
vn -0.24891123 0.062624544 0.9664995
vn -0.11780499 0.11313552 0.986571
vn -0.0809376 0.0933285 0.9923401
vn -0.05252372 0.05783408 0.99694353
vn 0.0048525524 -0.054598846 0.99849665
vn 0.20316435 -0.0729707 0.97642183
vn -0.12970561 0.32234132 0.93769526
vn -0.21116067 0.24900419 0.9452027
vn 0.004791471 0.4629111 0.8863917
vn 0.20557845 0.4637113 0.86180586
vn 0.4801551 0.31666493 0.8180308
vn 0.61605966 0.0 0.7876994
vn 0.4801551 -0.31666493 0.8180308
vn 0.20557845 -0.4637113 0.86180586
vn 0.004791471 -0.4629111 0.8863917
vn -0.12970561 -0.32234132 0.93769526
vn 0.0048525524 0.054598846 0.99849665
vn 0.20316435 0.0729707 0.97642183
vn -0.21116067 -0.24900419 0.9452027
vn -0.01934898 -0.20212667 0.9791683
vn 0.38014033 0.0 0.92492884
vn 0.3911956 0.0 0.9203076
vn -0.01934898 0.20212667 0.9791683
vn -0.109015696 -0.09161957 0.9898088
vn -0.14328928 -0.098120354 0.98480487
vn -0.055728614 0.7279208 0.68339276
vn 0.18168189 0.70743924 0.68302375
vn 0.02526958 0.85876894 -0.5117395
vn -0.21274875 0.82078105 -0.53014755
vn -0.29466426 0.6694418 0.6819242
vn -0.4662984 0.68273854 -0.56252456
vn -0.54349065 0.55719393 0.62781596
vn -0.7281884 0.40050364 -0.5561821
vn -0.7092936 0.30787632 0.6341252
vn -0.85441595 0.0 -0.51958966
vn -0.75745064 0.0 0.65289253
vn -0.7092936 -0.30787632 0.6341252
vn -0.7281884 -0.40050364 -0.5561821
vn -0.54349065 -0.55719393 0.62781596
vn -0.4662984 -0.68273854 -0.56252456
vn -0.29466426 -0.6694418 0.6819242
vn -0.21274875 -0.82078105 -0.53014755
vn -0.055728614 -0.7279208 0.68339276
vn 0.025269976 -0.8587824 -0.511717
vn 0.18168189 -0.70743924 0.68302375
vn 0.3236245 -0.78809464 -0.5236162
vn 0.3975191 -0.5853374 0.7066532
vn 0.606235 -0.65454704 -0.45171592
vn 0.66305906 0.45391133 0.59524554
vn 0.88274443 0.34062752 -0.3236282
vn 0.09738521 0.9048493 0.41444412
vn 0.48931018 0.47890323 -0.72885334
vn 0.46709993 0.6279373 0.6225049
vn 0.56348103 0.4601116 -0.6861388
vn 0.27168474 -0.16666709 -0.9478446
vn 0.4252252 -0.17463136 -0.8880807
vn 0.17771424 -0.18381812 -0.9667618
vn 0.085208364 -0.18738516 -0.9785839
vn -0.1217733 0.24327193 -0.9622838
vn -0.22508019 0.12488517 -0.9663036
vn 0.09189157 0.38081136 -0.9200754
vn 0.21616563 0.38780412 -0.89603597
vn 0.072544314 -0.15280999 -0.98558944
vn 0.055117186 -0.12628733 -0.9904613
vn -0.016327579 -0.08380472 -0.99634844
vn -0.07709091 0.0 -0.997024
vn -0.016327579 0.08380472 -0.99634844
vn 0.055117186 0.12628733 -0.9904613
vn 0.072544314 0.15280999 -0.98558944
vn 0.085208364 0.18738516 -0.9785839
vn 0.17771424 0.18381812 -0.9667618
vn 0.3236245 0.78809464 -0.5236162
vn 0.3975191 0.5853374 0.7066532
vn 0.606235 0.65454704 -0.45171592
vn 0.66305906 -0.45391133 0.59524554
vn 0.88274443 -0.34062752 -0.3236282
vn 0.09738521 -0.9048493 0.41444412
vn 0.48931018 -0.47890323 -0.72885334
vn 0.46709993 -0.6279373 0.6225049
vn 0.56348103 -0.4601116 -0.6861388
vn 0.27168474 0.16666709 -0.9478446
vn 0.4252252 0.17463136 -0.8880807
vn -0.1217733 -0.24327193 -0.9622838
vn -0.22508019 -0.12488517 -0.9663036
vn 0.5329776 0.0 -0.8461294
vn -0.22712348 0.0 -0.973866
vn -0.26017871 -0.40459698 0.8767031
vn -0.32526985 -0.35826072 0.87512785
vn -0.22129333 -0.10565681 0.9694668
vn -0.22162783 -0.21573769 0.9509671
vn -0.26017871 0.40459698 0.8767031
vn -0.32526985 0.35826072 0.87512785
vn -0.22129333 0.10565681 0.9694668
vn -0.14328928 0.098120354 0.98480487
vn -0.109015696 0.09161957 0.9898088
vn -0.10672565 0.089451775 0.99025655
vn -0.07422261 0.110418335 0.99110985
vn 0.1496034 0.17111918 0.973826
vn 0.3275036 0.0 0.9448499
vn 0.1496034 -0.17111918 0.973826
vn -0.07422261 -0.110418335 0.99110985
vn -0.10672565 -0.089451775 0.99025655
vn 0.21616563 -0.38780412 -0.89603597
vn 0.09189157 -0.38081136 -0.9200754
vn 0.37211767 -0.29865852 -0.87882394
vn 0.50949 -0.106420964 -0.85387033
vn 0.5506228 0.0 -0.83475417
vn 0.50949 0.106420964 -0.85387033
vn 0.37211767 0.29865852 -0.87882394
vn 0.17395768 0.0 -0.9847531
vn -0.22162783 0.21573769 0.9509671
vt 0.0 0.0
vt 0.0 0.0
vt 0.0 0.0
vt 0.0 0.0
vt 0.0 0.0
vt 0.0 0.0
vt 0.0 0.0
vt 0.0 0.0
vt 0.0 0.0
vt 0.0 0.0
vt 0.0 0.0
vt 0.0 0.0
vt 0.0 0.0
vt 0.0 0.0
vt 0.0 0.0
vt 0.0 0.0
vt 0.0 0.0
vt 0.0 0.0
vt 0.0 0.0
vt 0.0 0.0
vt 0.0 0.0
vt 0.0 0.0
vt 0.0 0.0
vt 0.0 0.0
vt 0.0 0.0
vt 0.0 0.0
vt 0.0 0.0
vt 0.0 0.0
vt 0.0 0.0
vt 0.0 0.0
vt 0.0 0.0
vt 0.0 0.0
vt 0.0 0.0
vt 0.0 0.0
vt 0.0 0.0
vt 0.0 0.0
vt 0.0 0.0
vt 0.0 0.0
vt 0.0 0.0
vt 0.0 0.0
vt 0.0 0.0
vt 0.0 0.0
vt 0.0 0.0
vt 0.0 0.0
vt 0.0 0.0
vt 0.0 0.0
vt 0.0 0.0
vt 0.0 0.0
vt 0.0 0.0
vt 0.0 0.0
vt 0.0 0.0
vt 0.0 0.0
vt 0.0 0.0
vt 0.0 0.0
vt 0.0 0.0
vt 0.0 0.0
vt 0.0 0.0
vt 0.0 0.0
vt 0.0 0.0
vt 0.0 0.0
vt 0.0 0.0
vt 0.0 0.0
vt 0.0 0.0
vt 0.0 0.0
vt 0.0 0.0
vt 0.0 0.0
vt 0.0 0.0
vt 0.0 0.0
vt 0.0 0.0
vt 0.0 0.0
vt 0.0 0.0
vt 0.0 0.0
vt 0.0 0.0
vt 0.0 0.0
vt 0.0 0.0
vt 0.0 0.0
vt 0.0 0.0
vt 0.0 0.0
vt 0.0 0.0
vt 0.0 0.0
vt 0.0 0.0
vt 0.0 0.0
vt 0.0 0.0
vt 0.0 0.0
vt 0.0 0.0
vt 0.0 0.0
vt 0.0 0.0
vt 0.0 0.0
vt 0.0 0.0
vt 0.0 0.0
vt 0.0 0.0
vt 0.0 0.0
vt 0.0 0.0
vt 0.0 0.0
vt 0.0 0.0
vt 0.0 0.0
vt 0.0 0.0
vt 0.0 0.0
vt 0.0 0.0
vt 0.0 0.0
vt 0.0 0.0
vt 0.0 0.0
vt 0.0 0.0
vt 0.0 0.0
vt 0.0 0.0
vt 0.0 0.0
vt 0.0 0.0
vt 0.0 0.0
vt 0.0 0.0
vt 0.0 0.0
vt 0.0 0.0
vt 0.0 0.0
vt 0.0 0.0
vt 0.0 0.0
vt 0.0 0.0
vt 0.0 0.0
vt 0.0 0.0
vt 0.0 0.0
vt 0.0 0.0
vt 0.0 0.0
vt 0.0 0.0
vt 0.0 0.0
vt 0.0 0.0
vt 0.0 0.0
vt 0.0 0.0
vt 0.0 0.0
vt 0.0 0.0
vt 0.0 0.0
vt 0.0 0.0
vt 0.0 0.0
vt 0.0 0.0
vt 0.0 0.0
vt 0.0 0.0
vt 0.0 0.0
vt 0.0 0.0
vt 0.0 0.0
vt 0.0 0.0
vt 0.0 0.0
vt 0.0 0.0
vt 0.0 0.0
vt 0.0 0.0
vt 0.0 0.0
vt 0.0 0.0
vt 0.0 0.0
vt 0.0 0.0
vt 0.0 0.0
vt 0.0 0.0
vt 0.0 0.0

o Circle_018
s 1
usemtl Circle_018_0
f 1/1/1 2/2/2 3/3/3
f 1/1/1 4/4/4 2/2/2
f 2/2/2 5/5/5 3/3/3
f 2/2/2 6/6/6 5/5/5
f 7/7/7 4/4/4 1/1/1
f 7/7/7 8/8/8 4/4/4
f 9/9/9 8/8/8 7/7/7
f 9/9/9 10/10/10 8/8/8
f 11/11/11 10/10/10 9/9/9
f 11/11/11 12/12/12 10/10/10
f 13/13/13 12/12/12 11/11/11
f 7/7/7 13/13/13 9/9/9
f 9/9/9 13/13/13 11/11/11
f 13/13/13 14/14/14 12/12/12
f 15/15/15 14/14/14 13/13/13
f 7/7/7 15/15/15 13/13/13
f 1/1/1 15/15/15 7/7/7
f 15/15/15 16/16/16 14/14/14
f 17/17/17 16/16/16 15/15/15
f 17/17/17 18/18/18 16/16/16
f 19/19/19 18/18/18 17/17/17
f 19/19/19 20/20/20 18/18/18
f 21/21/21 20/20/20 19/19/19
f 21/21/21 19/19/19 22/22/22
f 23/23/23 21/21/21 22/22/22
f 23/23/23 22/22/22 24/24/24
f 25/25/25 23/23/23 24/24/24
f 25/25/25 24/24/24 26/26/26
f 27/27/27 25/25/25 26/26/26
f 27/27/27 26/26/26 28/28/28
f 29/29/29 27/27/27 28/28/28
f 29/29/29 28/28/28 30/30/30
f 26/26/26 30/30/30 28/28/28
f 31/31/31 29/29/29 30/30/30
f 31/31/31 30/30/30 32/32/32
f 26/26/26 32/32/32 30/30/30
f 26/26/26 24/24/24 32/32/32
f 6/6/6 31/31/31 32/32/32
f 6/6/6 32/32/32 5/5/5
f 24/24/24 5/5/5 32/32/32
f 24/24/24 22/22/22 5/5/5
f 22/22/22 3/3/3 5/5/5
f 22/22/22 19/19/19 3/3/3
f 3/3/3 19/19/19 17/17/17
f 3/3/3 17/17/17 1/1/1
f 1/1/1 17/17/17 15/15/15
f 33/33/33 25/25/25 27/27/27
f 33/33/33 34/34/34 25/25/25
f 34/34/34 23/23/23 25/25/25
f 34/34/34 35/35/35 23/23/23
f 35/35/35 21/21/21 23/23/23
f 35/35/35 36/36/36 21/21/21
f 36/36/36 20/20/20 21/21/21
f 36/36/36 37/37/37 20/20/20
f 20/20/20 37/37/37 38/38/38
f 20/20/20 38/38/38 18/18/18
f 18/18/18 38/38/38 39/39/39
f 18/18/18 39/39/39 16/16/16
f 16/16/16 39/39/39 40/40/40
f 16/16/16 40/40/40 14/14/14
f 14/14/14 40/40/40 41/41/41
f 14/14/14 41/41/41 12/12/12
f 12/12/12 41/41/41 42/42/42
f 12/12/12 42/42/42 10/10/10
f 10/10/10 42/42/42 8/8/8
f 8/8/8 42/42/42 43/43/43
f 8/8/8 43/43/43 4/4/4
f 42/42/42 41/41/41 44/44/44
f 42/42/42 44/44/44 45/45/45
f 43/43/43 42/42/42 45/45/45
f 41/41/41 46/46/46 44/44/44
f 41/41/41 40/40/40 46/46/46
f 40/40/40 47/47/47 46/46/46
f 40/40/40 39/39/39 47/47/47
f 39/39/39 48/48/48 47/47/47
f 39/39/39 38/38/38 48/48/48
f 38/38/38 49/49/49 48/48/48
f 38/38/38 37/37/37 49/49/49
f 49/49/49 37/37/37 36/36/36
f 49/49/49 36/36/36 50/50/50
f 50/50/50 36/36/36 35/35/35
f 50/50/50 35/35/35 51/51/51
f 51/51/51 35/35/35 34/34/34
f 51/51/51 34/34/34 52/52/52
f 52/52/52 34/34/34 33/33/33
f 52/52/52 33/33/33 53/53/53
f 53/53/53 33/33/33 54/54/54
f 54/54/54 33/33/33 27/27/27
f 54/54/54 27/27/27 29/29/29
f 54/54/54 29/29/29 31/31/31
f 55/55/55 54/54/54 31/31/31
f 55/55/55 31/31/31 6/6/6
f 53/53/53 54/54/54 56/56/56
f 56/56/56 54/54/54 55/55/55
f 57/57/57 55/55/55 6/6/6
f 56/56/56 55/55/55 57/57/57
f 57/57/57 6/6/6 58/58/58
f 57/57/57 58/58/58 59/59/59
f 59/59/59 58/58/58 60/60/60
f 6/6/6 2/2/2 58/58/58
f 2/2/2 4/4/4 58/58/58
f 4/4/4 60/60/60 58/58/58
f 4/4/4 43/43/43 60/60/60
f 56/56/56 61/61/61 53/53/53
f 56/56/56 62/62/62 61/61/61
f 62/62/62 63/63/63 61/61/61
f 62/62/62 64/64/64 63/63/63
f 65/65/65 63/63/63 64/64/64
f 66/66/66 63/63/63 65/65/65
f 66/66/66 67/67/67 63/63/63
f 61/61/61 63/63/63 67/67/67
f 68/68/68 67/67/67 66/66/66
f 68/68/68 69/69/69 67/67/67
f 70/70/70 69/69/69 68/68/68
f 70/70/70 71/71/71 69/69/69
f 72/72/72 71/71/71 70/70/70
f 72/72/72 73/73/73 71/71/71
f 74/74/74 73/73/73 72/72/72
f 74/74/74 72/72/72 75/75/75
f 76/76/76 74/74/74 75/75/75
f 76/76/76 75/75/75 77/77/77
f 78/78/78 76/76/76 77/77/77
f 78/78/78 77/77/77 79/79/79
f 80/80/80 78/78/78 79/79/79
f 80/80/80 79/79/79 81/81/81
f 82/82/82 80/80/80 81/81/81
f 82/82/82 81/81/81 83/83/83
f 84/84/84 82/82/82 83/83/83
f 84/84/84 83/83/83 85/85/85
f 86/86/86 84/84/84 85/85/85
f 86/86/86 85/85/85 87/87/87
f 88/88/88 86/86/86 87/87/87
f 88/88/88 87/87/87 89/89/89
f 90/90/90 88/88/88 89/89/89
f 90/90/90 89/89/89 91/91/91
f 89/89/89 92/92/92 91/91/91
f 83/83/83 92/92/92 85/85/85
f 93/93/93 85/85/85 92/92/92
f 89/89/89 93/93/93 92/92/92
f 85/85/85 93/93/93 87/87/87
f 93/93/93 89/89/89 87/87/87
f 94/94/94 91/91/91 92/92/92
f 83/83/83 94/94/94 92/92/92
f 81/81/81 94/94/94 83/83/83
f 79/79/79 95/95/95 81/81/81
f 81/81/81 95/95/95 94/94/94
f 96/96/96 91/91/91 94/94/94
f 95/95/95 96/96/96 94/94/94
f 96/96/96 97/97/97 91/91/91
f 95/95/95 98/98/98 96/96/96
f 95/95/95 99/99/99 98/98/98
f 95/95/95 100/100/100 99/99/99
f 79/79/79 100/100/100 95/95/95
f 77/77/77 100/100/100 79/79/79
f 77/77/77 101/101/101 100/100/100
f 75/75/75 101/101/101 77/77/77
f 75/75/75 102/102/102 101/101/101
f 72/72/72 102/102/102 75/75/75
f 72/72/72 103/103/103 102/102/102
f 104/104/104 103/103/103 72/72/72
f 104/104/104 72/72/72 70/70/70
f 105/105/105 104/104/104 70/70/70
f 105/105/105 70/70/70 68/68/68
f 106/106/106 105/105/105 68/68/68
f 106/106/106 68/68/68 66/66/66
f 107/107/107 106/106/106 66/66/66
f 107/107/107 66/66/66 65/65/65
f 108/108/108 107/107/107 65/65/65
f 108/108/108 65/65/65 109/109/109
f 65/65/65 64/64/64 109/109/109
f 109/109/109 64/64/64 110/110/110
f 109/109/109 110/110/110 111/111/111
f 111/111/111 110/110/110 112/112/112
f 111/111/111 112/112/112 113/113/113
f 113/113/113 112/112/112 114/114/114
f 113/113/113 114/114/114 115/115/115
f 115/115/115 114/114/114 116/116/116
f 115/115/115 116/116/116 117/117/117
f 118/118/118 115/115/115 117/117/117
f 117/117/117 108/108/108 118/118/118
f 118/118/118 109/109/109 111/111/111
f 118/118/118 108/108/108 109/109/109
f 111/111/111 119/119/119 118/118/118
f 118/118/118 119/119/119 115/115/115
f 119/119/119 111/111/111 113/113/113
f 115/115/115 119/119/119 113/113/113
f 117/117/117 120/120/120 108/108/108
f 120/120/120 107/107/107 108/108/108
f 117/117/117 121/121/121 120/120/120
f 117/117/117 122/122/122 121/121/121
f 122/122/122 123/123/123 121/121/121
f 123/123/123 122/122/122 97/97/97
f 122/122/122 91/91/91 97/97/97
f 59/59/59 91/91/91 122/122/122
f 59/59/59 117/117/117 116/116/116
f 59/59/59 122/122/122 117/117/117
f 59/59/59 90/90/90 91/91/91
f 124/124/124 114/114/114 112/112/112
f 124/124/124 112/112/112 125/125/125
f 125/125/125 126/126/126 124/124/124
f 125/125/125 110/110/110 126/126/126
f 125/125/125 112/112/112 110/110/110
f 126/126/126 110/110/110 64/64/64
f 126/126/126 64/64/64 62/62/62
f 127/127/127 126/126/126 62/62/62
f 127/127/127 124/124/124 126/126/126
f 127/127/127 62/62/62 56/56/56
f 127/127/127 56/56/56 57/57/57
f 57/57/57 124/124/124 127/127/127
f 57/57/57 114/114/114 124/124/124
f 57/57/57 116/116/116 114/114/114
f 116/116/116 57/57/57 59/59/59
f 60/60/60 90/90/90 59/59/59
f 88/88/88 90/90/90 60/60/60
f 88/88/88 60/60/60 128/128/128
f 86/86/86 88/88/88 128/128/128
f 86/86/86 128/128/128 129/129/129
f 130/130/130 129/129/129 128/128/128
f 84/84/84 129/129/129 130/130/130
f 84/84/84 86/86/86 129/129/129
f 82/82/82 84/84/84 130/130/130
f 82/82/82 130/130/130 131/131/131
f 80/80/80 82/82/82 131/131/131
f 80/80/80 131/131/131 132/132/132
f 132/132/132 131/131/131 45/45/45
f 132/132/132 45/45/45 44/44/44
f 78/78/78 80/80/80 132/132/132
f 78/78/78 132/132/132 133/133/133
f 133/133/133 132/132/132 44/44/44
f 133/133/133 44/44/44 46/46/46
f 76/76/76 78/78/78 133/133/133
f 76/76/76 133/133/133 134/134/134
f 134/134/134 133/133/133 46/46/46
f 74/74/74 76/76/76 134/134/134
f 74/74/74 134/134/134 135/135/135
f 135/135/135 134/134/134 47/47/47
f 134/134/134 46/46/46 47/47/47
f 135/135/135 47/47/47 48/48/48
f 73/73/73 74/74/74 135/135/135
f 73/73/73 135/135/135 136/136/136
f 136/136/136 135/135/135 48/48/48
f 137/137/137 73/73/73 136/136/136
f 137/137/137 71/71/71 73/73/73
f 138/138/138 71/71/71 137/137/137
f 138/138/138 69/69/69 71/71/71
f 51/51/51 138/138/138 137/137/137
f 51/51/51 137/137/137 50/50/50
f 50/50/50 137/137/137 136/136/136
f 136/136/136 48/48/48 49/49/49
f 50/50/50 136/136/136 49/49/49
f 139/139/139 69/69/69 138/138/138
f 139/139/139 67/67/67 69/69/69
f 61/61/61 67/67/67 139/139/139
f 53/53/53 61/61/61 139/139/139
f 53/53/53 139/139/139 52/52/52
f 52/52/52 138/138/138 51/51/51
f 52/52/52 139/139/139 138/138/138
f 140/140/140 107/107/107 141/141/141
f 140/140/140 106/106/106 107/107/107
f 141/141/141 107/107/107 120/120/120
f 142/142/142 106/106/106 140/140/140
f 142/142/142 105/105/105 106/106/106
f 142/142/142 104/104/104 105/105/105
f 142/142/142 143/143/143 104/104/104
f 144/144/144 104/104/104 143/143/143
f 144/144/144 103/103/103 104/104/104
f 102/102/102 103/103/103 144/144/144
f 102/102/102 144/144/144 145/145/145
f 102/102/102 145/145/145 146/146/146
f 102/102/102 146/146/146 101/101/101
f 100/100/100 101/101/101 146/146/146
f 100/100/100 146/146/146 99/99/99
f 144/144/144 147/147/147 145/145/145
f 147/147/147 144/144/144 143/143/143
f 146/146/146 147/147/147 99/99/99
f 147/147/147 141/141/141 120/120/120
f 145/145/145 147/147/147 146/146/146
f 147/147/147 143/143/143 142/142/142
f 147/147/147 142/142/142 140/140/140
f 99/99/99 147/147/147 98/98/98
f 98/98/98 147/147/147 96/96/96
f 147/147/147 140/140/140 141/141/141
f 96/96/96 147/147/147 97/97/97
f 97/97/97 147/147/147 123/123/123
f 147/147/147 121/121/121 123/123/123
f 147/147/147 120/120/120 121/121/121
f 131/131/131 148/148/148 45/45/45
f 131/131/131 130/130/130 148/148/148
f 45/45/45 148/148/148 60/60/60
f 128/128/128 60/60/60 148/148/148
f 128/128/128 148/148/148 130/130/130
f 43/43/43 45/45/45 60/60/60

