# Created by DisUnity v0.2.1
v 0.163845 -0.152887 0.960431
v 0.122974 -0.364439 0.956325
v 0.103028 -0.354771 0.921284
v 0.178929 -0.163451 0.974443
v -0.153871 -0.193711 0.965987
v -0.160247 -0.190355 0.983533
v -0.125362 -0.320719 0.94311
v -0.131953 -0.354008 0.965858
v -0.006946 -0.428157 0.955289
v -0.019941 -0.402708 0.91998
v 0.051059 -0.35843 1.118525
v 0.116886 -0.194465 1.14779
v -0.023444 -0.258601 1.158701
v 0.129128 -0.290981 1.127649
v 0.021615 -0.117226 1.167204
v 0.097376 -0.097841 1.122508
v 0.013917 -0.015188 1.105291
v 0.059208 -0.013972 1.004976
v 0.111231 -0.059711 1.028633
v 0.02287 0.042044 0.969338
v 0.175397 -0.097145 1.02848
v 0.180278 -0.176611 1.08846
v 0.092577 -0.052397 0.977256
v 0.1777 -0.10909 0.975896
v 0.202653 -0.161694 0.986931
v 0.176928 -0.244385 1.067091
v 0.185587 -0.26223 1.029577
v 0.152913 -0.200789 0.938965
v 0.14423 -0.280594 0.955737
v 0.12012 -0.354073 1.012042
v 0.051913 -0.05953 0.890736
v 0.102692 -0.206737 0.903548
v 0.064963 -0.046913 0.885974
v 0.092148 0.029954 0.914718
v 0.101195 0.037276 0.877504
v 0.086358 0.070159 0.882676
v 0.060574 0.063145 0.941579
v 0.030565 0.117898 0.873329
v -0.003843 0.111642 0.924739
v -0.04146 0.116483 0.866224
v -0.074343 0.102373 0.897483
v -0.057179 0.087437 0.936057
v -0.046019 0.033545 0.97387
v -0.050374 -0.030495 1.088641
v -0.093499 -0.00822 0.980096
v -0.086782 -0.04051 1.053741
v -0.108496 -0.136379 1.109065
v -0.08225 -0.172956 1.151527
v -0.159182 -0.247143 1.097293
v -0.153251 -0.162775 1.065705
v -0.178006 -0.219726 1.035999
v -0.129269 -0.09891 1.035937
v -0.16283 -0.141564 0.998755
v -0.100875 -0.046698 0.976792
v -0.125617 -0.167487 0.927469
v -0.065404 -0.071751 0.874663
v -0.180426 -0.202491 0.994149
v -0.145484 -0.307934 1.057895
v -0.063586 -0.141774 0.916866
v -0.005153 -0.251074 0.924566
v -0.126589 -0.259016 0.948075
v 0.023006 -0.004381 0.821138
v 0.070143 0.057992 0.81889
v 0.008378 0.05631 0.802107
v -0.065919 0.015652 0.806646
v -0.110328 6.82E-4 0.858963
v -0.080377 0.090331 0.852688
v -0.039757 0.089781 0.828188
v 9.26E-4 0.105362 0.828782
v -0.103332 0.028951 0.925578
v -0.116224 -0.357267 1.035397
v -0.059089 -0.360466 1.092067
v 0.005328 -0.393179 1.05364
v -0.01183 -0.39602 0.971892
v -0.088714 -0.334271 0.952944
v -0.155073 -0.298949 0.986219
v -0.014314 -0.337377 0.948128
v 0.065719 -0.307671 0.931287
v -0.00982 -0.008244 1.051887
v 0.026927 0.178796 1.158513
v 0.070944 0.161743 1.116025
v -0.03608 0.178475 1.13855
v 0.070994 0.401668 1.178548
v 0.102633 0.286629 1.150836
v -0.009069 0.334278 1.17445
v 0.032111 0.495822 1.175064
v 0.068916 0.626311 1.151216
v 0.089153 0.478028 1.174262
v -0.00982 -0.008244 1.051887
v 0.070944 0.161743 1.116025
v 0.026927 0.178796 1.158513
v -0.03608 0.178475 1.13855
v 0.070994 0.401668 1.178548
v 0.102633 0.286629 1.150836
v -0.009069 0.334278 1.17445
v 0.032111 0.495822 1.175064
v 0.068916 0.626311 1.151216
v 0.089153 0.478028 1.174262
vn 0.3112045 0.78068167 -0.5419297
vn 0.56691766 -0.82303166 -0.03497457
vn 0.25035274 -0.44692984 -0.8588231
vn 0.90323216 0.35716066 0.23792396
vn -0.629346 0.56806254 -0.53030974
vn -0.6079465 0.445919 0.65693015
vn -0.4645402 -0.11170207 -0.87847877
vn -0.43075368 -0.8357793 0.3404767
vn 0.14273608 -0.9886846 0.046144314
vn 0.05389585 -0.5544924 -0.8304416
vn 0.2161672 -0.6982172 0.68246937
vn 0.4420124 0.030000566 0.8965072
vn -0.13858901 -0.26139942 0.9552295
vn 0.5540763 -0.41445088 0.7219625
vn 0.03347943 0.2930137 0.9555219
vn 0.5287743 0.5327113 0.6607695
vn 0.13205619 0.7622758 0.6336377
vn 0.6910751 0.629579 0.35502902
vn 0.5379365 0.823019 0.18238448
vn 0.17460229 0.7066494 0.6856825
vn 0.7507754 0.6312923 0.1944386
vn 0.8500831 0.12589191 0.5113805
vn 0.83525354 0.51016146 -0.20515105
vn 0.6443497 0.5206558 -0.560117
vn 0.9535206 0.052890286 -0.2966495
vn 0.8908518 -0.285567 0.35331935
vn 0.9179391 -0.39501566 0.03674564
vn 0.68732125 -0.044618964 -0.72498184
vn 0.6666957 -0.42070958 -0.6152401
vn 0.61334187 -0.7753066 -0.15070319
vn 0.4492365 -0.46135247 -0.76507545
vn 0.286638 -0.12906645 -0.94930524
vn 0.6968471 -0.5466616 -0.46429002
vn 0.9562501 0.124791965 0.26459923
vn 0.98464394 -0.031709544 -0.17167103
vn 0.79512614 0.60416526 0.052524164
vn 0.55789584 0.59903604 0.5743763
vn 0.37999737 0.9235789 -0.051028483
vn 0.07245237 0.84995717 0.52184623
vn -0.25016874 0.94976836 -0.18803094
vn -0.6496271 0.7335848 0.19959415
vn -0.4152713 0.61880225 0.6668085
vn -0.35414544 0.7025533 0.61725193
vn -0.46919858 0.6354659 0.61321765
vn -0.8892907 0.3905811 0.23792547
vn -0.72517055 0.57586986 0.37749404
vn -0.6817398 0.39620137 0.6150246
vn -0.45168152 0.14026542 0.8810842
vn -0.78522336 -0.17093691 0.59515107
vn -0.86454594 0.35954586 0.35112262
vn -0.9857093 -0.009430435 0.16819134
vn -0.8266465 0.49480987 0.2679902
vn -0.9137675 0.39457932 -0.09662296
vn -0.9293732 0.29997402 -0.21513042
vn -0.5198609 0.103642575 -0.8479404
vn -0.49121052 -0.5867058 -0.64380777
vn -0.9593594 0.042268578 -0.27900317
vn -0.7971318 -0.49892837 0.3400758
vn -0.2968293 -0.07910566 -0.95164835
vn -0.13312607 -0.2082956 -0.96896356
vn -0.47302032 -0.20994303 -0.8556727
vn 0.3025995 -0.49859485 -0.81230336
vn 0.66132 0.16214837 -0.7323686
vn 0.072695866 0.14984748 -0.986033
vn -0.40590927 -0.14631045 -0.9021257
vn -0.93376493 -0.16715355 -0.3164534
vn -0.7278633 0.55976105 -0.39608413
vn -0.3186505 0.56707644 -0.7595303
vn 0.056095187 0.75923824 -0.64839077
vn -0.91068953 0.2930748 0.29112154
vn -0.61380196 -0.7840685 0.092106916
vn -0.34712645 -0.70997036 0.6127359
vn 0.03225812 -0.97338957 0.226875
vn -0.04526005 -0.8730642 -0.48550025
vn -0.37062606 -0.48269284 -0.7935011
vn -0.82100415 -0.42831022 -0.3774953
vn -0.09082464 -0.30857792 -0.946853
vn 0.19022433 -0.45323622 -0.8708569
vn -0.10922829 0.5083892 -0.85417193
vn -0.17774433 0.3253661 -0.9287324
vn -0.51843315 0.38198093 -0.76506054
vn 0.28517056 0.31520137 -0.9051662
vn -0.22556332 0.043885816 -0.9732396
vn 0.025238907 0.24066989 -0.97027874
vn 0.03296045 0.08359136 -0.9959549
vn -0.15006064 -0.0983619 -0.9837716
vn -0.06253291 -0.12109838 -0.99066895
vn 0.1751202 -0.09662436 -0.9797942
vn 0.10922829 -0.5083892 0.85417193
vn 0.51843315 -0.38198093 0.76506054
vn 0.17774433 -0.3253661 0.9287324
vn -0.28517056 -0.31520137 0.9051662
vn 0.22556332 -0.043885816 0.9732396
vn -0.025238907 -0.24066989 0.97027874
vn -0.03296045 -0.08359136 0.9959549
vn 0.15006064 0.0983619 0.9837716
vn 0.06253291 0.12109838 0.99066895
vn -0.1751202 0.09662436 0.9797942
vt 0.181474 0.192018
vt 0.181474 0.192018
vt 0.181474 0.192018
vt 0.181474 0.192018
vt 0.181474 0.192018
vt 0.181474 0.192018
vt 0.181474 0.192018
vt 0.181474 0.192018
vt 0.181474 0.192018
vt 0.181474 0.192018
vt 0.181474 0.192018
vt 0.181474 0.192018
vt 0.181474 0.192018
vt 0.181474 0.192018
vt 0.181474 0.192018
vt 0.181474 0.192018
vt 0.181474 0.192018
vt 0.181474 0.192018
vt 0.181474 0.192018
vt 0.181474 0.192018
vt 0.181474 0.192018
vt 0.181474 0.192018
vt 0.181474 0.192018
vt 0.181474 0.192018
vt 0.181474 0.192018
vt 0.181474 0.192018
vt 0.181474 0.192018
vt 0.181474 0.192018
vt 0.181474 0.192018
vt 0.181474 0.192018
vt 0.181474 0.192018
vt 0.181474 0.192018
vt 0.181474 0.192018
vt 0.181474 0.192018
vt 0.181474 0.192018
vt 0.181474 0.192018
vt 0.181474 0.192018
vt 0.181474 0.192018
vt 0.181474 0.192018
vt 0.181474 0.192018
vt 0.181474 0.192018
vt 0.181474 0.192018
vt 0.181474 0.192018
vt 0.181474 0.192018
vt 0.181474 0.192018
vt 0.181474 0.192018
vt 0.181474 0.192018
vt 0.181474 0.192018
vt 0.181474 0.192018
vt 0.181474 0.192018
vt 0.181474 0.192018
vt 0.181474 0.192018
vt 0.181474 0.192018
vt 0.181474 0.192018
vt 0.181474 0.192018
vt 0.181474 0.192018
vt 0.181474 0.192018
vt 0.181474 0.192018
vt 0.181474 0.192018
vt 0.181474 0.192018
vt 0.181474 0.192018
vt 0.181474 0.192018
vt 0.181474 0.192018
vt 0.181474 0.192018
vt 0.181474 0.192018
vt 0.181474 0.192018
vt 0.181474 0.192018
vt 0.181474 0.192018
vt 0.181474 0.192018
vt 0.181474 0.192018
vt 0.181474 0.192018
vt 0.181474 0.192018
vt 0.181474 0.192018
vt 0.181474 0.192018
vt 0.181474 0.192018
vt 0.181474 0.192018
vt 0.181474 0.192018
vt 0.181474 0.192018
vt 0.001982 0.987983
vt 0.322618 0.661007
vt 0.376457 0.781508
vt 0.206082 0.590309
vt 0.688101 0.367704
vt 0.591989 0.605634
vt 0.463298 0.366893
vt 0.754728 0.161645
vt 0.998018 0.001982
vt 0.824334 0.271334
vt 0.001982 0.987983
vt 0.376457 0.781508
vt 0.322618 0.661007
vt 0.206082 0.590309
vt 0.688101 0.367704
vt 0.591989 0.605634
vt 0.463298 0.366893
vt 0.754728 0.161645
vt 0.998018 0.001982
vt 0.824334 0.271334

o Cube
s 1
usemtl Cube_0
f 1/1/1 2/2/2 3/3/3
f 1/1/1 4/4/4 2/2/2
f 4/4/4 1/1/1 5/5/5
f 3/3/3 5/5/5 1/1/1
f 4/4/4 5/5/5 6/6/6
f 6/6/6 2/2/2 4/4/4
f 6/6/6 5/5/5 7/7/7
f 3/3/3 7/7/7 5/5/5
f 6/6/6 7/7/7 8/8/8
f 8/8/8 2/2/2 6/6/6
f 8/8/8 7/7/7 9/9/9
f 2/2/2 9/9/9 3/3/3
f 9/9/9 7/7/7 3/3/3
f 8/8/8 9/9/9 2/2/2
f 9/9/9 7/7/7 8/8/8
f 3/3/3 2/2/2 9/9/9
f 3/3/3 7/7/7 10/10/10
f 3/3/3 10/10/10 7/7/7
f 9/9/9 10/10/10 7/7/7
f 3/3/3 9/9/9 10/10/10
f 10/10/10 8/8/8 7/7/7
f 8/8/8 10/10/10 9/9/9
f 11/11/11 12/12/12 13/13/13
f 14/14/14 12/12/12 11/11/11
f 15/15/15 13/13/13 12/12/12
f 12/12/12 16/16/16 15/15/15
f 15/15/15 16/16/16 17/17/17
f 18/18/18 17/17/17 16/16/16
f 19/19/19 18/18/18 16/16/16
f 20/20/20 17/17/17 18/18/18
f 19/19/19 16/16/16 21/21/21
f 22/22/22 21/21/21 16/16/16
f 12/12/12 22/22/22 16/16/16
f 22/22/22 12/12/12 14/14/14
f 19/19/19 21/21/21 23/23/23
f 19/19/19 23/23/23 18/18/18
f 21/21/21 24/24/24 23/23/23
f 25/25/25 24/24/24 21/21/21
f 25/25/25 21/21/21 22/22/22
f 26/26/26 25/25/25 22/22/22
f 14/14/14 26/26/26 22/22/22
f 27/27/27 25/25/25 26/26/26
f 25/25/25 27/27/27 28/28/28
f 23/23/23 24/24/24 28/28/28
f 24/24/24 25/25/25 28/28/28
f 28/28/28 27/27/27 29/29/29
f 27/27/27 30/30/30 29/29/29
f 26/26/26 30/30/30 27/27/27
f 31/31/31 23/23/23 28/28/28
f 31/31/31 28/28/28 32/32/32
f 29/29/29 32/32/32 28/28/28
f 23/23/23 31/31/31 33/33/33
f 30/30/30 26/26/26 14/14/14
f 33/33/33 34/34/34 23/23/23
f 34/34/34 33/33/33 35/35/35
f 35/35/35 36/36/36 34/34/34
f 36/36/36 37/37/37 34/34/34
f 23/23/23 34/34/34 37/37/37
f 37/37/37 36/36/36 38/38/38
f 38/38/38 39/39/39 37/37/37
f 20/20/20 37/37/37 39/39/39
f 39/39/39 38/38/38 40/40/40
f 40/40/40 41/41/41 39/39/39
f 39/39/39 41/41/41 42/42/42
f 42/42/42 43/43/43 39/39/39
f 39/39/39 43/43/43 20/20/20
f 17/17/17 20/20/20 43/43/43
f 43/43/43 44/44/44 17/17/17
f 17/17/17 44/44/44 15/15/15
f 43/43/43 45/45/45 44/44/44
f 44/44/44 45/45/45 46/46/46
f 46/46/46 47/47/47 44/44/44
f 44/44/44 47/47/47 48/48/48
f 15/15/15 44/44/44 48/48/48
f 49/49/49 48/48/48 47/47/47
f 47/47/47 50/50/50 49/49/49
f 50/50/50 51/51/51 49/49/49
f 47/47/47 46/46/46 52/52/52
f 52/52/52 50/50/50 47/47/47
f 52/52/52 51/51/51 50/50/50
f 51/51/51 52/52/52 53/53/53
f 52/52/52 46/46/46 54/54/54
f 54/54/54 46/46/46 45/45/45
f 53/53/53 52/52/52 54/54/54
f 54/54/54 55/55/55 53/53/53
f 56/56/56 54/54/54 45/45/45
f 53/53/53 57/57/57 51/51/51
f 57/57/57 53/53/53 55/55/55
f 15/15/15 48/48/48 13/13/13
f 13/13/13 48/48/48 49/49/49
f 58/58/58 49/49/49 51/51/51
f 56/56/56 59/59/59 54/54/54
f 55/55/55 54/54/54 59/59/59
f 59/59/59 56/56/56 31/31/31
f 31/31/31 32/32/32 59/59/59
f 32/32/32 55/55/55 59/59/59
f 32/32/32 60/60/60 55/55/55
f 55/55/55 60/60/60 61/61/61
f 61/61/61 57/57/57 55/55/55
f 31/31/31 56/56/56 62/62/62
f 62/62/62 33/33/33 31/31/31
f 35/35/35 33/33/33 62/62/62
f 63/63/63 35/35/35 62/62/62
f 63/63/63 62/62/62 64/64/64
f 64/64/64 62/62/62 65/65/65
f 56/56/56 65/65/65 62/62/62
f 66/66/66 65/65/65 56/56/56
f 65/65/65 66/66/66 67/67/67
f 67/67/67 68/68/68 65/65/65
f 64/64/64 65/65/65 68/68/68
f 68/68/68 67/67/67 40/40/40
f 69/69/69 68/68/68 40/40/40
f 64/64/64 68/68/68 69/69/69
f 69/69/69 63/63/63 64/64/64
f 38/38/38 63/63/63 69/69/69
f 40/40/40 38/38/38 69/69/69
f 67/67/67 66/66/66 41/41/41
f 41/41/41 40/40/40 67/67/67
f 36/36/36 35/35/35 63/63/63
f 38/38/38 36/36/36 63/63/63
f 41/41/41 66/66/66 70/70/70
f 70/70/70 42/42/42 41/41/41
f 42/42/42 70/70/70 43/43/43
f 45/45/45 43/43/43 70/70/70
f 45/45/45 70/70/70 66/66/66
f 66/66/66 56/56/56 45/45/45
f 58/58/58 71/71/71 72/72/72
f 71/71/71 73/73/73 72/72/72
f 72/72/72 73/73/73 11/11/11
f 73/73/73 71/71/71 74/74/74
f 75/75/75 74/74/74 71/71/71
f 75/75/75 71/71/71 76/76/76
f 58/58/58 76/76/76 71/71/71
f 75/75/75 76/76/76 61/61/61
f 57/57/57 61/61/61 76/76/76
f 75/75/75 61/61/61 77/77/77
f 75/75/75 77/77/77 74/74/74
f 76/76/76 51/51/51 57/57/57
f 58/58/58 51/51/51 76/76/76
f 77/77/77 78/78/78 74/74/74
f 77/77/77 60/60/60 78/78/78
f 77/77/77 61/61/61 60/60/60
f 74/74/74 78/78/78 30/30/30
f 73/73/73 30/30/30 11/11/11
f 30/30/30 73/73/73 74/74/74
f 78/78/78 60/60/60 32/32/32
f 78/78/78 32/32/32 29/29/29
f 29/29/29 30/30/30 78/78/78
f 72/72/72 11/11/11 13/13/13
f 30/30/30 14/14/14 11/11/11
f 13/13/13 49/49/49 72/72/72
f 58/58/58 72/72/72 49/49/49
f 37/37/37 18/18/18 23/23/23
f 18/18/18 37/37/37 20/20/20
f 79/79/79 80/80/80 81/81/81
f 79/79/79 82/82/82 80/80/80
f 80/80/80 83/83/83 81/81/81
f 81/81/81 83/83/83 84/84/84
f 82/82/82 85/85/85 80/80/80
f 80/80/80 85/85/85 83/83/83
f 85/85/85 86/86/86 83/83/83
f 86/86/86 87/87/87 83/83/83
f 87/87/87 88/88/88 83/83/83
f 88/88/88 84/84/84 83/83/83
f 89/89/89 90/90/90 91/91/91
f 89/89/89 91/91/91 92/92/92
f 91/91/91 90/90/90 93/93/93
f 90/90/90 94/94/94 93/93/93
f 92/92/92 91/91/91 95/95/95
f 91/91/91 93/93/93 95/95/95
f 95/95/95 93/93/93 96/96/96
f 96/96/96 93/93/93 97/97/97
f 97/97/97 93/93/93 98/98/98
f 98/98/98 93/93/93 94/94/94

