# Created by DisUnity v0.2.1
v -0.100256 0.150109 -0.069566
v -0.133988 0.152532 -0.028961
v -0.098524 0.154785 -0.059172
v -0.143612 0.147508 -0.030798
v -0.051458 0.152547 -0.059047
v -0.047005 0.147523 -0.068303
v -0.006858 0.147508 -0.033127
v -0.015649 0.152532 -0.028578
v -0.014427 0.152532 0.016515
v -0.004803 0.147508 0.018351
v -0.03971 0.152545 0.056787
v -0.034221 0.147523 0.065265
v -0.07352 0.150277 0.072542
v -0.071666 0.14491 0.082573
v -0.1075 0.153187 0.056792
v -0.113962 0.1473 0.065646
v -0.142966 0.147508 0.020975
v -0.134173 0.152532 0.016426
v -0.133988 0.152532 -0.028961
v -0.143612 0.147508 -0.030798
v -0.003485 0.134892 -0.034872
v -0.045298 0.13491 -0.071852
v -0.100795 0.137638 -0.073939
v -0.147305 0.134892 -0.031501
v -0.032116 0.134907 0.071051
v -0.00111 0.134892 0.019058
v -0.146337 0.134892 0.02272
v -0.116385 0.134391 0.072032
v -0.070828 0.132171 0.094414
v -0.101872 0.124897 -0.067894
v -0.146558 0.122278 -0.027084
v -0.048064 0.122293 -0.064323
v -0.007158 0.122278 -0.02888
v -0.004803 0.122278 0.018351
v -0.034221 0.122291 0.070188
v -0.071366 0.119697 0.092553
v -0.113497 0.122161 0.070401
v -0.146073 0.122278 0.027158
v -0.147305 0.134892 -0.031501
v -0.146558 0.122278 -0.027084
v -0.053129 0.117269 -0.054359
v -0.102144 0.119532 -0.055108
v -0.015931 0.116906 -0.023523
v -0.014427 0.117254 0.016515
v -0.03971 0.117269 0.061031
v -0.073101 0.115024 0.079845
v -0.10651 0.118041 0.060373
v -0.138819 0.117254 0.025105
v -0.138638 0.117254 -0.02333
v -0.138638 0.117254 -0.02333
v -0.077112 0.137185 0.081951
v -0.069634 0.140183 0.092522
v -0.070716 0.138219 0.081951
v -0.078336 0.138778 0.092522
v -0.072964 0.133175 0.098336
v -0.069634 0.140183 0.092522
v -0.065687 0.131821 0.092522
v -0.071951 0.125245 0.092522
v -0.079769 0.129545 0.092522
v -0.078336 0.138778 0.092522
v -0.070716 0.138219 0.081951
v -0.067815 0.132072 0.081951
v -0.069634 0.140183 0.092522
v -0.067815 0.132072 0.081951
v -0.071951 0.125245 0.092522
v -0.072418 0.127241 0.081951
v -0.072418 0.127241 0.081951
v -0.078163 0.130401 0.081951
v -0.071951 0.125245 0.092522
v -0.078163 0.130401 0.081951
v -0.078336 0.138778 0.092522
v -0.077112 0.137185 0.081951
v -0.090239 0.136141 0.08175
v -0.081905 0.155209 0.094963
v -0.095443 0.137036 0.094963
v -0.079835 0.150106 0.08175
v -0.083368 0.11921 0.08175
v -0.086505 0.115001 0.094963
v -0.066093 0.116246 0.08175
v -0.064026 0.111143 0.094963
v -0.055692 0.130211 0.08175
v -0.050485 0.129316 0.094963
v -0.06256 0.147142 0.08175
v -0.059426 0.151348 0.094963
v -0.079835 0.150106 0.08175
v -0.081905 0.155209 0.094963
v -0.080188 0.15098 0.111102
v -0.091128 0.136294 0.111102
v -0.062024 0.147861 0.111102
v -0.080188 0.15098 0.111102
v -0.0548 0.130058 0.111102
v -0.06574 0.115372 0.111102
v -0.083904 0.118491 0.111102
v -0.072964 0.133177 0.121394
v -0.072964 0.133177 0.121394
v -0.072964 0.133177 0.121394
v -0.072964 0.133177 0.121394
v -0.072964 0.133177 0.121394
v -0.089736 0.128087 0.08175
v -0.09083 0.148867 0.094963
v -0.086693 0.145235 0.08175
v -0.09479 0.126553 0.094963
v -0.076007 0.11603 0.08175
v -0.076924 0.110861 0.094963
v -0.059235 0.121117 0.08175
v -0.0551 0.117483 0.094963
v -0.056192 0.138265 0.08175
v -0.051138 0.139799 0.094963
v -0.069921 0.150322 0.08175
v -0.069004 0.155489 0.094963
v -0.086693 0.145235 0.08175
v -0.09083 0.148867 0.094963
v -0.087399 0.145857 0.111102
v -0.090599 0.127825 0.111102
v -0.069764 0.151206 0.111102
v -0.087399 0.145857 0.111102
v -0.055329 0.138526 0.111102
v -0.058529 0.120498 0.111102
v -0.076164 0.115146 0.111102
v -0.072964 0.133177 0.121394
v -0.072964 0.133177 0.121394
v -0.072964 0.133177 0.121394
v -0.072964 0.133177 0.121394
v -0.072964 0.133177 0.121394
v -0.035984 0.128468 0.077018
v -0.015921 0.138445 0.066116
v -0.036398 0.154424 0.066937
v -0.019756 0.155613 0.045679
v -0.009055 0.130391 0.042624
v -0.019083 0.113614 0.061994
v -0.009637 0.129205 -0.042281
v -0.02064 0.138245 -0.064727
v -0.019126 0.156136 -0.043833
v -0.040241 0.156294 -0.062149
v -0.043802 0.129459 -0.071915
v -0.024887 0.112718 -0.059637
v -0.064051 0.128554 -0.075113
v -0.085435 0.138455 -0.084198
v -0.07127 0.155689 -0.069459
v -0.098306 0.156863 -0.068397
v -0.107795 0.130452 -0.073393
v -0.086624 0.112959 -0.077546
v -0.11431 0.130246 -0.06526
v -0.132878 0.138044 -0.058557
v -0.116347 0.152255 -0.058491
v -0.132268 0.153274 -0.042212
v -0.140068 0.131897 -0.038915
v -0.128971 0.117663 -0.053162
v -0.149111 0.128341 -0.005542
v -0.156091 0.137866 0.017722
v -0.144313 0.155232 0.001425
v -0.141021 0.156479 0.029421
v -0.143782 0.13036 0.039756
v -0.14878 0.112969 0.018146
v -0.134813 0.12845 0.053861
v -0.12383 0.137937 0.075913
v -0.126817 0.155232 0.055161
v -0.105923 0.156474 0.072375
v -0.101006 0.130462 0.081709
v -0.118859 0.113142 0.070267
v 6.88E-4 0.128671 0.021514
v 0.008786 0.138285 -0.002004
v -0.004785 0.155773 0.013774
v -0.006434 0.156586 -0.01493
v -0.001976 0.12999 -0.024928
v 0.002426 0.112738 -0.002403
vn -0.2732691 0.61868566 -0.7365814
vn -0.41991583 0.88567173 -0.19813167
vn -0.17771237 0.8996707 -0.39876172
vn -0.745796 0.5872797 -0.31446913
vn 0.1720657 0.90018624 -0.4000726
vn 0.3026546 0.6130609 -0.7297647
vn 0.7184235 0.6055022 -0.34239563
vn 0.3992163 0.8979849 -0.18506594
vn 0.44564256 0.88628006 0.1261362
vn 0.76652634 0.6108162 0.19834585
vn 0.290205 0.89255816 0.34513915
vn 0.4944133 0.6816189 0.5393988
vn -0.012940231 0.88423896 0.46685547
vn 0.018616572 0.7292813 0.6839606
vn -0.2837378 0.8849677 0.3692223
vn -0.4783651 0.68089354 0.5545727
vn -0.75364345 0.6175884 0.22495772
vn -0.44750637 0.8861927 0.1200024
vn -0.41991583 0.88567173 -0.19813167
vn -0.745796 0.5872797 -0.31446913
vn 0.88718665 -0.07153648 -0.45583144
vn 0.36809292 -0.10626809 -0.9236962
vn -0.31547308 -0.05127162 -0.9475484
vn -0.9051466 0.037325323 -0.42345777
vn 0.685643 0.14691913 0.7129576
vn 0.97027224 0.019166172 0.24125572
vn -0.9551411 0.13681933 0.2626516
vn -0.6424055 0.19755289 0.74046475
vn 0.044374615 0.18885152 0.98100245
vn -0.28578323 -0.6444772 -0.7092087
vn -0.79418284 -0.52786815 -0.301046
vn 0.252424 -0.7172309 -0.64950895
vn 0.6971545 -0.6555566 -0.2902089
vn 0.78203535 -0.5931493 0.19129714
vn 0.5857223 -0.5738504 0.5723855
vn 0.031068519 -0.5954291 0.8028069
vn -0.5528305 -0.5518539 0.62436825
vn -0.81772697 -0.49486613 0.29398984
vn -0.9051466 0.037325323 -0.42345777
vn -0.79418284 -0.52786815 -0.301046
vn 0.12549415 -0.9123656 -0.38966665
vn -0.19245592 -0.89025354 -0.41280663
vn 0.40041256 -0.8987919 -0.17844605
vn 0.4545543 -0.88359445 0.11243306
vn 0.34282172 -0.89830095 0.274825
vn -0.0069278493 -0.9468569 0.32158038
vn -0.28666818 -0.9117958 0.29402333
vn -0.44698787 -0.88170683 0.15097971
vn -0.44332305 -0.87312603 -0.20277008
vn -0.44332305 -0.87312603 -0.20277008
vn -0.70420456 0.68552667 -0.18479492
vn 0.44314393 0.84548324 0.2979624
vn 0.45446593 0.86626565 -0.2074716
vn -0.6696856 0.67533165 0.30894712
vn 0.008453762 0.0043336977 0.99995494
vn 0.44314393 0.84548324 0.2979624
vn 0.9429915 -0.15207866 0.29603913
vn 0.14670658 -0.93920296 0.310443
vn -0.84995735 -0.42168263 0.3158423
vn -0.6696856 0.67533165 0.30894712
vn 0.45446593 0.86626565 -0.2074716
vn 0.9670368 -0.15949424 -0.19849798
vn 0.44314393 0.84548324 0.2979624
vn 0.9670368 -0.15949424 -0.19849798
vn 0.14670658 -0.93920296 0.310443
vn 0.1438667 -0.9712375 -0.18973678
vn 0.1438667 -0.9712375 -0.18973678
vn -0.885361 -0.43291438 -0.16947293
vn 0.14670658 -0.93920296 0.310443
vn -0.885361 -0.43291438 -0.16947293
vn -0.6696856 0.67533165 0.30894712
vn -0.70420456 0.68552667 -0.18479492
vn 0.9218818 -0.11252286 0.37077308
vn 0.3710502 -0.92704564 0.053927105
vn 0.9900511 -0.13050118 0.05261554
vn 0.34190357 -0.8574294 0.38459957
vn 0.5864556 0.721106 0.36888474
vn 0.6236869 0.77991384 0.052431695
vn -0.34196734 0.85737514 0.38466367
vn -0.37102324 0.9270546 0.05395814
vn -0.92188495 0.11249273 0.37077433
vn -0.9900495 0.13050097 0.052645974
vn -0.5864954 -0.72111744 0.36879906
vn -0.6236869 -0.77991384 0.052431695
vn 0.34190357 -0.8574294 0.38459957
vn 0.3710502 -0.92704564 0.053927105
vn 0.3050419 -0.76350516 -0.5692183
vn 0.8204155 -0.10452805 -0.56213206
vn -0.51937187 -0.6445912 -0.56103027
vn 0.3050419 -0.76350516 -0.5692183
vn -0.8204295 0.10452983 -0.56211114
vn -0.30507135 0.76347196 -0.5692468
vn 0.51934206 0.6445616 -0.5610921
vn 0.0 -3.051851E-5 -1.0
vn 0.0 -3.051851E-5 -1.0
vn 0.0 -3.051851E-5 -1.0
vn 0.0 -3.051851E-5 -1.0
vn 0.0 -3.051851E-5 -1.0
vn -0.874549 -0.3124828 -0.3708349
vn -0.74713784 0.66247785 -0.05392723
vn -0.68979883 0.6133783 -0.38463566
vn -0.94356424 -0.32698345 -0.052615218
vn -0.20121431 -0.907433 -0.36888784
vn -0.20805097 -0.97671336 -0.052401863
vn 0.68984854 -0.61330724 -0.38465986
vn 0.7470819 -0.6625434 -0.05389708
vn 0.8745688 0.3124899 -0.3707823
vn 0.9435736 0.32695618 -0.05261574
vn 0.2011807 0.90748 -0.3687906
vn 0.20805062 0.97671175 -0.0524323
vn -0.68979883 0.6133783 -0.38463566
vn -0.74713784 0.66247785 -0.05392723
vn -0.61478025 0.5458982 0.56924546
vn -0.7802784 -0.27412134 0.56215936
vn 0.17548618 0.808976 0.5610369
vn -0.61478025 0.5458982 0.56924546
vn 0.78029174 0.27412605 0.5621385
vn 0.6148091 -0.5458357 0.5692744
vn -0.17545491 -0.8089421 0.5610956
vn 0.0 0.0 1.0
vn 0.0 0.0 1.0
vn 0.0 0.0 1.0
vn 0.0 0.0 1.0
vn 0.0 0.0 1.0
vn 0.44624618 0.07681587 0.8916073
vn 0.7514739 0.2314575 0.61783034
vn 0.45738998 0.55029017 0.6985521
vn 0.76723117 0.5546929 0.32198134
vn 0.9634601 0.11340928 0.24265803
vn 0.77635026 -0.19819242 0.5983311
vn 0.90314347 0.03723296 -0.4277213
vn 0.63782215 0.17301372 -0.75049925
vn 0.73307294 0.48946813 -0.47225526
vn 0.3623793 0.50539005 -0.78311044
vn 0.28220963 0.040163066 -0.9585117
vn 0.63300574 -0.25129786 -0.73222476
vn 0.39970967 0.022370556 -0.91636884
vn -0.018769313 0.18235224 -0.9830541
vn 0.23875375 0.5103464 -0.8261618
vn -0.25758594 0.5193531 -0.8148139
vn -0.45232052 0.06259425 -0.88965625
vn -0.049227335 -0.24998207 -0.9669982
vn -0.3468174 -0.019715248 -0.9377255
vn -0.6968157 0.13791654 -0.70386565
vn -0.4054194 0.47521722 -0.78089935
vn -0.7643257 0.48574537 -0.42409638
vn -0.94085115 0.019715514 -0.33824617
vn -0.69028586 -0.30586457 -0.6557075
vn -0.95879537 -0.009094762 -0.28395188
vn -0.9844536 0.13919747 0.10712194
vn -0.87948555 0.44937176 -0.15674907
vn -0.82470196 0.4694838 0.31535956
vn -0.8685818 0.028077837 0.4947498
vn -0.95251024 -0.27751282 0.12534314
vn -0.8937262 -0.007996048 0.44854167
vn -0.61734736 0.14188491 0.77379
vn -0.74570495 0.4551016 0.48662785
vn -0.35820532 0.49691564 0.79042
vn -0.2400905 0.01947092 0.97055525
vn -0.60055286 -0.29005256 0.74512136
vn 0.94073033 0.0333272 0.33751416
vn 0.98326206 0.17459936 -0.052065462
vn 0.8534024 0.4809792 0.20090647
vn 0.8253831 0.49620646 -0.2692986
vn 0.8957619 0.05642955 -0.44093788
vn 0.96869916 -0.24015291 -0.06283833
vt 2.537033 0.631287
vt 3.135701 0.505054
vt 2.537035 0.505054
vt 3.135699 0.631287
vt 1.960841 0.505054
vt 1.96084 0.631287
vt 1.356811 0.631287
vt 1.356811 0.505054
vt 0.766783 0.505054
vt 0.766782 0.631287
vt 0.177525 0.505054
vt 0.177525 0.631287
vt -0.421676 0.505054
vt -0.421676 0.631287
vt -1.007042 0.505054
vt -1.007042 0.631287
vt -1.606377 0.631286
vt -1.606377 0.505054
vt -2.203583 0.505054
vt -2.203583 0.631287
vt 1.356811 0.755018
vt 1.960841 0.755018
vt 2.537032 0.755018
vt 3.1357 0.755018
vt 0.177525 0.755018
vt 0.766782 0.755018
vt -1.606377 0.755018
vt -1.007042 0.755018
vt -0.421676 0.755018
vt 2.537035 0.871217
vt 3.1357 0.871217
vt 1.960841 0.871217
vt 1.356811 0.871217
vt 0.766782 0.871217
vt 0.177525 0.871217
vt -0.421676 0.871217
vt -1.007042 0.871217
vt -1.606377 0.871217
vt -2.203583 0.755018
vt -2.203583 0.871217
vt 1.96084 0.990459
vt 2.537035 0.990459
vt 1.356811 0.990459
vt 0.766782 0.990459
vt 0.177526 0.990459
vt -0.421676 0.990459
vt -1.007042 0.990459
vt -1.606377 0.990459
vt -2.203583 0.990459
vt 3.135701 0.990459
vt 0.53272 0.138582
vt 0.506516 0.106559
vt 0.512796 0.137944
vt 0.536585 0.105845
vt 0.52081 0.084434
vt 0.506516 0.106559
vt 0.496268 0.076382
vt 0.52117 0.057631
vt 0.545872 0.075323
vt 0.536585 0.105845
vt 0.475162 0.111606
vt 0.467233 0.092275
vt 0.506516 0.106559
vt 0.481619 0.048145
vt 0.52117 0.057631
vt 0.497268 0.034861
vt 0.543956 0.035255
vt 0.560962 0.046096
vt 0.52117 0.057631
vt 0.575422 0.089855
vt 0.536585 0.105845
vt 0.568177 0.109677
vt 0.492411 0.466206
vt 0.609428 0.315475
vt 0.489768 0.371717
vt 0.614278 0.420533
vt 0.337112 0.48412
vt 0.358571 0.407281
vt 0.189058 0.442757
vt 0.239443 0.363769
vt 0.083836 0.335099
vt 0.14747 0.280491
vt 0.031202 0.192672
vt 0.103116 0.143805
vt 0.005554 0.056606
vt 0.102459 0.012834
vt 0.553988 0.199029
vt 0.467228 0.256652
vt 0.220684 0.109318
vt 0.230981 0.007291
vt 0.23115 0.203335
vt 0.294638 0.267482
vt 0.375968 0.287677
vt 0.374217 0.132609
vt 0.374217 0.132609
vt 0.374217 0.132609
vt 0.374217 0.132609
vt 0.374217 0.132609
vt 0.023197 0.189367
vt 0.104948 0.011426
vt 0.009293 0.058532
vt 0.107868 0.145461
vt 0.079569 0.338253
vt 0.132582 0.280531
vt 0.185011 0.448553
vt 0.228043 0.366876
vt 0.331935 0.489785
vt 0.347055 0.407814
vt 0.481683 0.460918
vt 0.488787 0.373746
vt 0.61199 0.415465
vt 0.606313 0.308513
vt 0.235013 0.005396
vt 0.222185 0.112615
vt 0.46039 0.25402
vt 0.547455 0.193087
vt 0.373199 0.291943
vt 0.28883 0.271826
vt 0.235702 0.209223
vt 0.371841 0.132319
vt 0.371841 0.132319
vt 0.371841 0.132319
vt 0.371841 0.132319
vt 0.371841 0.132319
vt 0.663786 0.013037
vt 0.785127 0.17643
vt 0.915202 0.009503
vt 0.994965 0.239071
vt 0.795189 0.386388
vt 0.59056 0.245847
vt 0.913741 0.014446
vt 0.788071 0.178868
vt 0.990483 0.24719
vt 0.796236 0.386776
vt 0.596875 0.240731
vt 0.670308 0.011277
vt 0.904243 0.017709
vt 0.790889 0.177354
vt 0.98365 0.2508
vt 0.797588 0.388537
vt 0.6002 0.244173
vt 0.667917 0.015818
vt 0.909104 0.010831
vt 0.788171 0.175822
vt 0.985656 0.246589
vt 0.788765 0.390487
vt 0.590018 0.245279
vt 0.664741 0.010441
vt 0.992673 0.245113
vt 0.792753 0.179389
vt 0.792457 0.39349
vt 0.589445 0.248712
vt 0.663987 0.010698
vt 0.913218 0.008203
vt 0.912845 0.011211
vt 0.7817 0.182907
vt 0.992372 0.251648
vt 0.793835 0.39524
vt 0.588364 0.244231
vt 0.663555 0.007475
vt 0.911442 0.013266
vt 0.789209 0.179373
vt 0.989193 0.243545
vt 0.793825 0.388729
vt 0.59492 0.248192
vt 0.667467 0.01599

o dandelion_bracelet
s 1
usemtl dandelion_bracelet_0
f 1/1/1 2/2/2 3/3/3
f 1/1/1 4/4/4 2/2/2
f 1/1/1 3/3/3 5/5/5
f 1/1/1 5/5/5 6/6/6
f 7/7/7 6/6/6 5/5/5
f 7/7/7 5/5/5 8/8/8
f 9/9/9 7/7/7 8/8/8
f 9/9/9 10/10/10 7/7/7
f 11/11/11 10/10/10 9/9/9
f 11/11/11 12/12/12 10/10/10
f 13/13/13 12/12/12 11/11/11
f 13/13/13 14/14/14 12/12/12
f 15/15/15 14/14/14 13/13/13
f 15/15/15 16/16/16 14/14/14
f 17/17/17 16/16/16 15/15/15
f 17/17/17 15/15/15 18/18/18
f 19/19/19 17/17/17 18/18/18
f 19/19/19 20/20/20 17/17/17
f 21/21/21 6/6/6 7/7/7
f 10/10/10 21/21/21 7/7/7
f 21/21/21 22/22/22 6/6/6
f 6/6/6 22/22/22 23/23/23
f 6/6/6 23/23/23 1/1/1
f 23/23/23 4/4/4 1/1/1
f 23/23/23 24/24/24 4/4/4
f 14/14/14 25/25/25 12/12/12
f 12/12/12 25/25/25 26/26/26
f 10/10/10 26/26/26 21/21/21
f 12/12/12 26/26/26 10/10/10
f 27/27/27 16/16/16 17/17/17
f 20/20/20 27/27/27 17/17/17
f 27/27/27 28/28/28 16/16/16
f 16/16/16 28/28/28 29/29/29
f 14/14/14 29/29/29 25/25/25
f 16/16/16 29/29/29 14/14/14
f 30/30/30 24/24/24 23/23/23
f 30/30/30 31/31/31 24/24/24
f 22/22/22 30/30/30 23/23/23
f 22/22/22 32/32/32 30/30/30
f 33/33/33 32/32/32 22/22/22
f 33/33/33 22/22/22 21/21/21
f 26/26/26 33/33/33 21/21/21
f 26/26/26 34/34/34 33/33/33
f 25/25/25 34/34/34 26/26/26
f 25/25/25 35/35/35 34/34/34
f 29/29/29 35/35/35 25/25/25
f 29/29/29 36/36/36 35/35/35
f 28/28/28 36/36/36 29/29/29
f 28/28/28 37/37/37 36/36/36
f 38/38/38 37/37/37 28/28/28
f 38/38/38 28/28/28 27/27/27
f 39/39/39 38/38/38 27/27/27
f 20/20/20 39/39/39 27/27/27
f 39/39/39 40/40/40 38/38/38
f 41/41/41 32/32/32 33/33/33
f 32/32/32 41/41/41 42/42/42
f 41/41/41 33/33/33 43/43/43
f 34/34/34 43/43/43 33/33/33
f 34/34/34 44/44/44 43/43/43
f 35/35/35 44/44/44 34/34/34
f 35/35/35 45/45/45 44/44/44
f 36/36/36 45/45/45 35/35/35
f 36/36/36 46/46/46 45/45/45
f 37/37/37 46/46/46 36/36/36
f 37/37/37 47/47/47 46/46/46
f 47/47/47 37/37/37 38/38/38
f 47/47/47 38/38/38 48/48/48
f 40/40/40 48/48/48 38/38/38
f 40/40/40 49/49/49 48/48/48
f 50/50/50 30/30/30 42/42/42
f 50/50/50 31/31/31 30/30/30
f 32/32/32 42/42/42 30/30/30
f 51/51/51 52/52/52 53/53/53
f 51/51/51 54/54/54 52/52/52
f 54/54/54 55/55/55 52/52/52
f 56/56/56 55/55/55 57/57/57
f 57/57/57 55/55/55 58/58/58
f 58/58/58 55/55/55 59/59/59
f 59/59/59 55/55/55 60/60/60
f 61/61/61 57/57/57 62/62/62
f 61/61/61 63/63/63 57/57/57
f 64/64/64 57/57/57 65/65/65
f 64/64/64 65/65/65 66/66/66
f 67/67/67 59/59/59 68/68/68
f 67/67/67 69/69/69 59/59/59
f 70/70/70 59/59/59 71/71/71
f 70/70/70 71/71/71 72/72/72
f 73/73/73 74/74/74 75/75/75
f 73/73/73 76/76/76 74/74/74
f 77/77/77 73/73/73 75/75/75
f 77/77/77 75/75/75 78/78/78
f 79/79/79 77/77/77 78/78/78
f 79/79/79 78/78/78 80/80/80
f 81/81/81 79/79/79 80/80/80
f 81/81/81 80/80/80 82/82/82
f 83/83/83 81/81/81 82/82/82
f 83/83/83 82/82/82 84/84/84
f 85/85/85 83/83/83 84/84/84
f 85/85/85 84/84/84 86/86/86
f 75/75/75 74/74/74 87/87/87
f 75/75/75 87/87/87 88/88/88
f 78/78/78 75/75/75 88/88/88
f 86/86/86 84/84/84 89/89/89
f 86/86/86 89/89/89 90/90/90
f 84/84/84 91/91/91 89/89/89
f 84/84/84 82/82/82 91/91/91
f 82/82/82 92/92/92 91/91/91
f 82/82/82 80/80/80 92/92/92
f 80/80/80 93/93/93 92/92/92
f 80/80/80 78/78/78 93/93/93
f 78/78/78 88/88/88 93/93/93
f 88/88/88 87/87/87 94/94/94
f 90/90/90 89/89/89 95/95/95
f 89/89/89 91/91/91 95/95/95
f 91/91/91 92/92/92 96/96/96
f 92/92/92 93/93/93 97/97/97
f 93/93/93 88/88/88 98/98/98
f 99/99/99 100/100/100 101/101/101
f 99/99/99 102/102/102 100/100/100
f 103/103/103 102/102/102 99/99/99
f 103/103/103 104/104/104 102/102/102
f 105/105/105 104/104/104 103/103/103
f 105/105/105 106/106/106 104/104/104
f 107/107/107 106/106/106 105/105/105
f 107/107/107 108/108/108 106/106/106
f 109/109/109 108/108/108 107/107/107
f 109/109/109 110/110/110 108/108/108
f 111/111/111 110/110/110 109/109/109
f 111/111/111 112/112/112 110/110/110
f 102/102/102 113/113/113 100/100/100
f 102/102/102 114/114/114 113/113/113
f 104/104/104 114/114/114 102/102/102
f 112/112/112 115/115/115 110/110/110
f 112/112/112 116/116/116 115/115/115
f 110/110/110 117/117/117 108/108/108
f 110/110/110 115/115/115 117/117/117
f 108/108/108 118/118/118 106/106/106
f 108/108/108 117/117/117 118/118/118
f 106/106/106 119/119/119 104/104/104
f 106/106/106 118/118/118 119/119/119
f 104/104/104 119/119/119 114/114/114
f 114/114/114 120/120/120 113/113/113
f 119/119/119 120/120/120 114/114/114
f 116/116/116 121/121/121 115/115/115
f 115/115/115 122/122/122 117/117/117
f 117/117/117 123/123/123 118/118/118
f 118/118/118 124/124/124 119/119/119
f 125/125/125 126/126/126 127/127/127
f 127/127/127 126/126/126 128/128/128
f 128/128/128 126/126/126 129/129/129
f 129/129/129 126/126/126 130/130/130
f 130/130/130 126/126/126 125/125/125
f 131/131/131 132/132/132 133/133/133
f 133/133/133 132/132/132 134/134/134
f 134/134/134 132/132/132 135/135/135
f 135/135/135 132/132/132 136/136/136
f 136/136/136 132/132/132 131/131/131
f 137/137/137 138/138/138 139/139/139
f 139/139/139 138/138/138 140/140/140
f 140/140/140 138/138/138 141/141/141
f 141/141/141 138/138/138 142/142/142
f 142/142/142 138/138/138 137/137/137
f 143/143/143 144/144/144 145/145/145
f 145/145/145 144/144/144 146/146/146
f 146/146/146 144/144/144 147/147/147
f 147/147/147 144/144/144 148/148/148
f 148/148/148 144/144/144 143/143/143
f 149/149/149 150/150/150 151/151/151
f 151/151/151 150/150/150 152/152/152
f 152/152/152 150/150/150 153/153/153
f 153/153/153 150/150/150 154/154/154
f 154/154/154 150/150/150 149/149/149
f 155/155/155 156/156/156 157/157/157
f 157/157/157 156/156/156 158/158/158
f 158/158/158 156/156/156 159/159/159
f 159/159/159 156/156/156 160/160/160
f 160/160/160 156/156/156 155/155/155
f 161/161/161 162/162/162 163/163/163
f 163/163/163 162/162/162 164/164/164
f 164/164/164 162/162/162 165/165/165
f 165/165/165 162/162/162 166/166/166
f 166/166/166 162/162/162 161/161/161

