# Created by DisUnity v0.2.1
v 25.0 0.0 -25.000004
v 0.687893 0.0 -0.707107
v 25.0 0.0 24.999996
v 0.807341 0.0 -0.555571
v 1.245703 0.0 -0.041532
v 1.250932 0.0 0.067191
v 1.331318 0.0 0.152829
v 1.322565 0.0 0.341577
v 1.243781 0.0 0.572626
v 1.089735 0.0 0.785562
v 0.917302 0.0 0.972201
v -24.999989 0.0 25.000004
v 1.157533 0.0 -0.135008
v 0.890815 0.0 -0.382685
v 0.939131 0.0 -0.190261
v 0.533549 0.0 -0.798513
v -25.0 0.0 -25.0
v -1.245703 0.0 -0.093067
v -1.331318 0.0 0.101294
v -1.260595 0.0 0.051086
v -1.322565 0.0 0.341577
v -1.243781 0.0 0.572626
v -1.157533 0.0 -0.194274
v -0.679078 0.0 -0.67908
v -0.798512 0.0 -0.53355
v -0.887259 0.0 -0.367517
v -0.933661 0.0 -0.213653
v -0.533549 0.0 -0.798513
v -0.367515 0.0 -0.88726
v -0.187357 0.0 -0.94191
v 0.0 0.0 -0.960363
v 0.187357 0.0 -0.94191
v 0.367515 0.0 -0.88726
v -1.089735 0.0 0.785562
v -0.917302 0.0 0.972201
v -0.742885 0.0 1.114241
v -0.471335 0.0 1.239191
v -1.0E-6 0.0 1.332945
v 0.240286 0.0 1.309279
v 0.471334 0.0 1.239191
v 0.742884 0.0 1.114241
v -0.471335 0.0 1.239191
v -1.0E-6 0.0 1.332945
v -0.240286 0.0 1.309279
vn 0.0 1.0 0.0
vn 0.0 1.0 0.0
vn 0.0 1.0 0.0
vn 0.0 1.0 0.0
vn 0.0 1.0 0.0
vn 0.0 1.0 0.0
vn 0.0 1.0 0.0
vn 0.0 1.0 0.0
vn 0.0 1.0 0.0
vn 0.0 1.0 0.0
vn 0.0 1.0 0.0
vn 0.0 1.0 0.0
vn 0.0 1.0 0.0
vn 0.0 1.0 0.0
vn 0.0 1.0 0.0
vn 0.0 1.0 0.0
vn 0.0 1.0 0.0
vn 0.0 1.0 0.0
vn 0.0 1.0 0.0
vn 0.0 1.0 0.0
vn 0.0 1.0 0.0
vn 0.0 1.0 0.0
vn 0.0 1.0 0.0
vn 0.0 1.0 0.0
vn 0.0 1.0 0.0
vn 0.0 1.0 0.0
vn 0.0 1.0 0.0
vn 0.0 1.0 0.0
vn 0.0 1.0 0.0
vn 0.0 1.0 0.0
vn 0.0 1.0 0.0
vn 0.0 1.0 0.0
vn 0.0 1.0 0.0
vn 0.0 1.0 0.0
vn 0.0 1.0 0.0
vn 0.0 1.0 0.0
vn 0.0 1.0 0.0
vn 0.0 1.0 0.0
vn 0.0 1.0 0.0
vn 0.0 1.0 0.0
vn 0.0 1.0 0.0
vn 0.0 -1.0 0.0
vn 0.0 -1.0 0.0
vn 0.0 -1.0 0.0
vt 0.0 0.0
vt 0.0 0.0
vt 0.0 0.0
vt 0.0 0.0
vt 0.0 0.0
vt 0.0 0.0
vt 0.0 0.0
vt 0.0 0.0
vt 0.0 0.0
vt 0.0 0.0
vt 0.0 0.0
vt 0.0 0.0
vt 0.0 0.0
vt 0.0 0.0
vt 0.0 0.0
vt 0.0 0.0
vt 0.0 0.0
vt 0.0 0.0
vt 0.0 0.0
vt 0.0 0.0
vt 0.0 0.0
vt 0.0 0.0
vt 0.0 0.0
vt 0.0 0.0
vt 0.0 0.0
vt 0.0 0.0
vt 0.0 0.0
vt 0.0 0.0
vt 0.0 0.0
vt 0.0 0.0
vt 0.0 0.0
vt 0.0 0.0
vt 0.0 0.0
vt 0.0 0.0
vt 0.0 0.0
vt 0.0 0.0
vt 0.0 0.0
vt 0.0 0.0
vt 0.0 0.0
vt 0.0 0.0
vt 0.0 0.0
vt 0.0 0.0
vt 0.0 0.0
vt 0.0 0.0

o default
s 1
usemtl default_0
f 1/1/1 2/2/2 3/3/3
f 2/2/2 4/4/4 3/3/3
f 4/4/4 5/5/5 3/3/3
f 3/3/3 5/5/5 6/6/6
f 3/3/3 6/6/6 7/7/7
f 3/3/3 7/7/7 8/8/8
f 3/3/3 8/8/8 9/9/9
f 3/3/3 9/9/9 10/10/10
f 3/3/3 10/10/10 11/11/11
f 3/3/3 11/11/11 12/12/12
f 4/4/4 13/13/13 5/5/5
f 14/14/14 13/13/13 4/4/4
f 15/15/15 13/13/13 14/14/14
f 2/2/2 1/1/1 16/16/16
f 16/16/16 1/1/1 17/17/17
f 18/18/18 17/17/17 12/12/12
f 18/18/18 12/12/12 19/19/19
f 20/20/20 18/18/18 19/19/19
f 19/19/19 12/12/12 21/21/21
f 21/21/21 12/12/12 22/22/22
f 23/23/23 17/17/17 18/18/18
f 24/24/24 17/17/17 23/23/23
f 24/24/24 23/23/23 25/25/25
f 25/25/25 23/23/23 26/26/26
f 23/23/23 27/27/27 26/26/26
f 28/28/28 17/17/17 24/24/24
f 29/29/29 17/17/17 28/28/28
f 30/30/30 17/17/17 29/29/29
f 31/31/31 17/17/17 30/30/30
f 32/32/32 17/17/17 31/31/31
f 33/33/33 17/17/17 32/32/32
f 16/16/16 17/17/17 33/33/33
f 12/12/12 34/34/34 22/22/22
f 12/12/12 35/35/35 34/34/34
f 12/12/12 36/36/36 35/35/35
f 12/12/12 37/37/37 36/36/36
f 12/12/12 38/38/38 37/37/37
f 39/39/39 38/38/38 12/12/12
f 40/40/40 39/39/39 12/12/12
f 41/41/41 40/40/40 12/12/12
f 11/11/11 41/41/41 12/12/12
f 42/42/42 43/43/43 44/44/44

