# Created by DisUnity v0.2.1
v -0.886771 0.0 0.367312
v -24.999989 0.0 -25.000004
v -0.798073 0.0 0.533255
v -0.941391 0.0 0.187254
v -0.959834 0.0 0.0
v -0.941391 0.0 -0.187254
v -0.886771 0.0 -0.367313
v -0.798073 0.0 -0.533255
v -0.678705 0.0 -0.678705
v -0.533255 0.0 -0.798073
v -0.367313 0.0 -0.886771
v -0.187254 0.0 -0.941391
v 0.0 0.0 -0.959834
v 0.187253 0.0 -0.941392
v 0.367311 0.0 -0.886772
v 0.533254 0.0 -0.798074
v 0.678704 0.0 -0.678706
v 24.999989 0.0 -25.000004
v 0.798072 0.0 -0.533256
v 0.886771 0.0 -0.367314
v 0.941391 0.0 -0.187255
v 0.959834 0.0 -1.0E-6
v 0.941391 0.0 0.187254
v 0.886772 0.0 0.367312
v 0.798073 0.0 0.533255
v 0.678706 0.0 0.678705
v 24.999989 0.0 25.000004
v 0.533256 0.0 0.798073
v 0.367313 0.0 0.886771
v 0.187255 0.0 0.941391
v 0.0 0.0 0.959834
v -24.999989 0.0 25.000004
v -0.187254 0.0 0.941391
v -0.367313 0.0 0.886771
v -0.533255 0.0 0.798073
v -0.678705 0.0 0.678705
vn 0.0 1.0 0.0
vn 0.0 1.0 0.0
vn 0.0 1.0 0.0
vn 0.0 1.0 0.0
vn 0.0 1.0 0.0
vn 0.0 1.0 0.0
vn 0.0 1.0 0.0
vn 0.0 1.0 0.0
vn 0.0 1.0 0.0
vn 0.0 1.0 0.0
vn 0.0 1.0 0.0
vn 0.0 1.0 0.0
vn 0.0 1.0 0.0
vn 0.0 1.0 0.0
vn 0.0 1.0 0.0
vn 0.0 1.0 0.0
vn 0.0 1.0 0.0
vn 0.0 1.0 0.0
vn 0.0 1.0 0.0
vn 0.0 1.0 0.0
vn 0.0 1.0 0.0
vn 0.0 1.0 0.0
vn 0.0 1.0 0.0
vn 0.0 1.0 0.0
vn 0.0 1.0 0.0
vn 0.0 1.0 0.0
vn 0.0 1.0 0.0
vn 0.0 1.0 0.0
vn 0.0 1.0 0.0
vn 0.0 1.0 0.0
vn 0.0 1.0 0.0
vn 0.0 1.0 0.0
vn 0.0 1.0 0.0
vn 0.0 1.0 0.0
vn 0.0 1.0 0.0
vn 0.0 1.0 0.0
vt 0.0 0.0
vt 0.0 0.0
vt 0.0 0.0
vt 0.0 0.0
vt 0.0 0.0
vt 0.0 0.0
vt 0.0 0.0
vt 0.0 0.0
vt 0.0 0.0
vt 0.0 0.0
vt 0.0 0.0
vt 0.0 0.0
vt 0.0 0.0
vt 0.0 0.0
vt 0.0 0.0
vt 0.0 0.0
vt 0.0 0.0
vt 0.0 0.0
vt 0.0 0.0
vt 0.0 0.0
vt 0.0 0.0
vt 0.0 0.0
vt 0.0 0.0
vt 0.0 0.0
vt 0.0 0.0
vt 0.0 0.0
vt 0.0 0.0
vt 0.0 0.0
vt 0.0 0.0
vt 0.0 0.0
vt 0.0 0.0
vt 0.0 0.0
vt 0.0 0.0
vt 0.0 0.0
vt 0.0 0.0
vt 0.0 0.0

o default
s 1
usemtl default_0
f 1/1/1 2/2/2 3/3/3
f 2/2/2 1/1/1 4/4/4
f 2/2/2 4/4/4 5/5/5
f 2/2/2 5/5/5 6/6/6
f 2/2/2 6/6/6 7/7/7
f 2/2/2 7/7/7 8/8/8
f 2/2/2 8/8/8 9/9/9
f 2/2/2 9/9/9 10/10/10
f 2/2/2 10/10/10 11/11/11
f 2/2/2 11/11/11 12/12/12
f 2/2/2 12/12/12 13/13/13
f 2/2/2 13/13/13 14/14/14
f 2/2/2 14/14/14 15/15/15
f 2/2/2 15/15/15 16/16/16
f 2/2/2 16/16/16 17/17/17
f 2/2/2 17/17/17 18/18/18
f 18/18/18 17/17/17 19/19/19
f 18/18/18 19/19/19 20/20/20
f 18/18/18 20/20/20 21/21/21
f 18/18/18 21/21/21 22/22/22
f 18/18/18 22/22/22 23/23/23
f 18/18/18 23/23/23 24/24/24
f 18/18/18 24/24/24 25/25/25
f 18/18/18 25/25/25 26/26/26
f 18/18/18 26/26/26 27/27/27
f 27/27/27 26/26/26 28/28/28
f 27/27/27 28/28/28 29/29/29
f 27/27/27 29/29/29 30/30/30
f 27/27/27 30/30/30 31/31/31
f 31/31/31 32/32/32 27/27/27
f 31/31/31 33/33/33 32/32/32
f 34/34/34 32/32/32 33/33/33
f 35/35/35 32/32/32 34/34/34
f 36/36/36 32/32/32 35/35/35
f 36/36/36 2/2/2 32/32/32
f 36/36/36 3/3/3 2/2/2

