# Created by DisUnity v0.2.1
v -0.26796 -1.016694 5.303572
v -0.358718 -1.379166 5.596461
v -0.178776 -1.250165 5.575235
v -0.592204 -1.249145 5.341818
v -0.667377 -1.493214 5.375524
v 0.0 -1.016694 5.303572
v 0.0 -1.250165 5.575235
v 0.0 -0.86981 4.927871
v -0.317453 -0.86981 4.927871
v 0.0 -0.805576 4.545361
v -0.317453 -0.812418 4.543689
v -0.419514 -0.613825 4.424099
v 0.0 -0.614102 4.425233
v -0.971592 -0.929982 4.44581
v -0.774338 -1.220569 4.618684
v -1.005806 -1.610273 4.588753
v -0.812738 -1.657888 4.661033
v -0.842323 -1.708788 5.040608
v -0.794516 -1.532022 5.049524
v -0.721778 -2.190957 5.068651
v -0.71651 -2.176487 4.757699
v -0.592203 -2.027367 5.459233
v -0.716054 -1.651252 5.397348
v -0.358718 -1.822614 5.658792
v -0.427449 -1.613886 5.624449
v -0.267959 -2.259819 5.497479
v -0.317453 -2.484717 5.068651
v -0.178776 -1.951615 5.680017
v -0.317453 -2.48166 4.745696
v 0.0 -2.484717 5.068651
v 0.0 -2.48166 4.745696
v 0.0 -2.259819 5.497479
v 0.0 -1.951615 5.680017
v -0.419514 -2.700215 4.791894
v -0.955866 -2.266986 4.7689
v -0.467464 -2.810222 4.865063
v -1.029903 -2.321833 4.854739
v -1.160975 -1.574557 4.645582
v -1.035547 -0.801624 4.483338
v -0.467464 -0.438565 4.44301
v 0.0 -0.439895 4.448448
v -0.482938 -2.888405 4.774262
v -1.07515 -2.382048 4.767344
v -1.21105 -1.606464 4.552581
v -1.078178 -0.803196 4.382316
v -0.482938 -0.425484 4.337953
v 0.0 -0.426358 4.341526
v -0.462748 -2.840056 4.649162
v -1.015935 -2.357124 4.637726
v -1.145715 -1.618478 4.430291
v -1.022282 -0.854771 4.270417
v -0.462749 -0.496191 4.23137
v 0.0 -0.49768 4.23746
v -0.774821 -1.056075 4.175622
v -0.367812 -0.74966 4.229951
v -0.367812 -2.52945 4.543301
v 0.0 -2.52945 4.543301
v 0.0 -2.840056 4.649162
v 0.0 -1.659979 4.580986
v -0.718902 -2.164082 4.540938
v -0.894895 -1.601253 4.376663
v 0.0 -2.888405 4.774262
v 0.0 -2.810222 4.865063
v 0.0 -2.700215 4.791894
v 0.0 -0.749795 4.230504
v 0.367812 -2.52945 4.543301
v 0.718902 -2.164082 4.540938
v 0.462748 -2.840056 4.649162
v 1.015935 -2.357124 4.637726
v 0.482938 -2.888405 4.774262
v 1.07515 -2.382048 4.767344
v 0.467464 -2.810222 4.865063
v 1.029903 -2.321833 4.854739
v 0.419514 -2.700215 4.791894
v 0.955866 -2.266986 4.7689
v 0.317453 -2.48166 4.745696
v 0.71651 -2.176487 4.757699
v 0.721778 -2.190957 5.068651
v 0.842323 -1.708788 5.040608
v 0.812738 -1.657888 4.661033
v 0.794516 -1.532022 5.049524
v 0.774338 -1.220569 4.618684
v 0.716054 -1.651252 5.397348
v 0.592203 -2.027367 5.459233
v 0.427449 -1.613886 5.624449
v 0.358718 -1.822614 5.658792
v 0.317453 -2.484717 5.068651
v 0.267959 -2.259819 5.497479
v 0.178776 -1.951615 5.680017
v 0.971592 -0.929982 4.44581
v 1.005806 -1.610273 4.588753
v 1.160975 -1.574557 4.645582
v 1.035547 -0.801624 4.483338
v 0.467464 -0.438565 4.44301
v 0.419514 -0.613825 4.424099
v 0.317453 -0.812418 4.543689
v 1.21105 -1.606464 4.552581
v 1.078178 -0.803196 4.382316
v 0.482938 -0.425484 4.337953
v 1.145715 -1.618478 4.430291
v 1.022282 -0.854771 4.270417
v 0.462749 -0.496191 4.23137
v 0.367812 -0.74966 4.229951
v 0.774821 -1.056075 4.175622
v 0.894895 -1.601253 4.376663
v 0.0 -1.60055 5.7055
v -0.755609 -1.482679 5.035218
v -0.660104 -1.450226 5.307835
v -0.740451 -1.222225 4.674925
v -0.603634 -1.246122 5.27965
v -0.471021 -0.990966 4.986127
v -0.512603 -1.030218 4.982201
v -0.397245 -0.880907 4.61221
v -0.529004 -1.302397 4.843011
v 0.178776 -1.250165 5.575235
v 0.592204 -1.249145 5.341818
v 0.26796 -1.016694 5.303572
v 0.358718 -1.379166 5.596461
v 0.667377 -1.493214 5.375524
v 0.317453 -0.86981 4.927871
v 0.471021 -0.990966 4.986127
v 0.397245 -0.880907 4.61221
v 0.512603 -1.030218 4.982201
v 0.603634 -1.246122 5.27965
v 0.660104 -1.450226 5.307835
v 0.755609 -1.482679 5.035218
v 0.740451 -1.222225 4.674925
v 0.529004 -1.302397 4.843011
vn -0.23631363 0.8205207 0.52048206
vn -0.3729215 0.3855567 0.84396416
vn -0.14075255 0.5673744 0.81134146
vn -0.70854145 0.52664506 0.46969557
vn -0.7939216 0.33848637 0.5050897
vn 0.0 0.85703754 0.5152541
vn 0.0 0.571558 0.8205617
vn 0.0 0.96509194 0.26191124
vn -0.2992086 0.921034 0.2493405
vn 0.0 0.83014387 0.55754924
vn -0.21458127 0.7411309 0.6361445
vn -0.015015318 0.12592115 0.99192655
vn 0.0 0.2127502 0.97710663
vn 0.13776185 0.14938952 0.97913456
vn -0.5959166 0.43764442 0.6733132
vn 0.109441474 0.22330819 0.9685845
vn -0.77605575 0.12622961 0.6179025
vn -0.9886298 -0.028626744 0.14762
vn -0.9085013 0.3641269 0.2050293
vn -0.81260943 -0.5494712 0.19428647
vn -0.59613293 -0.2269108 0.7701538
vn -0.6679606 -0.3878786 0.63512105
vn -0.82817346 0.06592183 0.5565816
vn -0.3712621 -0.12036645 0.9206934
vn -0.45699537 0.12113092 0.8811825
vn -0.25029227 -0.69066143 0.678484
vn -0.3038512 -0.9253179 0.22685075
vn -0.14548714 -0.29082173 0.94565123
vn -0.18394163 -0.5084565 0.8412118
vn 0.0 -0.972099 0.2345709
vn 0.0 -0.6334206 0.7738077
vn 0.0 -0.7251365 0.68860507
vn 0.0 -0.29893523 0.9542734
vn 0.13102083 0.38628715 0.9130256
vn 0.2667674 0.30961624 0.91267353
vn -0.10553405 -0.24164794 0.9646081
vn -0.3271931 0.013214682 0.9448651
vn -0.3708952 0.2210478 0.9019837
vn -0.44500488 0.4300503 0.78551096
vn -0.15689991 0.65259504 0.74128425
vn 0.0 0.6117853 0.79102385
vn -0.33653936 -0.9302671 0.1460972
vn -0.8564657 -0.5006096 0.12592302
vn -0.9996407 -0.01904368 -0.01886057
vn -0.8421174 0.5225505 -0.13333857
vn -0.28532493 0.9343178 -0.2136351
vn 0.0 0.97312784 -0.23026563
vn -0.2425994 -0.67310727 -0.6986216
vn -0.5679631 -0.43602845 -0.69806665
vn -0.6347134 -0.18922073 -0.7492225
vn -0.5569736 0.24454954 -0.7937102
vn -0.168251 0.5261772 -0.83356416
vn 0.0 0.4786597 -0.87800056
vn -0.03878988 -0.13993044 -0.9894013
vn 0.043734446 -0.07303317 -0.9963702
vn -0.059938937 -0.16016269 -0.9852691
vn 0.0 -0.14209642 -0.98985285
vn 0.0 -0.6926951 -0.72123057
vn 0.0 -0.19400871 -0.9809998
vn -0.04922689 -0.19440503 -0.97968537
vn -0.063784935 -0.27802908 -0.9584526
vn 0.0 -0.98541355 0.17017673
vn 0.0 -0.13605285 0.99070156
vn 0.0 0.3872273 0.9219843
vn 0.0 -0.17392811 -0.9847584
vn 0.059938937 -0.16016269 -0.9852691
vn 0.04922689 -0.19440503 -0.97968537
vn 0.2425994 -0.67310727 -0.6986216
vn 0.5679631 -0.43602845 -0.69806665
vn 0.33653936 -0.9302671 0.1460972
vn 0.8564657 -0.5006096 0.12592302
vn 0.10553405 -0.24164794 0.9646081
vn 0.3271931 0.013214682 0.9448651
vn -0.13102083 0.38628715 0.9130256
vn -0.2667674 0.30961624 0.91267353
vn 0.18394163 -0.5084565 0.8412118
vn 0.59613293 -0.2269108 0.7701538
vn 0.81260943 -0.5494712 0.19428647
vn 0.9886298 -0.028626744 0.14762
vn 0.77605575 0.12622961 0.6179025
vn 0.9085013 0.3641269 0.2050293
vn 0.5959166 0.43764442 0.6733132
vn 0.82817346 0.06592183 0.5565816
vn 0.6679606 -0.3878786 0.63512105
vn 0.45699537 0.12113092 0.8811825
vn 0.3712621 -0.12036645 0.9206934
vn 0.3038512 -0.9253179 0.22685075
vn 0.25029227 -0.69066143 0.678484
vn 0.14548714 -0.29082173 0.94565123
vn -0.13776185 0.14938952 0.97913456
vn -0.109441474 0.22330819 0.9685845
vn 0.3708952 0.2210478 0.9019837
vn 0.44500488 0.4300503 0.78551096
vn 0.15689991 0.65259504 0.74128425
vn 0.015015318 0.12592115 0.99192655
vn 0.21458127 0.7411309 0.6361445
vn 0.9996407 -0.01904368 -0.01886057
vn 0.8421174 0.5225505 -0.13333857
vn 0.28532493 0.9343178 -0.2136351
vn 0.6347134 -0.18922073 -0.7492225
vn 0.5569736 0.24454954 -0.7937102
vn 0.168251 0.5261772 -0.83356416
vn -0.043734446 -0.07303317 -0.9963702
vn 0.03878988 -0.13993044 -0.9894013
vn 0.063784935 -0.27802908 -0.9584526
vn 0.0 0.14026338 0.9901142
vn -0.62948143 0.713866 0.30683634
vn -0.87619793 0.46892306 0.11130247
vn -0.5547261 0.69301087 0.4604507
vn -0.90687233 0.4182935 0.05111934
vn -0.5965943 0.76655716 0.2376245
vn -0.880006 0.47496215 6.4089213E-4
vn -0.6867507 0.70854163 0.1623029
vn -0.73097396 0.6118561 0.30217415
vn 0.14075255 0.5673744 0.81134146
vn 0.70854145 0.52664506 0.46969557
vn 0.23631363 0.8205207 0.52048206
vn 0.3729215 0.3855567 0.84396416
vn 0.7939216 0.33848637 0.5050897
vn 0.2992086 0.921034 0.2493405
vn 0.5965943 0.76655716 0.2376245
vn 0.6867507 0.70854163 0.1623029
vn 0.880006 0.47496215 6.4089213E-4
vn 0.90687233 0.4182935 0.05111934
vn 0.87619793 0.46892306 0.11130247
vn 0.62948143 0.713866 0.30683634
vn 0.5547261 0.69301087 0.4604507
vn 0.73097396 0.6118561 0.30217415
vt 0.0 0.0
vt 0.0 0.0
vt 0.0 0.0
vt 0.0 0.0
vt 0.0 0.0
vt 0.0 0.0
vt 0.0 0.0
vt 0.0 0.0
vt 0.0 0.0
vt 0.0 0.0
vt 0.0 0.0
vt 0.0 0.0
vt 0.0 0.0
vt 0.0 0.0
vt 0.0 0.0
vt 0.0 0.0
vt 0.0 0.0
vt 0.0 0.0
vt 0.0 0.0
vt 0.0 0.0
vt 0.0 0.0
vt 0.0 0.0
vt 0.0 0.0
vt 0.0 0.0
vt 0.0 0.0
vt 0.0 0.0
vt 0.0 0.0
vt 0.0 0.0
vt 0.0 0.0
vt 0.0 0.0
vt 0.0 0.0
vt 0.0 0.0
vt 0.0 0.0
vt 0.0 0.0
vt 0.0 0.0
vt 0.0 0.0
vt 0.0 0.0
vt 0.0 0.0
vt 0.0 0.0
vt 0.0 0.0
vt 0.0 0.0
vt 0.0 0.0
vt 0.0 0.0
vt 0.0 0.0
vt 0.0 0.0
vt 0.0 0.0
vt 0.0 0.0
vt 0.0 0.0
vt 0.0 0.0
vt 0.0 0.0
vt 0.0 0.0
vt 0.0 0.0
vt 0.0 0.0
vt 0.0 0.0
vt 0.0 0.0
vt 0.0 0.0
vt 0.0 0.0
vt 0.0 0.0
vt 0.0 0.0
vt 0.0 0.0
vt 0.0 0.0
vt 0.0 0.0
vt 0.0 0.0
vt 0.0 0.0
vt 0.0 0.0
vt 0.0 0.0
vt 0.0 0.0
vt 0.0 0.0
vt 0.0 0.0
vt 0.0 0.0
vt 0.0 0.0
vt 0.0 0.0
vt 0.0 0.0
vt 0.0 0.0
vt 0.0 0.0
vt 0.0 0.0
vt 0.0 0.0
vt 0.0 0.0
vt 0.0 0.0
vt 0.0 0.0
vt 0.0 0.0
vt 0.0 0.0
vt 0.0 0.0
vt 0.0 0.0
vt 0.0 0.0
vt 0.0 0.0
vt 0.0 0.0
vt 0.0 0.0
vt 0.0 0.0
vt 0.0 0.0
vt 0.0 0.0
vt 0.0 0.0
vt 0.0 0.0
vt 0.0 0.0
vt 0.0 0.0
vt 0.0 0.0
vt 0.0 0.0
vt 0.0 0.0
vt 0.0 0.0
vt 0.0 0.0
vt 0.0 0.0
vt 0.0 0.0
vt 0.0 0.0
vt 0.0 0.0
vt 0.0 0.0
vt 0.0 0.0
vt 0.0 0.0
vt 0.0 0.0
vt 0.0 0.0
vt 0.0 0.0
vt 0.0 0.0
vt 0.0 0.0
vt 0.0 0.0
vt 0.0 0.0
vt 0.0 0.0
vt 0.0 0.0
vt 0.0 0.0
vt 0.0 0.0
vt 0.0 0.0
vt 0.0 0.0
vt 0.0 0.0
vt 0.0 0.0
vt 0.0 0.0
vt 0.0 0.0
vt 0.0 0.0
vt 0.0 0.0
vt 0.0 0.0
vt 0.0 0.0

o fire
s 1
usemtl fire_0
f 1/1/1 2/2/2 3/3/3
f 1/1/1 4/4/4 2/2/2
f 2/2/2 4/4/4 5/5/5
f 3/3/3 6/6/6 1/1/1
f 3/3/3 7/7/7 6/6/6
f 1/1/1 6/6/6 8/8/8
f 1/1/1 8/8/8 9/9/9
f 9/9/9 8/8/8 10/10/10
f 9/9/9 10/10/10 11/11/11
f 10/10/10 12/12/12 11/11/11
f 10/10/10 13/13/13 12/12/12
f 14/14/14 11/11/11 12/12/12
f 14/14/14 15/15/15 11/11/11
f 15/15/15 14/14/14 16/16/16
f 15/15/15 16/16/16 17/17/17
f 18/18/18 15/15/15 17/17/17
f 18/18/18 19/19/19 15/15/15
f 20/20/20 18/18/18 17/17/17
f 20/20/20 17/17/17 21/21/21
f 22/22/22 18/18/18 20/20/20
f 22/22/22 23/23/23 18/18/18
f 23/23/23 19/19/19 18/18/18
f 24/24/24 23/23/23 22/22/22
f 24/24/24 25/25/25 23/23/23
f 26/26/26 22/22/22 20/20/20
f 26/26/26 20/20/20 27/27/27
f 27/27/27 20/20/20 21/21/21
f 28/28/28 22/22/22 26/26/26
f 28/28/28 24/24/24 22/22/22
f 27/27/27 21/21/21 29/29/29
f 30/30/30 27/27/27 29/29/29
f 30/30/30 29/29/29 31/31/31
f 32/32/32 27/27/27 30/30/30
f 32/32/32 26/26/26 27/27/27
f 33/33/33 26/26/26 32/32/32
f 33/33/33 28/28/28 26/26/26
f 21/21/21 34/34/34 29/29/29
f 21/21/21 35/35/35 34/34/34
f 35/35/35 21/21/21 17/17/17
f 35/35/35 17/17/17 16/16/16
f 35/35/35 36/36/36 34/34/34
f 35/35/35 37/37/37 36/36/36
f 37/37/37 35/35/35 16/16/16
f 37/37/37 16/16/16 38/38/38
f 14/14/14 38/38/38 16/16/16
f 14/14/14 39/39/39 38/38/38
f 39/39/39 14/14/14 12/12/12
f 39/39/39 12/12/12 40/40/40
f 13/13/13 40/40/40 12/12/12
f 13/13/13 41/41/41 40/40/40
f 37/37/37 42/42/42 36/36/36
f 37/37/37 43/43/43 42/42/42
f 43/43/43 37/37/37 38/38/38
f 43/43/43 38/38/38 44/44/44
f 39/39/39 44/44/44 38/38/38
f 39/39/39 45/45/45 44/44/44
f 45/45/45 39/39/39 40/40/40
f 45/45/45 40/40/40 46/46/46
f 41/41/41 46/46/46 40/40/40
f 41/41/41 47/47/47 46/46/46
f 43/43/43 48/48/48 42/42/42
f 43/43/43 49/49/49 48/48/48
f 49/49/49 43/43/43 44/44/44
f 49/49/49 44/44/44 50/50/50
f 45/45/45 50/50/50 44/44/44
f 45/45/45 51/51/51 50/50/50
f 51/51/51 45/45/45 46/46/46
f 51/51/51 46/46/46 52/52/52
f 47/47/47 52/52/52 46/46/46
f 47/47/47 53/53/53 52/52/52
f 54/54/54 51/51/51 52/52/52
f 54/54/54 52/52/52 55/55/55
f 53/53/53 55/55/55 52/52/52
f 49/49/49 56/56/56 48/48/48
f 48/48/48 56/56/56 57/57/57
f 48/48/48 57/57/57 58/58/58
f 57/57/57 56/56/56 59/59/59
f 59/59/59 54/54/54 55/55/55
f 49/49/49 60/60/60 56/56/56
f 60/60/60 49/49/49 50/50/50
f 60/60/60 59/59/59 56/56/56
f 60/60/60 50/50/50 61/61/61
f 51/51/51 61/61/61 50/50/50
f 51/51/51 54/54/54 61/61/61
f 54/54/54 59/59/59 61/61/61
f 59/59/59 60/60/60 61/61/61
f 42/42/42 48/48/48 58/58/58
f 42/42/42 58/58/58 62/62/62
f 36/36/36 42/42/42 62/62/62
f 36/36/36 62/62/62 63/63/63
f 34/34/34 36/36/36 63/63/63
f 34/34/34 63/63/63 64/64/64
f 29/29/29 34/34/34 64/64/64
f 29/29/29 64/64/64 31/31/31
f 65/65/65 59/59/59 55/55/55
f 53/53/53 65/65/65 55/55/55
f 66/66/66 58/58/58 57/57/57
f 66/66/66 57/57/57 59/59/59
f 59/59/59 67/67/67 66/66/66
f 67/67/67 68/68/68 66/66/66
f 66/66/66 68/68/68 58/58/58
f 68/68/68 62/62/62 58/58/58
f 67/67/67 69/69/69 68/68/68
f 69/69/69 70/70/70 68/68/68
f 69/69/69 71/71/71 70/70/70
f 71/71/71 72/72/72 70/70/70
f 71/71/71 73/73/73 72/72/72
f 73/73/73 74/74/74 72/72/72
f 73/73/73 75/75/75 74/74/74
f 75/75/75 76/76/76 74/74/74
f 75/75/75 77/77/77 76/76/76
f 78/78/78 76/76/76 77/77/77
f 79/79/79 78/78/78 77/77/77
f 79/79/79 77/77/77 80/80/80
f 81/81/81 79/79/79 80/80/80
f 81/81/81 80/80/80 82/82/82
f 83/83/83 78/78/78 79/79/79
f 83/83/83 84/84/84 78/78/78
f 85/85/85 84/84/84 83/83/83
f 85/85/85 86/86/86 84/84/84
f 84/84/84 87/87/87 78/78/78
f 78/78/78 87/87/87 76/76/76
f 84/84/84 88/88/88 87/87/87
f 86/86/86 88/88/88 84/84/84
f 86/86/86 89/89/89 88/88/88
f 87/87/87 31/31/31 76/76/76
f 87/87/87 30/30/30 31/31/31
f 88/88/88 30/30/30 87/87/87
f 88/88/88 32/32/32 30/30/30
f 89/89/89 32/32/32 88/88/88
f 89/89/89 33/33/33 32/32/32
f 90/90/90 82/82/82 80/80/80
f 90/90/90 80/80/80 91/91/91
f 77/77/77 91/91/91 80/80/80
f 77/77/77 75/75/75 91/91/91
f 75/75/75 92/92/92 91/91/91
f 75/75/75 73/73/73 92/92/92
f 93/93/93 91/91/91 92/92/92
f 93/93/93 90/90/90 91/91/91
f 90/90/90 93/93/93 94/94/94
f 90/90/90 94/94/94 95/95/95
f 82/82/82 90/90/90 95/95/95
f 82/82/82 95/95/95 96/96/96
f 13/13/13 96/96/96 95/95/95
f 13/13/13 10/10/10 96/96/96
f 41/41/41 95/95/95 94/94/94
f 41/41/41 13/13/13 95/95/95
f 73/73/73 97/97/97 92/92/92
f 73/73/73 71/71/71 97/97/97
f 98/98/98 92/92/92 97/97/97
f 98/98/98 93/93/93 92/92/92
f 93/93/93 99/99/99 94/94/94
f 93/93/93 98/98/98 99/99/99
f 47/47/47 94/94/94 99/99/99
f 47/47/47 41/41/41 94/94/94
f 71/71/71 100/100/100 97/97/97
f 71/71/71 69/69/69 100/100/100
f 101/101/101 97/97/97 100/100/100
f 101/101/101 98/98/98 97/97/97
f 98/98/98 102/102/102 99/99/99
f 98/98/98 101/101/101 102/102/102
f 53/53/53 99/99/99 102/102/102
f 53/53/53 47/47/47 99/99/99
f 101/101/101 103/103/103 102/102/102
f 101/101/101 104/104/104 103/103/103
f 104/104/104 101/101/101 100/100/100
f 69/69/69 105/105/105 100/100/100
f 104/104/104 100/100/100 105/105/105
f 69/69/69 67/67/67 105/105/105
f 59/59/59 104/104/104 105/105/105
f 104/104/104 59/59/59 103/103/103
f 67/67/67 59/59/59 105/105/105
f 59/59/59 65/65/65 103/103/103
f 65/65/65 102/102/102 103/103/103
f 65/65/65 53/53/53 102/102/102
f 2/2/2 106/106/106 3/3/3
f 106/106/106 2/2/2 25/25/25
f 106/106/106 25/25/25 24/24/24
f 106/106/106 24/24/24 28/28/28
f 106/106/106 7/7/7 3/3/3
f 106/106/106 28/28/28 33/33/33
f 25/25/25 2/2/2 5/5/5
f 25/25/25 5/5/5 23/23/23
f 23/23/23 5/5/5 19/19/19
f 107/107/107 19/19/19 5/5/5
f 107/107/107 5/5/5 108/108/108
f 19/19/19 107/107/107 109/109/109
f 19/19/19 109/109/109 15/15/15
f 108/108/108 5/5/5 4/4/4
f 108/108/108 4/4/4 110/110/110
f 110/110/110 4/4/4 111/111/111
f 1/1/1 111/111/111 4/4/4
f 1/1/1 9/9/9 111/111/111
f 111/111/111 9/9/9 11/11/11
f 112/112/112 111/111/111 11/11/11
f 110/110/110 111/111/111 112/112/112
f 112/112/112 11/11/11 113/113/113
f 15/15/15 113/113/113 11/11/11
f 15/15/15 109/109/109 113/113/113
f 114/114/114 112/112/112 113/113/113
f 114/114/114 110/110/110 112/112/112
f 114/114/114 107/107/107 108/108/108
f 107/107/107 114/114/114 109/109/109
f 114/114/114 108/108/108 110/110/110
f 109/109/109 114/114/114 113/113/113
f 115/115/115 116/116/116 117/117/117
f 115/115/115 118/118/118 116/116/116
f 116/116/116 118/118/118 119/119/119
f 7/7/7 115/115/115 117/117/117
f 7/7/7 117/117/117 6/6/6
f 6/6/6 117/117/117 120/120/120
f 120/120/120 117/117/117 116/116/116
f 6/6/6 120/120/120 8/8/8
f 8/8/8 120/120/120 96/96/96
f 8/8/8 96/96/96 10/10/10
f 115/115/115 106/106/106 118/118/118
f 7/7/7 106/106/106 115/115/115
f 118/118/118 106/106/106 85/85/85
f 85/85/85 106/106/106 86/86/86
f 86/86/86 106/106/106 89/89/89
f 89/89/89 106/106/106 33/33/33
f 118/118/118 83/83/83 119/119/119
f 118/118/118 85/85/85 83/83/83
f 119/119/119 83/83/83 79/79/79
f 119/119/119 79/79/79 81/81/81
f 120/120/120 121/121/121 96/96/96
f 120/120/120 116/116/116 121/121/121
f 121/121/121 122/122/122 96/96/96
f 121/121/121 123/123/123 122/122/122
f 116/116/116 123/123/123 121/121/121
f 116/116/116 124/124/124 123/123/123
f 119/119/119 124/124/124 116/116/116
f 81/81/81 125/125/125 119/119/119
f 119/119/119 125/125/125 124/124/124
f 81/81/81 126/126/126 125/125/125
f 126/126/126 81/81/81 82/82/82
f 126/126/126 82/82/82 127/127/127
f 127/127/127 96/96/96 122/122/122
f 127/127/127 82/82/82 96/96/96
f 123/123/123 128/128/128 122/122/122
f 124/124/124 128/128/128 123/123/123
f 126/126/126 128/128/128 125/125/125
f 128/128/128 126/126/126 127/127/127
f 125/125/125 128/128/128 124/124/124
f 128/128/128 127/127/127 122/122/122
f 74/74/74 31/31/31 64/64/64
f 74/74/74 76/76/76 31/31/31
f 72/72/72 74/74/74 64/64/64
f 72/72/72 64/64/64 63/63/63
f 70/70/70 72/72/72 63/63/63
f 70/70/70 63/63/63 62/62/62
f 68/68/68 70/70/70 62/62/62

