# Created by DisUnity v0.2.1
v -0.054919 -0.364263 0.978563
v -0.014172 -0.309047 1.017368
v -0.024535 -0.335862 0.959848
v -0.044555 -0.337448 1.036083
v 0.0 -0.351169 0.972833
v 0.0 -0.37957 0.991547
v 0.0 -0.352755 1.049067
v 0.0 -0.324354 1.030353
v 0.054919 -0.364263 0.978563
v 0.024535 -0.335862 0.959848
v 0.014172 -0.309047 1.017368
v 0.044555 -0.337448 1.036083
v -0.154267 -0.15667 0.956587
v -0.190535 -0.233058 0.895249
v -0.163491 -0.218511 0.883187
v -0.181311 -0.171138 0.960941
v -0.167715 -0.120708 0.902079
v -0.157027 -0.17792 0.856396
v -0.188491 -0.178588 0.849043
v -0.1978 -0.121375 0.894725
v -0.140876 -0.121179 0.808264
v -0.184701 -0.10631 0.785156
v -0.185513 -0.021701 0.796759
v -0.133416 -0.014682 0.804528
v -0.120793 0.001952 0.768243
v -0.080294 -0.043001 0.729012
v -0.143827 -0.019589 0.709793
v 0.0 -0.011378 0.729012
v 0.0 0.006871 0.705612
v -0.139652 0.016509 0.760616
v 0.0 0.037 0.728472
v 0.0 0.018751 0.751872
v 0.143827 -0.019589 0.709793
v 0.080294 -0.043001 0.729012
v 0.184701 -0.10631 0.785156
v 0.140876 -0.121179 0.808264
v 0.188491 -0.178588 0.849043
v 0.157027 -0.17792 0.856396
v 0.190535 -0.233058 0.895249
v 0.181311 -0.171138 0.960941
v 0.154267 -0.15667 0.956587
v 0.163491 -0.218511 0.883187
v 0.167715 -0.120708 0.902079
v 0.1978 -0.121375 0.894725
v 0.185513 -0.021701 0.796759
v 0.133416 -0.014682 0.804528
v 0.120793 0.001952 0.768243
v 0.139652 0.016509 0.760616
v -0.047477 -0.348054 1.04508
v -0.091133 -0.287506 1.047072
v -0.082669 -0.315618 1.02055
v -0.061234 -0.302364 1.088186
v -0.111002 -0.254827 1.057208
v -0.093526 -0.249252 1.104659
v -0.135702 -0.20295 1.090085
v -0.136952 -0.226339 1.048241
v -0.162029 -0.209674 1.022573
v -0.176459 -0.175865 1.048368
v -0.204877 -0.175254 0.990688
v -0.179514 -0.209298 0.987084
v -0.213342 -0.201281 0.932499
v -0.184722 -0.225312 0.951281
v -0.199585 -0.246972 0.889393
v -0.176258 -0.253424 0.924759
v -0.167293 -0.300083 0.87292
v -0.156389 -0.286103 0.914623
v -0.125118 -0.346385 0.887494
v -0.130439 -0.314591 0.923591
v -0.105362 -0.331256 0.949258
v -0.08436 -0.37347 0.929211
v -0.055942 -0.374081 0.986891
v -0.087877 -0.331632 0.984747
v 0.015684 -0.296876 1.012461
v 0.005321 -0.323691 0.954941
v -0.027066 -0.325628 0.899422
v -0.072798 -0.302167 0.86078
v -0.119621 -0.259595 0.849369
v -0.154989 -0.209319 0.868247
v -0.169425 -0.164809 0.912355
v -0.159062 -0.137994 0.969875
v -0.126675 -0.136057 1.025394
v -0.080943 -0.159518 1.064036
v -0.03412 -0.20209 1.075447
v 0.001248 -0.252367 1.056569
v -0.085409 -0.284763 1.044931
v -0.076945 -0.312875 1.018409
v -0.105278 -0.252084 1.055066
v -0.131228 -0.223595 1.046099
v -0.156305 -0.206931 1.020432
v -0.173791 -0.206555 0.984942
v -0.178999 -0.222568 0.94914
v -0.170535 -0.250681 0.922617
v -0.150666 -0.28336 0.912482
v -0.124716 -0.311848 0.921449
v -0.099639 -0.328513 0.947116
v -0.082153 -0.328889 0.982606
v 0.047477 -0.348054 1.04508
v 0.091133 -0.287506 1.047072
v 0.061234 -0.302364 1.088186
v 0.082669 -0.315618 1.02055
v 0.111002 -0.254827 1.057208
v 0.093526 -0.249252 1.104659
v 0.135702 -0.20295 1.090085
v 0.136952 -0.226339 1.048241
v 0.162029 -0.209674 1.022573
v 0.176459 -0.175865 1.048368
v 0.204877 -0.175254 0.990688
v 0.179514 -0.209298 0.987084
v 0.213342 -0.201281 0.932499
v 0.184722 -0.225312 0.951281
v 0.199585 -0.246972 0.889393
v 0.176258 -0.253424 0.924759
v 0.167293 -0.300083 0.87292
v 0.156389 -0.286103 0.914623
v 0.125118 -0.346385 0.887494
v 0.130439 -0.314591 0.923591
v 0.105362 -0.331256 0.949258
v 0.08436 -0.37347 0.929211
v 0.055942 -0.374081 0.986891
v 0.087877 -0.331632 0.984747
v -0.015684 -0.296876 1.012461
v -0.005321 -0.323691 0.954941
v 0.027066 -0.325628 0.899422
v 0.072798 -0.302167 0.86078
v 0.119621 -0.259595 0.849369
v 0.154989 -0.209319 0.868247
v 0.169425 -0.164809 0.912355
v 0.159062 -0.137994 0.969875
v 0.126675 -0.136057 1.025394
v 0.080943 -0.159518 1.064036
v 0.03412 -0.20209 1.075447
v -0.001248 -0.252367 1.056569
v 0.085409 -0.284763 1.044931
v 0.076945 -0.312875 1.018409
v 0.105278 -0.252084 1.055066
v 0.131228 -0.223595 1.046099
v 0.156305 -0.206931 1.020432
v 0.173791 -0.206555 0.984942
v 0.178999 -0.222568 0.94914
v 0.170535 -0.250681 0.922617
v 0.150666 -0.28336 0.912482
v 0.124716 -0.311848 0.921449
v 0.099639 -0.328513 0.947116
v 0.082153 -0.328889 0.982606
v -0.127972 -0.267722 0.983774
v 0.127972 -0.267722 0.983774
vn -0.8393028 -0.39497676 -0.373583
vn 0.03866792 0.997614 0.057193115
vn -0.06762983 0.39973623 -0.9141319
vn -0.7752435 0.10025491 0.6236556
vn -0.2777244 -0.0863082 -0.95677584
vn -0.37883568 -0.91551703 -0.13532244
vn -0.3959871 -0.30900726 0.86470157
vn -0.2966478 0.78193545 0.54824907
vn 0.8393028 -0.39497676 -0.373583
vn 0.06762983 0.39973623 -0.9141319
vn -0.03866792 0.997614 0.057193115
vn 0.7752435 0.10025491 0.6236556
vn 0.65158725 0.2325266 0.7220563
vn -0.37423113 -0.9241025 0.07736715
vn 0.6903076 -0.6703482 -0.27222884
vn -0.3482873 -0.15403137 0.924646
vn 0.54498297 0.58514637 0.60049754
vn 0.7808992 -0.4322459 -0.45095426
vn -0.6435074 -0.5072981 -0.5731901
vn -0.8272465 0.41527125 0.3784349
vn 0.78208846 -0.5451058 -0.3019888
vn -0.6464518 -0.44319576 -0.6210295
vn -0.79057086 0.59121907 0.15955469
vn 0.41490796 0.61169547 0.6735578
vn 0.33781597 0.4398108 0.8321339
vn 0.46929136 -0.8652759 -0.17624748
vn -0.42687303 0.0468776 -0.9030957
vn 0.0 -0.9992556 0.03857611
vn 0.0 0.1716696 -0.98515457
vn -0.32949132 0.9387878 0.10056261
vn 0.0 0.99892765 -0.0462978
vn 0.0 0.14472337 0.9894721
vn 0.42687303 0.0468776 -0.9030957
vn -0.46929136 -0.8652759 -0.17624748
vn 0.6464518 -0.44319576 -0.6210295
vn -0.78208846 -0.5451058 -0.3019888
vn 0.6435074 -0.5072981 -0.5731901
vn -0.7808992 -0.4322459 -0.45095426
vn 0.37423113 -0.9241025 0.07736715
vn 0.3482873 -0.15403137 0.924646
vn -0.65158725 0.2325266 0.7220563
vn -0.6903076 -0.6703482 -0.27222884
vn -0.54498297 0.58514637 0.60049754
vn 0.8272465 0.41527125 0.3784349
vn 0.79057086 0.59121907 0.15955469
vn -0.41490796 0.61169547 0.6735578
vn -0.33781597 0.4398108 0.8321339
vn 0.32949132 0.9387878 0.10056261
vn 0.02832179 -0.81754756 0.57516426
vn -0.91547537 -0.26563647 -0.30222863
vn -0.9968426 0.021668501 -0.076389104
vn -0.060062166 -0.5415971 0.8384898
vn -0.74217963 -0.5752976 -0.34380513
vn -0.262676 -0.22364235 0.93860817
vn -0.5235819 0.050630827 0.85046965
vn -0.54323506 -0.8112514 -0.2162564
vn -0.3733695 -0.92753357 0.016632857
vn -0.7723305 0.20967008 0.59961975
vn -0.9435767 0.21323405 0.2533661
vn -0.26158267 -0.9208345 0.2892028
vn -0.9933923 0.060824294 -0.097324975
vn -0.22059204 -0.80451393 0.55144954
vn -0.90908223 -0.20878343 -0.360526
vn -0.25819573 -0.5960476 0.760304
vn -0.71162206 -0.52588063 -0.46587944
vn -0.37825453 -0.32426614 0.8670495
vn -0.45174858 -0.8057128 -0.38307983
vn -0.56807816 -0.04651075 0.8216594
vn -0.78212994 0.14893645 0.6050543
vn -0.19889247 -0.9710543 -0.13226946
vn -0.022523131 -0.9754225 0.21918853
vn -0.9467736 0.17933212 0.26731965
vn 0.6914021 -0.5743932 0.43821862
vn 0.62682694 -0.77871937 -0.026154665
vn 0.39708441 -0.7782073 -0.48653597
vn 0.061099444 -0.5679624 -0.82078344
vn -0.29172805 -0.2008129 -0.9351839
vn -0.5655182 0.22300278 -0.7940144
vn -0.6852234 0.5849364 -0.43395647
vn -0.61770934 0.7851379 0.044649646
vn -0.38152552 0.7719322 0.508487
vn -0.042115957 0.55312294 0.83203435
vn 0.3076964 0.1900747 0.932306
vn 0.57513887 -0.22108285 0.78761524
vn -0.8990041 -0.147011 -0.41252804
vn -0.9759142 0.15635014 -0.15213847
vn -0.7160685 -0.4970638 -0.4900749
vn -0.48461768 -0.79271114 -0.36980367
vn -0.27030724 -0.95774883 -0.09824082
vn -0.12338904 -0.96159834 0.24516058
vn -0.07214751 -0.8115984 0.5797436
vn -0.12863891 -0.5395815 0.83204806
vn -0.28751796 -0.20371324 0.93586016
vn -0.51538247 0.10901558 0.849998
vn -0.75013506 0.3053766 0.58655137
vn -0.92106503 0.32347143 0.21680735
vn -0.02832179 -0.81754756 0.57516426
vn 0.91547537 -0.26563647 -0.30222863
vn 0.060062166 -0.5415971 0.8384898
vn 0.9968426 0.021668501 -0.076389104
vn 0.74217963 -0.5752976 -0.34380513
vn 0.262676 -0.22364235 0.93860817
vn 0.5235819 0.050630827 0.85046965
vn 0.54323506 -0.8112514 -0.2162564
vn 0.3733695 -0.92753357 0.016632857
vn 0.7723305 0.20967008 0.59961975
vn 0.9435767 0.21323405 0.2533661
vn 0.26158267 -0.9208345 0.2892028
vn 0.9933923 0.060824294 -0.097324975
vn 0.22059204 -0.80451393 0.55144954
vn 0.90908223 -0.20878343 -0.360526
vn 0.25819573 -0.5960476 0.760304
vn 0.71162206 -0.52588063 -0.46587944
vn 0.37825453 -0.32426614 0.8670495
vn 0.45174858 -0.8057128 -0.38307983
vn 0.56807816 -0.04651075 0.8216594
vn 0.78212994 0.14893645 0.6050543
vn 0.19889247 -0.9710543 -0.13226946
vn 0.022523131 -0.9754225 0.21918853
vn 0.9467736 0.17933212 0.26731965
vn -0.6914021 -0.5743932 0.43821862
vn -0.62682694 -0.77871937 -0.026154665
vn -0.39708441 -0.7782073 -0.48653597
vn -0.061099444 -0.5679624 -0.82078344
vn 0.29172805 -0.2008129 -0.9351839
vn 0.5655182 0.22300278 -0.7940144
vn 0.6852234 0.5849364 -0.43395647
vn 0.61770934 0.7851379 0.044649646
vn 0.38152552 0.7719322 0.508487
vn 0.042115957 0.55312294 0.83203435
vn -0.3076964 0.1900747 0.932306
vn -0.57513887 -0.22108285 0.78761524
vn 0.8990041 -0.147011 -0.41252804
vn 0.9759142 0.15635014 -0.15213847
vn 0.7160685 -0.4970638 -0.4900749
vn 0.48461768 -0.79271114 -0.36980367
vn 0.27030724 -0.95774883 -0.09824082
vn 0.12338904 -0.96159834 0.24516058
vn 0.07214751 -0.8115984 0.5797436
vn 0.12863891 -0.5395815 0.83204806
vn 0.28751796 -0.20371324 0.93586016
vn 0.51538247 0.10901558 0.849998
vn 0.75013506 0.3053766 0.58655137
vn 0.92106503 0.32347143 0.21680735
vn -0.7433032 -0.5636652 0.36025253
vn 0.7433032 -0.5636652 0.36025253
vt 0.0 0.0
vt 0.0 0.0
vt 0.0 0.0
vt 0.0 0.0
vt 0.0 0.0
vt 0.0 0.0
vt 0.0 0.0
vt 0.0 0.0
vt 0.0 0.0
vt 0.0 0.0
vt 0.0 0.0
vt 0.0 0.0
vt 0.0 0.0
vt 0.0 0.0
vt 0.0 0.0
vt 0.0 0.0
vt 0.0 0.0
vt 0.0 0.0
vt 0.0 0.0
vt 0.0 0.0
vt 0.0 0.0
vt 0.0 0.0
vt 0.0 0.0
vt 0.0 0.0
vt 0.0 0.0
vt 0.0 0.0
vt 0.0 0.0
vt 0.0 0.0
vt 0.0 0.0
vt 0.0 0.0
vt 0.0 0.0
vt 0.0 0.0
vt 0.0 0.0
vt 0.0 0.0
vt 0.0 0.0
vt 0.0 0.0
vt 0.0 0.0
vt 0.0 0.0
vt 0.0 0.0
vt 0.0 0.0
vt 0.0 0.0
vt 0.0 0.0
vt 0.0 0.0
vt 0.0 0.0
vt 0.0 0.0
vt 0.0 0.0
vt 0.0 0.0
vt 0.0 0.0
vt 0.0 0.0
vt 0.0 0.0
vt 0.0 0.0
vt 0.0 0.0
vt 0.0 0.0
vt 0.0 0.0
vt 0.0 0.0
vt 0.0 0.0
vt 0.0 0.0
vt 0.0 0.0
vt 0.0 0.0
vt 0.0 0.0
vt 0.0 0.0
vt 0.0 0.0
vt 0.0 0.0
vt 0.0 0.0
vt 0.0 0.0
vt 0.0 0.0
vt 0.0 0.0
vt 0.0 0.0
vt 0.0 0.0
vt 0.0 0.0
vt 0.0 0.0
vt 0.0 0.0
vt 0.0 0.0
vt 0.0 0.0
vt 0.0 0.0
vt 0.0 0.0
vt 0.0 0.0
vt 0.0 0.0
vt 0.0 0.0
vt 0.0 0.0
vt 0.0 0.0
vt 0.0 0.0
vt 0.0 0.0
vt 0.0 0.0
vt 0.0 0.0
vt 0.0 0.0
vt 0.0 0.0
vt 0.0 0.0
vt 0.0 0.0
vt 0.0 0.0
vt 0.0 0.0
vt 0.0 0.0
vt 0.0 0.0
vt 0.0 0.0
vt 0.0 0.0
vt 0.0 0.0
vt 0.0 0.0
vt 0.0 0.0
vt 0.0 0.0
vt 0.0 0.0
vt 0.0 0.0
vt 0.0 0.0
vt 0.0 0.0
vt 0.0 0.0
vt 0.0 0.0
vt 0.0 0.0
vt 0.0 0.0
vt 0.0 0.0
vt 0.0 0.0
vt 0.0 0.0
vt 0.0 0.0
vt 0.0 0.0
vt 0.0 0.0
vt 0.0 0.0
vt 0.0 0.0
vt 0.0 0.0
vt 0.0 0.0
vt 0.0 0.0
vt 0.0 0.0
vt 0.0 0.0
vt 0.0 0.0
vt 0.0 0.0
vt 0.0 0.0
vt 0.0 0.0
vt 0.0 0.0
vt 0.0 0.0
vt 0.0 0.0
vt 0.0 0.0
vt 0.0 0.0
vt 0.0 0.0
vt 0.0 0.0
vt 0.0 0.0
vt 0.0 0.0
vt 0.0 0.0
vt 0.0 0.0
vt 0.0 0.0
vt 0.0 0.0
vt 0.0 0.0
vt 0.0 0.0
vt 0.0 0.0
vt 0.0 0.0
vt 0.0 0.0
vt 0.0 0.0
vt 0.0 0.0
vt 0.0 0.0
vt 0.0 0.0

o goggles
s 1
usemtl goggles_0
f 1/1/1 2/2/2 3/3/3
f 1/1/1 4/4/4 2/2/2
f 5/5/5 1/1/1 3/3/3
f 5/5/5 6/6/6 1/1/1
f 4/4/4 1/1/1 6/6/6
f 2/2/2 4/4/4 7/7/7
f 4/4/4 6/6/6 7/7/7
f 2/2/2 7/7/7 8/8/8
f 3/3/3 8/8/8 5/5/5
f 3/3/3 2/2/2 8/8/8
f 8/8/8 6/6/6 7/7/7
f 8/8/8 5/5/5 6/6/6
f 5/5/5 9/9/9 6/6/6
f 5/5/5 10/10/10 9/9/9
f 10/10/10 5/5/5 8/8/8
f 9/9/9 10/10/10 11/11/11
f 11/11/11 8/8/8 7/7/7
f 10/10/10 8/8/8 11/11/11
f 9/9/9 11/11/11 12/12/12
f 11/11/11 7/7/7 12/12/12
f 12/12/12 6/6/6 9/9/9
f 12/12/12 7/7/7 6/6/6
f 13/13/13 14/14/14 15/15/15
f 13/13/13 16/16/16 14/14/14
f 15/15/15 17/17/17 13/13/13
f 15/15/15 18/18/18 17/17/17
f 14/14/14 18/18/18 15/15/15
f 16/16/16 19/19/19 14/14/14
f 14/14/14 19/19/19 18/18/18
f 16/16/16 20/20/20 19/19/19
f 13/13/13 20/20/20 16/16/16
f 13/13/13 17/17/17 20/20/20
f 19/19/19 21/21/21 18/18/18
f 19/19/19 22/22/22 21/21/21
f 20/20/20 22/22/22 19/19/19
f 17/17/17 23/23/23 20/20/20
f 20/20/20 23/23/23 22/22/22
f 17/17/17 24/24/24 23/23/23
f 18/18/18 24/24/24 17/17/17
f 18/18/18 21/21/21 24/24/24
f 21/21/21 25/25/25 24/24/24
f 23/23/23 24/24/24 25/25/25
f 21/21/21 26/26/26 25/25/25
f 22/22/22 26/26/26 21/21/21
f 22/22/22 27/27/27 26/26/26
f 23/23/23 27/27/27 22/22/22
f 27/27/27 28/28/28 26/26/26
f 27/27/27 29/29/29 28/28/28
f 30/30/30 29/29/29 27/27/27
f 30/30/30 27/27/27 23/23/23
f 23/23/23 25/25/25 30/30/30
f 25/25/25 31/31/31 30/30/30
f 30/30/30 31/31/31 29/29/29
f 25/25/25 32/32/32 31/31/31
f 26/26/26 32/32/32 25/25/25
f 26/26/26 28/28/28 32/32/32
f 33/33/33 28/28/28 29/29/29
f 33/33/33 34/34/34 28/28/28
f 34/34/34 32/32/32 28/28/28
f 35/35/35 34/34/34 33/33/33
f 35/35/35 36/36/36 34/34/34
f 37/37/37 36/36/36 35/35/35
f 37/37/37 38/38/38 36/36/36
f 39/39/39 38/38/38 37/37/37
f 40/40/40 39/39/39 37/37/37
f 41/41/41 39/39/39 40/40/40
f 41/41/41 42/42/42 39/39/39
f 39/39/39 42/42/42 38/38/38
f 42/42/42 43/43/43 38/38/38
f 42/42/42 41/41/41 43/43/43
f 40/40/40 37/37/37 44/44/44
f 41/41/41 44/44/44 43/43/43
f 41/41/41 40/40/40 44/44/44
f 44/44/44 37/37/37 35/35/35
f 43/43/43 44/44/44 45/45/45
f 44/44/44 35/35/35 45/45/45
f 45/45/45 35/35/35 33/33/33
f 43/43/43 45/45/45 46/46/46
f 38/38/38 46/46/46 36/36/36
f 38/38/38 43/43/43 46/46/46
f 36/36/36 47/47/47 34/34/34
f 36/36/36 46/46/46 47/47/47
f 34/34/34 47/47/47 32/32/32
f 45/45/45 47/47/47 46/46/46
f 47/47/47 31/31/31 32/32/32
f 47/47/47 48/48/48 31/31/31
f 45/45/45 48/48/48 47/47/47
f 48/48/48 29/29/29 31/31/31
f 48/48/48 33/33/33 29/29/29
f 48/48/48 45/45/45 33/33/33

usemtl goggles_1
f 49/49/49 50/50/50 51/51/51
f 49/49/49 52/52/52 50/50/50
f 53/53/53 50/50/50 52/52/52
f 53/53/53 52/52/52 54/54/54
f 53/53/53 54/54/54 55/55/55
f 53/53/53 55/55/55 56/56/56
f 57/57/57 56/56/56 55/55/55
f 57/57/57 55/55/55 58/58/58
f 57/57/57 58/58/58 59/59/59
f 57/57/57 59/59/59 60/60/60
f 60/60/60 59/59/59 61/61/61
f 60/60/60 61/61/61 62/62/62
f 62/62/62 61/61/61 63/63/63
f 62/62/62 63/63/63 64/64/64
f 64/64/64 63/63/63 65/65/65
f 64/64/64 65/65/65 66/66/66
f 66/66/66 65/65/65 67/67/67
f 66/66/66 67/67/67 68/68/68
f 69/69/69 68/68/68 67/67/67
f 69/69/69 67/67/67 70/70/70
f 69/69/69 70/70/70 71/71/71
f 69/69/69 71/71/71 72/72/72
f 72/72/72 71/71/71 49/49/49
f 72/72/72 49/49/49 51/51/51
f 71/71/71 73/73/73 49/49/49
f 71/71/71 74/74/74 73/73/73
f 70/70/70 74/74/74 71/71/71
f 70/70/70 75/75/75 74/74/74
f 70/70/70 76/76/76 75/75/75
f 70/70/70 67/67/67 76/76/76
f 65/65/65 76/76/76 67/67/67
f 65/65/65 77/77/77 76/76/76
f 63/63/63 77/77/77 65/65/65
f 63/63/63 78/78/78 77/77/77
f 61/61/61 78/78/78 63/63/63
f 61/61/61 79/79/79 78/78/78
f 59/59/59 79/79/79 61/61/61
f 59/59/59 80/80/80 79/79/79
f 58/58/58 80/80/80 59/59/59
f 58/58/58 81/81/81 80/80/80
f 58/58/58 82/82/82 81/81/81
f 58/58/58 55/55/55 82/82/82
f 54/54/54 82/82/82 55/55/55
f 54/54/54 83/83/83 82/82/82
f 54/54/54 84/84/84 83/83/83
f 54/54/54 52/52/52 84/84/84
f 52/52/52 73/73/73 84/84/84
f 52/52/52 49/49/49 73/73/73
f 51/51/51 85/85/85 86/86/86
f 51/51/51 50/50/50 85/85/85
f 50/50/50 87/87/87 85/85/85
f 50/50/50 53/53/53 87/87/87
f 56/56/56 87/87/87 53/53/53
f 56/56/56 88/88/88 87/87/87
f 56/56/56 89/89/89 88/88/88
f 56/56/56 57/57/57 89/89/89
f 60/60/60 89/89/89 57/57/57
f 60/60/60 90/90/90 89/89/89
f 62/62/62 90/90/90 60/60/60
f 62/62/62 91/91/91 90/90/90
f 64/64/64 91/91/91 62/62/62
f 64/64/64 92/92/92 91/91/91
f 66/66/66 92/92/92 64/64/64
f 66/66/66 93/93/93 92/92/92
f 68/68/68 93/93/93 66/66/66
f 68/68/68 94/94/94 93/93/93
f 68/68/68 95/95/95 94/94/94
f 68/68/68 69/69/69 95/95/95
f 72/72/72 95/95/95 69/69/69
f 72/72/72 96/96/96 95/95/95
f 51/51/51 96/96/96 72/72/72
f 51/51/51 86/86/86 96/96/96
f 97/97/97 98/98/98 99/99/99
f 97/97/97 100/100/100 98/98/98
f 101/101/101 99/99/99 98/98/98
f 101/101/101 102/102/102 99/99/99
f 101/101/101 103/103/103 102/102/102
f 101/101/101 104/104/104 103/103/103
f 105/105/105 103/103/103 104/104/104
f 105/105/105 106/106/106 103/103/103
f 105/105/105 107/107/107 106/106/106
f 105/105/105 108/108/108 107/107/107
f 108/108/108 109/109/109 107/107/107
f 108/108/108 110/110/110 109/109/109
f 110/110/110 111/111/111 109/109/109
f 110/110/110 112/112/112 111/111/111
f 112/112/112 113/113/113 111/111/111
f 112/112/112 114/114/114 113/113/113
f 114/114/114 115/115/115 113/113/113
f 114/114/114 116/116/116 115/115/115
f 117/117/117 115/115/115 116/116/116
f 117/117/117 118/118/118 115/115/115
f 117/117/117 119/119/119 118/118/118
f 117/117/117 120/120/120 119/119/119
f 120/120/120 97/97/97 119/119/119
f 120/120/120 100/100/100 97/97/97
f 119/119/119 97/97/97 121/121/121
f 119/119/119 121/121/121 122/122/122
f 118/118/118 119/119/119 122/122/122
f 118/118/118 122/122/122 123/123/123
f 118/118/118 124/124/124 115/115/115
f 118/118/118 123/123/123 124/124/124
f 113/113/113 115/115/115 124/124/124
f 113/113/113 124/124/124 125/125/125
f 111/111/111 113/113/113 125/125/125
f 111/111/111 125/125/125 126/126/126
f 109/109/109 111/111/111 126/126/126
f 109/109/109 126/126/126 127/127/127
f 107/107/107 109/109/109 127/127/127
f 107/107/107 127/127/127 128/128/128
f 106/106/106 107/107/107 128/128/128
f 106/106/106 128/128/128 129/129/129
f 106/106/106 129/129/129 130/130/130
f 106/106/106 130/130/130 103/103/103
f 102/102/102 103/103/103 130/130/130
f 102/102/102 130/130/130 131/131/131
f 102/102/102 131/131/131 132/132/132
f 102/102/102 132/132/132 99/99/99
f 99/99/99 132/132/132 121/121/121
f 99/99/99 121/121/121 97/97/97
f 100/100/100 133/133/133 98/98/98
f 100/100/100 134/134/134 133/133/133
f 98/98/98 133/133/133 135/135/135
f 98/98/98 135/135/135 101/101/101
f 104/104/104 101/101/101 135/135/135
f 104/104/104 135/135/135 136/136/136
f 104/104/104 136/136/136 137/137/137
f 104/104/104 137/137/137 105/105/105
f 108/108/108 105/105/105 137/137/137
f 108/108/108 137/137/137 138/138/138
f 110/110/110 108/108/108 138/138/138
f 110/110/110 138/138/138 139/139/139
f 112/112/112 110/110/110 139/139/139
f 112/112/112 139/139/139 140/140/140
f 114/114/114 112/112/112 140/140/140
f 114/114/114 140/140/140 141/141/141
f 116/116/116 114/114/114 141/141/141
f 116/116/116 141/141/141 142/142/142
f 116/116/116 142/142/142 143/143/143
f 116/116/116 143/143/143 117/117/117
f 120/120/120 117/117/117 143/143/143
f 120/120/120 143/143/143 144/144/144
f 100/100/100 120/120/120 144/144/144
f 100/100/100 144/144/144 134/134/134

usemtl goggles_2
f 86/86/86 145/145/145 96/96/96
f 96/96/96 145/145/145 95/95/95
f 94/94/94 95/95/95 145/145/145
f 94/94/94 145/145/145 93/93/93
f 93/93/93 145/145/145 92/92/92
f 92/92/92 145/145/145 91/91/91
f 91/91/91 145/145/145 90/90/90
f 90/90/90 145/145/145 89/89/89
f 88/88/88 89/89/89 145/145/145
f 88/88/88 145/145/145 87/87/87
f 85/85/85 87/87/87 145/145/145
f 86/86/86 85/85/85 145/145/145
f 134/134/134 144/144/144 146/146/146
f 144/144/144 143/143/143 146/146/146
f 142/142/142 146/146/146 143/143/143
f 142/142/142 141/141/141 146/146/146
f 141/141/141 140/140/140 146/146/146
f 140/140/140 139/139/139 146/146/146
f 139/139/139 138/138/138 146/146/146
f 138/138/138 137/137/137 146/146/146
f 136/136/136 146/146/146 137/137/137
f 136/136/136 135/135/135 146/146/146
f 133/133/133 146/146/146 135/135/135
f 134/134/134 146/146/146 133/133/133

