# Created by DisUnity v0.2.1
v -0.040372 0.0 0.0
v -0.025708 0.025639 0.070752
v -0.028652 0.028363 8.35E-4
v -0.036356 -6.3E-5 0.071261
v -0.028375 -0.028362 -8.35E-4
v -0.025708 -0.025766 0.07177
v 0.0 -0.040111 -0.001181
v 0.0 -0.036412 0.071981
v -0.028317 -0.001512 0.143837
v -0.020023 -0.021531 0.144233
v 0.0 -0.029823 0.144398
v -0.020023 0.018508 0.14344
v -0.009985 0.005473 0.215262
v -0.014121 -0.00451 0.21546
v -0.009985 -0.014493 0.215658
v 0.0 0.036286 0.070541
v 0.0 0.040111 0.001181
v 0.0 0.0268 0.143276
v 0.025708 0.025639 0.070752
v 0.020023 0.018508 0.14344
v 0.036356 -6.3E-5 0.071261
v 0.040372 0.0 0.0
v 0.028652 0.028363 8.35E-4
v 0.028375 -0.028362 -8.35E-4
v 0.025708 -0.025766 0.07177
v 0.028317 -0.001512 0.143837
v 0.020023 -0.021531 0.144233
v 0.009985 0.005473 0.215262
v 0.014121 -0.00451 0.21546
v 0.009985 -0.014493 0.215658
v 0.0 -0.004692 0.226881
v 0.0 -0.004692 0.226881
v 0.0 -0.040111 -0.001181
v 0.0 -0.036412 0.071981
v 0.0 -0.029823 0.144398
v 0.0 -0.018628 0.21574
v 0.0 -0.004692 0.226881
v 0.0 0.009608 0.21518
v 0.0 -0.004692 0.226881
v 0.0 -0.004692 0.226881
v 0.0 -0.004692 0.226881
v 0.0 -0.018628 0.21574
v 0.0 -0.004692 0.226881
v 0.0 -0.004692 0.226881
vn -0.9984127 -0.009491544 0.05551485
vn -0.70224357 0.70630264 0.08939033
vn -0.7095824 0.7023493 0.056552954
vn -0.9965977 0.0017395826 0.08240128
vn -0.7010777 -0.7111794 0.052095577
vn -0.70584035 -0.7044976 0.07397773
vn 0.0 -0.9987143 0.050692596
vn 0.0 -0.9975183 0.070407666
vn -0.9885091 0.0043336926 0.15109937
vn -0.703097 -0.69897693 0.13071293
vn 0.0 -0.9925206 0.122077495
vn -0.6944442 0.6989916 0.17075746
vn -0.6141095 0.6160933 0.49325308
vn -0.87565476 0.0016785519 0.48293462
vn -0.62384903 -0.62244517 0.47262496
vn 0.0 0.9958027 0.09152632
vn 0.0 0.9984511 0.055635665
vn 0.0 0.9839055 0.17868936
vn 0.70224357 0.70630264 0.08939033
vn 0.6944442 0.6989916 0.17075746
vn 0.9965977 0.0017395826 0.08240128
vn 0.9984127 -0.009491544 0.05551485
vn 0.7095824 0.7023493 0.056552954
vn 0.7010777 -0.7111794 0.052095577
vn 0.70584035 -0.7044976 0.07397773
vn 0.9885091 0.0043336926 0.15109937
vn 0.703097 -0.69897693 0.13071293
vn 0.6141095 0.6160933 0.49325308
vn 0.87565476 0.0016785519 0.48293462
vn 0.62384903 -0.62244517 0.47262496
vn 0.0 0.0047304602 0.9999888
vn 0.0 0.0047304602 0.9999888
vn 0.0 -0.9987143 0.050692596
vn 0.0 -0.9975183 0.070407666
vn 0.0 -0.9925206 0.122077495
vn 0.0 -0.88352877 0.46837708
vn 0.0 0.0047304602 0.9999888
vn 0.0 0.8674495 0.4975253
vn 0.0 0.0047304602 0.9999888
vn 0.0 0.0047304602 0.9999888
vn 0.0 0.0047304602 0.9999888
vn 0.0 -0.88352877 0.46837708
vn 0.0 0.0047304602 0.9999888
vn 0.0 0.0047304602 0.9999888
vt 0.466861 0.118954
vt 0.551521 0.260152
vt 0.536357 0.110497
vt 0.495227 0.270591
vt 0.398413 0.132715
vt 0.4384 0.287145
vt 0.331736 0.150995
vt 0.380176 0.308625
vt 0.530061 0.410288
vt 0.491658 0.429101
vt 0.452844 0.454637
vt 0.568638 0.398528
vt 0.576595 0.4902
vt 0.548161 0.497954
vt 0.524114 0.511259
vt 0.607522 0.25689
vt 0.607527 0.107304
vt 0.607518 0.394308
vt 0.663522 0.260156
vt 0.646398 0.39853
vt 0.719815 0.270599
vt 0.748191 0.118964
vt 0.678697 0.110501
vt 0.816639 0.13273
vt 0.776641 0.287156
vt 0.684974 0.410292
vt 0.723376 0.429107
vt 0.638437 0.490201
vt 0.666869 0.497955
vt 0.690915 0.51126
vt 0.607516 0.555247
vt 0.607516 0.555247
vt 0.883314 0.151014
vt 0.834863 0.308639
vt 0.762189 0.454644
vt 0.707302 0.531887
vt 0.607516 0.555247
vt 0.607516 0.487456
vt 0.607516 0.555247
vt 0.607516 0.555247
vt 0.607516 0.555247
vt 0.507724 0.531887
vt 0.607516 0.555247
vt 0.607516 0.555247

o mare_horn
s 1
usemtl mare_horn_0
f 1/1/1 2/2/2 3/3/3
f 1/1/1 4/4/4 2/2/2
f 5/5/5 4/4/4 1/1/1
f 5/5/5 6/6/6 4/4/4
f 7/7/7 6/6/6 5/5/5
f 7/7/7 8/8/8 6/6/6
f 6/6/6 9/9/9 4/4/4
f 6/6/6 10/10/10 9/9/9
f 8/8/8 10/10/10 6/6/6
f 8/8/8 11/11/11 10/10/10
f 4/4/4 12/12/12 2/2/2
f 4/4/4 9/9/9 12/12/12
f 9/9/9 13/13/13 12/12/12
f 9/9/9 14/14/14 13/13/13
f 10/10/10 14/14/14 9/9/9
f 10/10/10 15/15/15 14/14/14
f 11/11/11 15/15/15 10/10/10
f 3/3/3 2/2/2 16/16/16
f 3/3/3 16/16/16 17/17/17
f 2/2/2 18/18/18 16/16/16
f 19/19/19 16/16/16 18/18/18
f 19/19/19 18/18/18 20/20/20
f 21/21/21 19/19/19 20/20/20
f 22/22/22 19/19/19 21/21/21
f 22/22/22 23/23/23 19/19/19
f 23/23/23 16/16/16 19/19/19
f 23/23/23 17/17/17 16/16/16
f 24/24/24 22/22/22 21/21/21
f 24/24/24 21/21/21 25/25/25
f 25/25/25 21/21/21 26/26/26
f 21/21/21 20/20/20 26/26/26
f 25/25/25 26/26/26 27/27/27
f 26/26/26 20/20/20 28/28/28
f 26/26/26 28/28/28 29/29/29
f 27/27/27 26/26/26 29/29/29
f 27/27/27 29/29/29 30/30/30
f 30/30/30 29/29/29 31/31/31
f 29/29/29 28/28/28 32/32/32
f 33/33/33 24/24/24 25/25/25
f 33/33/33 25/25/25 34/34/34
f 34/34/34 25/25/25 27/27/27
f 34/34/34 27/27/27 35/35/35
f 35/35/35 27/27/27 30/30/30
f 35/35/35 30/30/30 36/36/36
f 36/36/36 30/30/30 37/37/37
f 20/20/20 38/38/38 28/28/28
f 20/20/20 18/18/18 38/38/38
f 12/12/12 38/38/38 18/18/18
f 2/2/2 12/12/12 18/18/18
f 12/12/12 13/13/13 38/38/38
f 13/13/13 39/39/39 38/38/38
f 14/14/14 40/40/40 13/13/13
f 15/15/15 41/41/41 14/14/14
f 11/11/11 42/42/42 15/15/15
f 42/42/42 43/43/43 15/15/15
f 28/28/28 38/38/38 44/44/44

