# Created by DisUnity v0.2.1
v -0.076846 0.200579 -0.038194
v -0.074403 0.216801 -0.003711
v -0.060117 0.213339 -0.035606
v -0.084488 0.190036 -0.003345
v -0.077218 0.201379 -0.066544
v -0.058721 0.217674 -0.073759
v -0.066609 0.227394 -0.119515
v -0.052472 0.213188 -0.080095
v -0.050441 0.186833 -0.089391
v -0.045931 0.205707 -0.051191
v -0.038686 0.161129 -0.071552
v -0.050078 0.210188 -0.016617
v -0.083606 0.169569 -0.039753
v -0.091718 0.157056 -0.013876
v -0.070875 0.166118 -0.081601
v -0.067531 0.10831 -0.049147
v -0.078965 0.132011 -0.048933
v -0.063497 0.165587 -0.087376
v -0.04989 0.117051 -0.047667
v -0.027564 0.08713 -0.019245
v -0.043011 0.193182 -0.032292
v -0.035208 0.176229 -0.039023
v -0.033262 0.146619 -0.035281
v -0.008801 0.16672 -0.047309
v 0.002849 0.203515 -0.084617
v -0.021789 0.212358 -0.07106
v 0.018283 0.2527 -0.06731
v 8.1E-5 0.254964 -0.061066
v 0.021987 0.278236 -0.043665
v -0.023217 0.222978 -0.039366
v -0.001367 0.253708 -0.045054
v 0.007871 0.253259 -0.031251
v -0.013526 0.219276 0.007936
v -0.024407 0.121191 -0.072236
v -0.031497 0.104745 -0.070851
v -0.004975 0.100856 -0.101564
v -0.017879 0.084768 -0.067703
v -0.007829 0.127825 -0.074575
v 0.026428 0.243249 -0.051114
v 0.020578 0.197499 -0.060632
v 0.012276 0.163431 -0.034006
v 0.001282 0.135394 -0.029962
v 0.023191 0.137678 -0.067164
v 0.037216 0.176249 -0.043815
v 0.051703 0.136207 -0.08338
v 0.058984 0.157906 -0.06991
v 0.093158 0.160635 -0.083264
v 0.045547 0.178809 -0.023564
v 0.062688 0.159848 -0.060802
v 0.068401 0.138484 -0.048202
v 0.056165 0.156867 -0.019747
v 0.045406 0.183435 0.019301
v 0.047574 0.157557 0.018008
v 0.02791 0.190277 -0.003968
v 0.052577 0.1271 -0.019435
v 0.048578 0.119761 0.006511
v 0.057311 0.111287 -0.070469
v 0.026388 0.082953 -0.036997
v 0.04075 0.099027 -0.030767
v 0.053446 0.113663 -0.079027
v 0.009873 0.098107 -0.036252
v 0.038546 0.189178 0.044572
v 0.038257 0.165559 0.053792
v 0.019634 0.16652 0.087258
v 0.026501 0.201477 0.066296
v -0.008255 0.152956 0.095489
v 0.002792 0.212971 0.063975
v 0.042172 0.216198 0.02961
v 0.026769 0.23475 0.030173
v 0.052642 0.257888 0.022636
v 0.047805 0.217858 -0.001982
v 0.044428 0.223472 -0.006581
v 0.029884 0.235006 0.002915
v 0.003112 0.127039 0.107291
v -0.040686 0.130246 0.107777
v -0.033373 0.154493 0.085288
v -0.03648 0.066487 0.117829
v -0.080459 0.148023 0.095121
v -0.063622 0.07275 0.102126
v -0.090916 0.139552 0.03689
v -0.075234 0.069436 0.068101
v -0.074675 0.105105 -0.016466
v -0.065977 0.060683 0.034381
v -0.055606 0.04906 0.070912
v -0.048934 0.044887 0.046608
v -0.03354 0.054241 0.023967
v -0.025554 0.041816 0.039102
v -0.085578 0.19502 0.030724
v -0.077557 0.193323 0.070551
v -0.074748 0.226388 0.020157
v -0.067217 0.236566 0.045059
v -0.058125 0.170653 0.087013
v -0.040886 0.243588 0.048582
v -0.056489 0.269133 -0.004168
v -0.035488 0.283293 -4.6E-5
v -0.03763 0.320133 -0.032729
v -0.049861 0.258081 -0.03271
v -0.042809 0.260804 -0.036004
v -0.028489 0.271974 -0.023578
v -0.035504 0.218241 0.012591
v 0.004846 0.203344 0.022565
v 0.019 0.178093 -0.021409
v 0.013646 0.209668 -0.029148
v 0.019577 0.244379 -0.037404
v -0.021835 -0.044098 0.043638
v -0.04506 1.76E-4 0.059197
v -0.031173 -0.028122 0.029562
v -0.033504 -0.011008 0.082654
v 0.0 -0.051012 0.049469
v -0.009288 -0.018438 0.092009
v -0.039226 0.009112 0.034951
v -0.023202 -0.01406 0.015486
v -0.017821 0.0112 0.025532
v -0.003197 -0.011095 0.009714
v 0.014799 -0.013643 0.082419
v 0.021836 -0.044098 0.043638
v 0.022501 -0.003224 0.059635
v 0.005773 0.015732 0.085803
v 0.01198 0.019395 0.068252
v 0.029779 -0.030103 0.029562
v 0.019003 -0.017237 0.01563
v 0.007922 0.004772 0.036271
v -0.013638 0.013994 0.093228
v -0.020515 0.024313 0.042087
v -0.037764 0.023869 0.049142
v -0.033153 0.017017 0.085737
v 2.31E-4 0.021855 0.050497
v -0.042466 0.021008 0.067625
v -0.002853 0.047089 0.099289
v -0.002044 0.065302 0.107472
v -0.027673 0.047654 0.106754
v -0.047236 0.05064 0.095436
v 0.027104 0.110885 0.056092
v 0.013193 0.059042 0.07598
v 0.019362 0.082148 -0.001245
v -0.003831 0.052023 0.041162
v -0.004141 0.040759 0.051495
v 0.008129 0.044105 0.076591
v 7.24E-4 0.095035 -0.061853
v 0.001497 0.113407 -0.064892
v -0.037764 0.023869 0.049142
v -0.025554 0.041816 0.039102
v -0.020515 0.024313 0.042087
v -0.048934 0.044887 0.046608
v -0.042466 0.021008 0.067625
v -0.055606 0.04906 0.070912
v -0.033153 0.017017 0.085737
v -0.047236 0.05064 0.095436
v -0.013638 0.013994 0.093228
v -0.027673 0.047654 0.106754
v 2.31E-4 0.021855 0.050497
v -0.004141 0.040759 0.051495
v 0.01198 0.019395 0.068252
v 0.008129 0.044105 0.076591
v 0.005773 0.015732 0.085803
v -0.002853 0.047089 0.099289
vn -0.8702069 0.48681897 -0.07581081
vn -0.8620018 0.42887986 -0.27021295
vn -0.13562593 0.99012417 -0.035493463
vn -0.9510068 0.29252595 -0.10007225
vn -0.9263785 0.36824414 -0.078861505
vn 0.03552424 0.98598087 0.16303308
vn -0.10178079 0.60049134 -0.7931272
vn 0.84784746 0.52062315 -0.100529484
vn 0.8072866 -0.117101125 -0.57842517
vn 0.8313041 0.5533075 -0.05276716
vn 0.8347998 -0.19636245 -0.5143451
vn 0.5412228 0.6306433 -0.55620766
vn -0.980079 0.039460734 -0.19464856
vn -0.99270236 -0.0377219 -0.11453906
vn -0.7896328 -0.28529695 -0.54321784
vn -0.392257 -0.6949416 -0.602653
vn -0.929972 -0.21088561 -0.30113
vn -0.072238944 -0.50060636 -0.8626557
vn -0.046969645 -0.46051008 -0.8864109
vn -0.16984057 -0.8934865 -0.41573554
vn 0.13111065 0.8864009 -0.4439634
vn 0.3673543 0.0486469 -0.928808
vn 0.21372436 0.1873865 -0.9587535
vn 0.06930768 -0.2900485 -0.9544989
vn 0.13626686 -0.2274268 -0.9642139
vn -0.7109754 0.09970624 -0.6961125
vn 0.413418 0.3927868 -0.82146466
vn -0.58215255 0.61929435 -0.5268519
vn 0.3367779 0.9238121 0.18207674
vn -0.8120823 0.5776652 -0.08261515
vn -0.76685935 0.6313229 0.11557672
vn -0.040316205 0.5822197 0.81203127
vn 0.116951145 0.87072444 0.47766235
vn -0.5940683 0.48462418 -0.64204544
vn -0.83231926 -0.18644172 -0.52200013
vn 0.24073279 -0.17227899 -0.9551794
vn -0.18595098 -0.951057 -0.24680544
vn 0.3313458 0.6627526 -0.67154217
vn 0.9985299 -0.009247343 -0.05340875
vn 0.8768127 -0.32524166 -0.35414323
vn 0.06930906 0.16266723 -0.98424363
vn 0.2035004 0.19168957 -0.9601264
vn -0.655034 0.14975783 -0.74060994
vn -0.096532606 0.8579896 -0.5045149
vn -0.2968935 0.09418312 -0.95025456
vn -0.20777363 0.7921217 -0.57391053
vn 0.79243207 0.45882624 -0.4019079
vn 0.6932996 0.7181116 -0.060427576
vn 0.51397026 0.8521816 0.09808802
vn 0.92552274 -0.13870938 0.35237372
vn 0.963244 0.16959466 0.20832342
vn 0.9880189 0.14221807 0.05993912
vn 0.97419083 0.02627669 0.22419114
vn 0.12653208 0.7466186 -0.6531082
vn 0.91442263 -0.31496033 0.25422668
vn 0.90748817 -0.357044 0.22132517
vn 0.67132586 -0.7207666 -0.17267635
vn 0.17881526 -0.91254073 -0.36782414
vn 0.800243 -0.578094 0.15943211
vn 0.045686908 -0.6026888 -0.7966674
vn -0.03500529 -0.5801051 -0.81378907
vn 0.93128437 0.0886269 0.35334787
vn 0.9221987 -0.010010298 0.38658676
vn 0.57503647 0.22907463 0.7854031
vn 0.58366066 0.42025763 0.6947833
vn -0.20579182 0.57068086 0.7949674
vn -0.33882523 0.7532468 0.5637525
vn 0.89703417 0.1234784 0.42436162
vn -0.3993433 0.7942919 0.45784858
vn 0.46524116 0.8580898 0.21733028
vn 0.8862192 -0.1804911 -0.4266597
vn 0.24759926 0.207467 -0.94638896
vn -0.5545372 0.5791052 -0.5976
vn 0.50591964 0.12500736 0.8534743
vn -0.08728508 0.28913942 0.95329946
vn 0.0719646 0.7069804 0.70356226
vn -0.17057225 -0.25099057 0.9528425
vn -0.6990684 0.18546402 0.6905842
vn -0.7100444 -0.30968493 0.6324019
vn -0.9947314 -0.086124204 0.05560535
vn -0.89238316 -0.4371579 0.11200569
vn -0.7752186 -0.57034314 -0.27155998
vn -0.6896448 -0.6489015 -0.32142934
vn -0.7157024 -0.68460345 0.13815978
vn -0.50680536 -0.7983879 -0.32515383
vn -0.088322 -0.7963019 -0.5984166
vn 0.12430324 -0.7286984 -0.6734593
vn -0.96720594 0.24274758 0.074740864
vn -0.6896098 0.4140833 0.59411556
vn -0.932855 0.35997596 0.014099947
vn -0.64432365 0.57486165 0.5043621
vn 0.24894896 0.4812647 0.8404812
vn 0.40755457 0.59436315 0.69327617
vn -0.8616246 0.5043031 0.057284974
vn 0.46331146 0.61337423 0.63962066
vn 0.065616824 0.94427186 -0.3225601
vn -0.6526538 -0.039949674 -0.7566023
vn 0.24439414 -0.18286833 -0.9522765
vn 0.9579885 -0.034608446 -0.2847109
vn 0.74290925 0.6179618 0.25731114
vn -0.30598477 0.94554365 0.11099807
vn 0.41091254 0.80867124 -0.4209534
vn 0.9359647 0.13202633 0.3264035
vn 0.829075 0.02615465 0.5585254
vn -0.648533 -0.675634 0.35060456
vn -0.99023634 -0.13525835 0.033723027
vn -0.9307176 -0.33409515 -0.14881228
vn -0.6916843 -0.3867377 0.6099237
vn 0.0305805 -0.7870053 0.6161879
vn -0.016114045 -0.46965727 0.88270175
vn -0.75556654 0.3118463 -0.57608247
vn -0.6464537 0.20575915 -0.7346841
vn -0.023041632 0.6589906 -0.7517981
vn 0.15082447 0.6636643 -0.7326675
vn 0.7006959 -0.22160167 0.67817247
vn 0.7593435 -0.426259 0.49163073
vn 0.9572998 0.27824473 0.07846519
vn 0.65921724 0.127998 0.7409784
vn 0.90516555 0.42210948 0.049990267
vn 0.96931106 0.24424282 0.027955322
vn 0.6570739 0.6400444 -0.39824238
vn 0.606666 0.6543985 -0.45135245
vn -0.044129904 -0.04873821 0.9978363
vn 0.0 0.7549596 -0.6557714
vn -0.79270524 0.4571468 -0.4032805
vn -0.69962084 -0.07284919 0.7107909
vn 0.5907032 0.6521693 -0.47512618
vn -0.98135436 0.073735096 0.1775014
vn 0.6472903 -0.34111765 0.6816554
vn 0.5711133 -0.17432797 0.80214673
vn -0.044558413 -0.51483285 0.8561319
vn -0.60327417 -0.6187475 0.50320154
vn 0.91668206 -0.2693036 0.2952451
vn 0.9440846 -0.2857524 0.1644686
vn 0.55377465 -0.8273506 -0.09393873
vn 0.6239368 -0.63217705 -0.45940718
vn 0.7216281 -0.46441177 -0.5133952
vn 0.94559896 -0.3241417 0.027833277
vn 0.8184004 -0.5625587 -0.117254406
vn 0.95939267 0.1771318 -0.21952258
vn -0.6551243 -0.3846025 -0.6503023
vn -0.03894196 -0.1549133 -0.9871603
vn 0.13452955 -0.08044915 -0.9876385
vn -0.747627 -0.41057375 -0.5219991
vn -0.88950485 -0.45149714 0.07022407
vn -0.88743526 -0.45156103 0.09247297
vn -0.6401216 -0.4673797 0.6097544
vn -0.68223095 -0.4663672 0.5630832
vn 0.024812397 -0.36766905 0.92962563
vn -0.17298256 -0.4152436 0.8931125
vn 0.7071347 0.18769437 -0.68171203
vn 0.6655241 0.16702956 -0.7274468
vn 0.9795019 0.18317403 -0.08380471
vn 0.9868318 0.14435486 0.07297093
vn 0.7393107 -0.08823263 0.6675588
vn 0.56546646 -0.17640306 0.8056859
vt 0.0 0.0
vt 0.0 0.0
vt 0.0 0.0
vt 0.0 0.0
vt 0.0 0.0
vt 0.0 0.0
vt 0.0 0.0
vt 0.0 0.0
vt 0.0 0.0
vt 0.0 0.0
vt 0.0 0.0
vt 0.0 0.0
vt 0.0 0.0
vt 0.0 0.0
vt 0.0 0.0
vt 0.0 0.0
vt 0.0 0.0
vt 0.0 0.0
vt 0.0 0.0
vt 0.0 0.0
vt 0.0 0.0
vt 0.0 0.0
vt 0.0 0.0
vt 0.0 0.0
vt 0.0 0.0
vt 0.0 0.0
vt 0.0 0.0
vt 0.0 0.0
vt 0.0 0.0
vt 0.0 0.0
vt 0.0 0.0
vt 0.0 0.0
vt 0.0 0.0
vt 0.0 0.0
vt 0.0 0.0
vt 0.0 0.0
vt 0.0 0.0
vt 0.0 0.0
vt 0.0 0.0
vt 0.0 0.0
vt 0.0 0.0
vt 0.0 0.0
vt 0.0 0.0
vt 0.0 0.0
vt 0.0 0.0
vt 0.0 0.0
vt 0.0 0.0
vt 0.0 0.0
vt 0.0 0.0
vt 0.0 0.0
vt 0.0 0.0
vt 0.0 0.0
vt 0.0 0.0
vt 0.0 0.0
vt 0.0 0.0
vt 0.0 0.0
vt 0.0 0.0
vt 0.0 0.0
vt 0.0 0.0
vt 0.0 0.0
vt 0.0 0.0
vt 0.0 0.0
vt 0.0 0.0
vt 0.0 0.0
vt 0.0 0.0
vt 0.0 0.0
vt 0.0 0.0
vt 0.0 0.0
vt 0.0 0.0
vt 0.0 0.0
vt 0.0 0.0
vt 0.0 0.0
vt 0.0 0.0
vt 0.0 0.0
vt 0.0 0.0
vt 0.0 0.0
vt 0.0 0.0
vt 0.0 0.0
vt 0.0 0.0
vt 0.0 0.0
vt 0.0 0.0
vt 0.0 0.0
vt 0.0 0.0
vt 0.0 0.0
vt 0.0 0.0
vt 0.0 0.0
vt 0.0 0.0
vt 0.0 0.0
vt 0.0 0.0
vt 0.0 0.0
vt 0.0 0.0
vt 0.0 0.0
vt 0.0 0.0
vt 0.0 0.0
vt 0.0 0.0
vt 0.0 0.0
vt 0.0 0.0
vt 0.0 0.0
vt 0.0 0.0
vt 0.0 0.0
vt 0.0 0.0
vt 0.0 0.0
vt 0.0 0.0
vt 0.0 0.0
vt 0.0 0.0
vt 0.0 0.0
vt 0.0 0.0
vt 0.0 0.0
vt 0.0 0.0
vt 0.0 0.0
vt 0.0 0.0
vt 0.0 0.0
vt 0.0 0.0
vt 0.0 0.0
vt 0.0 0.0
vt 0.0 0.0
vt 0.0 0.0
vt 0.0 0.0
vt 0.0 0.0
vt 0.0 0.0
vt 0.0 0.0
vt 0.0 0.0
vt 0.0 0.0
vt 0.0 0.0
vt 0.0 0.0
vt 0.0 0.0
vt 0.0 0.0
vt 0.0 0.0
vt 0.0 0.0
vt 0.0 0.0
vt 0.0 0.0
vt 0.0 0.0
vt 0.0 0.0
vt 0.0 0.0
vt 0.0 0.0
vt 0.0 0.0
vt 0.0 0.0
vt 0.0 0.0
vt 0.0 0.0
vt 0.0 0.0
vt 0.0 0.0
vt 0.0 0.0
vt 0.0 0.0
vt 0.0 0.0
vt 0.0 0.0
vt 0.0 0.0
vt 0.0 0.0
vt 0.0 0.0
vt 0.0 0.0
vt 0.0 0.0
vt 0.0 0.0
vt 0.0 0.0
vt 0.0 0.0
vt 0.0 0.0
vt 0.0 0.0
vt 0.0 0.0

o messy_pigs_tail
s 1
usemtl messy_pigs_tail_0
f 1/1/1 2/2/2 3/3/3
f 1/1/1 4/4/4 2/2/2
f 5/5/5 1/1/1 3/3/3
f 5/5/5 3/3/3 6/6/6
f 6/6/6 7/7/7 5/5/5
f 3/3/3 8/8/8 6/6/6
f 6/6/6 8/8/8 7/7/7
f 7/7/7 8/8/8 9/9/9
f 10/10/10 9/9/9 8/8/8
f 3/3/3 10/10/10 8/8/8
f 2/2/2 10/10/10 3/3/3
f 10/10/10 11/11/11 9/9/9
f 2/2/2 12/12/12 10/10/10
f 13/13/13 4/4/4 1/1/1
f 13/13/13 1/1/1 5/5/5
f 13/13/13 14/14/14 4/4/4
f 15/15/15 5/5/5 7/7/7
f 5/5/5 15/15/15 16/16/16
f 5/5/5 16/16/16 17/17/17
f 13/13/13 5/5/5 17/17/17
f 7/7/7 9/9/9 18/18/18
f 15/15/15 7/7/7 18/18/18
f 15/15/15 18/18/18 16/16/16
f 19/19/19 9/9/9 11/11/11
f 19/19/19 18/18/18 9/9/9
f 16/16/16 18/18/18 19/19/19
f 20/20/20 16/16/16 19/19/19
f 12/12/12 21/21/21 10/10/10
f 10/10/10 21/21/21 22/22/22
f 10/10/10 22/22/22 11/11/11
f 22/22/22 23/23/23 11/11/11
f 11/11/11 23/23/23 19/19/19
f 24/24/24 23/23/23 22/22/22
f 22/22/22 25/25/25 24/24/24
f 22/22/22 26/26/26 25/25/25
f 26/26/26 27/27/27 25/25/25
f 26/26/26 28/28/28 27/27/27
f 28/28/28 29/29/29 27/27/27
f 30/30/30 22/22/22 21/21/21
f 30/30/30 26/26/26 22/22/22
f 29/29/29 28/28/28 31/31/31
f 31/31/31 26/26/26 30/30/30
f 31/31/31 28/28/28 26/26/26
f 32/32/32 29/29/29 31/31/31
f 30/30/30 32/32/32 31/31/31
f 30/30/30 33/33/33 32/32/32
f 34/34/34 19/19/19 23/23/23
f 34/34/34 35/35/35 19/19/19
f 36/36/36 35/35/35 34/34/34
f 35/35/35 36/36/36 37/37/37
f 19/19/19 35/35/35 37/37/37
f 38/38/38 36/36/36 34/34/34
f 19/19/19 37/37/37 20/20/20
f 23/23/23 38/38/38 34/34/34
f 23/23/23 24/24/24 38/38/38
f 39/39/39 27/27/27 29/29/29
f 40/40/40 27/27/27 39/39/39
f 40/40/40 25/25/25 27/27/27
f 41/41/41 25/25/25 40/40/40
f 41/41/41 24/24/24 25/25/25
f 24/24/24 41/41/41 42/42/42
f 42/42/42 38/38/38 24/24/24
f 41/41/41 43/43/43 42/42/42
f 41/41/41 44/44/44 43/43/43
f 44/44/44 45/45/45 43/43/43
f 44/44/44 46/46/46 45/45/45
f 47/47/47 45/45/45 46/46/46
f 48/48/48 46/46/46 44/44/44
f 48/48/48 49/49/49 46/46/46
f 49/49/49 47/47/47 46/46/46
f 50/50/50 49/49/49 48/48/48
f 49/49/49 50/50/50 47/47/47
f 50/50/50 48/48/48 51/51/51
f 51/51/51 48/48/48 52/52/52
f 52/52/52 48/48/48 44/44/44
f 51/51/51 52/52/52 53/53/53
f 52/52/52 44/44/44 54/54/54
f 55/55/55 51/51/51 53/53/53
f 55/55/55 50/50/50 51/51/51
f 55/55/55 53/53/53 56/56/56
f 57/57/57 47/47/47 50/50/50
f 50/50/50 58/58/58 57/57/57
f 50/50/50 59/59/59 58/58/58
f 55/55/55 59/59/59 50/50/50
f 47/47/47 60/60/60 45/45/45
f 58/58/58 60/60/60 57/57/57
f 57/57/57 60/60/60 47/47/47
f 61/61/61 45/45/45 60/60/60
f 61/61/61 60/60/60 58/58/58
f 58/58/58 20/20/20 61/61/61
f 61/61/61 43/43/43 45/45/45
f 62/62/62 53/53/53 52/52/52
f 62/62/62 63/63/63 53/53/53
f 63/63/63 56/56/56 53/53/53
f 62/62/62 64/64/64 63/63/63
f 62/62/62 65/65/65 64/64/64
f 65/65/65 66/66/66 64/64/64
f 65/65/65 67/67/67 66/66/66
f 68/68/68 67/67/67 65/65/65
f 62/62/62 68/68/68 65/65/65
f 68/68/68 69/69/69 67/67/67
f 69/69/69 68/68/68 70/70/70
f 71/71/71 70/70/70 68/68/68
f 71/71/71 72/72/72 70/70/70
f 70/70/70 72/72/72 73/73/73
f 67/67/67 69/69/69 73/73/73
f 70/70/70 73/73/73 69/69/69
f 62/62/62 52/52/52 68/68/68
f 74/74/74 64/64/64 66/66/66
f 63/63/63 64/64/64 74/74/74
f 74/74/74 66/66/66 75/75/75
f 76/76/76 75/75/75 66/66/66
f 77/77/77 74/74/74 75/75/75
f 77/77/77 75/75/75 78/78/78
f 77/77/77 78/78/78 79/79/79
f 79/79/79 78/78/78 80/80/80
f 79/79/79 80/80/80 81/81/81
f 82/82/82 81/81/81 80/80/80
f 82/82/82 83/83/83 81/81/81
f 83/83/83 84/84/84 81/81/81
f 83/83/83 85/85/85 84/84/84
f 86/86/86 85/85/85 83/83/83
f 86/86/86 87/87/87 85/85/85
f 20/20/20 83/83/83 82/82/82
f 20/20/20 86/86/86 83/83/83
f 88/88/88 80/80/80 78/78/78
f 88/88/88 78/78/78 89/89/89
f 90/90/90 88/88/88 89/89/89
f 90/90/90 89/89/89 91/91/91
f 91/91/91 89/89/89 92/92/92
f 78/78/78 92/92/92 89/89/89
f 91/91/91 92/92/92 93/93/93
f 94/94/94 91/91/91 93/93/93
f 90/90/90 91/91/91 94/94/94
f 94/94/94 93/93/93 95/95/95
f 95/95/95 96/96/96 94/94/94
f 90/90/90 4/4/4 88/88/88
f 90/90/90 2/2/2 4/4/4
f 90/90/90 94/94/94 2/2/2
f 97/97/97 94/94/94 96/96/96
f 97/97/97 96/96/96 98/98/98
f 96/96/96 99/99/99 98/98/98
f 93/93/93 99/99/99 95/95/95
f 96/96/96 95/95/95 99/99/99
f 88/88/88 4/4/4 14/14/14
f 88/88/88 14/14/14 80/80/80
f 12/12/12 98/98/98 99/99/99
f 12/12/12 97/97/97 98/98/98
f 94/94/94 12/12/12 2/2/2
f 94/94/94 97/97/97 12/12/12
f 12/12/12 99/99/99 100/100/100
f 93/93/93 100/100/100 99/99/99
f 92/92/92 100/100/100 93/93/93
f 80/80/80 14/14/14 82/82/82
f 82/82/82 14/14/14 13/13/13
f 82/82/82 13/13/13 17/17/17
f 17/17/17 16/16/16 82/82/82
f 21/21/21 12/12/12 100/100/100
f 100/100/100 30/30/30 21/21/21
f 100/100/100 33/33/33 30/30/30
f 100/100/100 76/76/76 33/33/33
f 92/92/92 76/76/76 100/100/100
f 76/76/76 92/92/92 75/75/75
f 78/78/78 75/75/75 92/92/92
f 101/101/101 33/33/33 76/76/76
f 66/66/66 101/101/101 76/76/76
f 66/66/66 67/67/67 101/101/101
f 67/67/67 73/73/73 101/101/101
f 54/54/54 101/101/101 73/73/73
f 54/54/54 73/73/73 72/72/72
f 54/54/54 72/72/72 71/71/71
f 68/68/68 54/54/54 71/71/71
f 68/68/68 52/52/52 54/54/54
f 102/102/102 101/101/101 54/54/54
f 54/54/54 44/44/44 102/102/102
f 102/102/102 44/44/44 41/41/41
f 103/103/103 102/102/102 41/41/41
f 101/101/101 102/102/102 103/103/103
f 103/103/103 41/41/41 40/40/40
f 104/104/104 103/103/103 40/40/40
f 104/104/104 40/40/40 39/39/39
f 29/29/29 104/104/104 39/39/39
f 32/32/32 104/104/104 29/29/29
f 103/103/103 104/104/104 32/32/32
f 103/103/103 32/32/32 33/33/33
f 101/101/101 103/103/103 33/33/33
f 105/105/105 106/106/106 107/107/107
f 105/105/105 108/108/108 106/106/106
f 109/109/109 108/108/108 105/105/105
f 109/109/109 110/110/110 108/108/108
f 107/107/107 106/106/106 111/111/111
f 107/107/107 111/111/111 112/112/112
f 112/112/112 111/111/111 113/113/113
f 112/112/112 113/113/113 114/114/114
f 109/109/109 115/115/115 110/110/110
f 109/109/109 116/116/116 115/115/115
f 116/116/116 117/117/117 115/115/115
f 117/117/117 118/118/118 115/115/115
f 117/117/117 119/119/119 118/118/118
f 116/116/116 120/120/120 117/117/117
f 121/121/121 114/114/114 113/113/113
f 121/121/121 113/113/113 122/122/122
f 120/120/120 122/122/122 117/117/117
f 120/120/120 121/121/121 122/122/122
f 122/122/122 119/119/119 117/117/117
f 115/115/115 123/123/123 110/110/110
f 115/115/115 118/118/118 123/123/123
f 111/111/111 124/124/124 113/113/113
f 111/111/111 125/125/125 124/124/124
f 110/110/110 123/123/123 126/126/126
f 122/122/122 127/127/127 119/119/119
f 113/113/113 127/127/127 122/122/122
f 113/113/113 124/124/124 127/127/127
f 110/110/110 126/126/126 108/108/108
f 108/108/108 126/126/126 128/128/128
f 108/108/108 128/128/128 106/106/106
f 106/106/106 128/128/128 125/125/125
f 106/106/106 125/125/125 111/111/111
f 77/77/77 129/129/129 130/130/130
f 77/77/77 131/131/131 129/129/129
f 79/79/79 131/131/131 77/77/77
f 79/79/79 132/132/132 131/131/131
f 81/81/81 132/132/132 79/79/79
f 81/81/81 84/84/84 132/132/132
f 77/77/77 130/130/130 74/74/74
f 130/130/130 133/133/133 74/74/74
f 130/130/130 134/134/134 133/133/133
f 134/134/134 135/135/135 133/133/133
f 134/134/134 136/136/136 135/135/135
f 136/136/136 20/20/20 135/135/135
f 136/136/136 86/86/86 20/20/20
f 63/63/63 74/74/74 133/133/133
f 63/63/63 133/133/133 56/56/56
f 133/133/133 135/135/135 56/56/56
f 55/55/55 56/56/56 135/135/135
f 55/55/55 135/135/135 59/59/59
f 59/59/59 135/135/135 58/58/58
f 135/135/135 20/20/20 58/58/58
f 134/134/134 137/137/137 136/136/136
f 134/134/134 138/138/138 137/137/137
f 130/130/130 138/138/138 134/134/134
f 130/130/130 129/129/129 138/138/138
f 136/136/136 87/87/87 86/86/86
f 136/136/136 137/137/137 87/87/87
f 61/61/61 20/20/20 37/37/37
f 61/61/61 37/37/37 139/139/139
f 139/139/139 37/37/37 36/36/36
f 140/140/140 61/61/61 139/139/139
f 36/36/36 140/140/140 139/139/139
f 140/140/140 42/42/42 61/61/61
f 43/43/43 61/61/61 42/42/42
f 38/38/38 140/140/140 36/36/36
f 42/42/42 140/140/140 38/38/38
f 82/82/82 16/16/16 20/20/20

usemtl messy_pigs_tail_1
f 141/141/141 142/142/142 143/143/143
f 141/141/141 144/144/144 142/142/142
f 145/145/145 144/144/144 141/141/141
f 145/145/145 146/146/146 144/144/144
f 147/147/147 146/146/146 145/145/145
f 147/147/147 148/148/148 146/146/146
f 149/149/149 148/148/148 147/147/147
f 149/149/149 150/150/150 148/148/148
f 151/151/151 143/143/143 142/142/142
f 151/151/151 142/142/142 152/152/152
f 153/153/153 151/151/151 152/152/152
f 153/153/153 152/152/152 154/154/154
f 155/155/155 153/153/153 154/154/154
f 155/155/155 154/154/154 156/156/156
f 149/149/149 156/156/156 150/150/150
f 149/149/149 155/155/155 156/156/156

