# Created by DisUnity v0.2.1
v -8.6384E-4 0.01489661 0.00218473
v 0.0 0.013021249 0.00183539
v 0.0 0.01481945 0.00253622
v -6.314E-4 0.013176209 0.00162217
v -8.9498E-4 0.013550309 0.00110743
v -0.00122369 0.0150829 0.0013361799
v -6.314E-4 0.013176209 0.00162217
v -8.6384E-4 0.01489661 0.00218473
v -0.00155603 0.01697164 5.1366E-4
v -0.0010984499 0.0175286 0.00146769
v 0.0 0.013021249 0.00183539
v 8.6384E-4 0.01489661 0.00218473
v 0.0 0.01481945 0.00253622
v 6.314E-4 0.013176209 0.00162217
v 8.9498E-4 0.013550309 0.00110743
v 0.00122369 0.0150829 0.0013361799
v 6.314E-4 0.013176209 0.00162217
v -8.9498E-4 0.013550309 0.00110743
v -8.6384E-4 0.01526919 4.8762E-4
v -6.314E-4 0.01392442 5.9268996E-4
v -8.9498E-4 0.013550309 0.00110743
v -0.00122369 0.0150829 0.0013361799
v 8.6384E-4 0.01526919 4.8762E-4
v 8.9498E-4 0.013550309 0.00110743
v 6.314E-4 0.01392442 5.9268996E-4
v 0.00122369 0.0150829 0.0013361799
v 8.9498E-4 0.013550309 0.00110743
v -6.314E-4 0.01392442 5.9268996E-4
v 0.0 0.015346349 1.3613E-4
v 0.0 0.01407938 3.7948E-4
v -8.6384E-4 0.01526919 4.8762E-4
v 0.0 0.015346349 1.3613E-4
v 6.314E-4 0.01392442 5.9268996E-4
v 0.0 0.01407938 3.7948E-4
v 8.6384E-4 0.01526919 4.8762E-4
v -5.062E-4 0.0128672095 -3.802E-5
v 0.0 0.01407938 3.7948E-4
v 0.0 0.01299168 -2.0927998E-4
v -6.314E-4 0.01392442 5.9268996E-4
v 0.0 0.01407938 3.7948E-4
v 5.062E-4 0.0128672095 -3.802E-5
v 0.0 0.01299168 -2.0927998E-4
v 6.314E-4 0.01392442 5.9268996E-4
v -7.1791996E-4 0.012566709 3.7544998E-4
v -6.314E-4 0.01392442 5.9268996E-4
v -5.062E-4 0.0128672095 -3.802E-5
v -8.9498E-4 0.013550309 0.00110743
v 6.314E-4 0.01392442 5.9268996E-4
v 7.1791996E-4 0.012566709 3.7544998E-4
v 5.062E-4 0.0128672095 -3.802E-5
v 8.9498E-4 0.013550309 0.00110743
v -7.1791996E-4 0.012566709 3.7544998E-4
v -6.314E-4 0.013176209 0.00162217
v -8.9498E-4 0.013550309 0.00110743
v -5.062E-4 0.01226621 7.8891E-4
v 0.0 0.01214174 9.6018E-4
v -5.062E-4 0.01226621 7.8891E-4
v 0.0 0.013021249 0.00183539
v 6.314E-4 0.013176209 0.00162217
v 7.1791996E-4 0.012566709 3.7544998E-4
v 8.9498E-4 0.013550309 0.00110743
v 5.062E-4 0.01226621 7.8891E-4
v 0.0 0.01214174 9.6018E-4
v 5.062E-4 0.01226621 7.8891E-4
v 0.0 0.013021249 0.00183539
v 8.6384E-4 0.01526919 4.8762E-4
v 0.00155603 0.01697164 5.1366E-4
v 0.00122369 0.0150829 0.0013361799
v 0.0010984499 0.01641468 -4.4036997E-4
v -0.00122369 0.0150829 0.0013361799
v -0.0010984499 0.01641468 -4.4036997E-4
v -8.6384E-4 0.01526919 4.8762E-4
v -0.00155603 0.01697164 5.1366E-4
v 0.0 0.015346349 1.3613E-4
v 0.0010984499 0.01641468 -4.4036997E-4
v 8.6384E-4 0.01526919 4.8762E-4
v 0.0 0.01618398 -8.3554996E-4
v -8.6384E-4 0.01526919 4.8762E-4
v 0.0 0.01618398 -8.3554996E-4
v 0.0 0.015346349 1.3613E-4
v -0.0010984499 0.01641468 -4.4036997E-4
v 0.00122369 0.0150829 0.0013361799
v 0.0010984499 0.0175286 0.00146769
v 8.6384E-4 0.01489661 0.00218473
v 0.00155603 0.01697164 5.1366E-4
v 8.6384E-4 0.01489661 0.00218473
v 0.0 0.0177593 0.0018628599
v 0.0 0.01481945 0.00253622
v 0.0010984499 0.0175286 0.00146769
v 0.0 0.0177593 0.0018628599
v -0.00133811 0.01951534 -4.4720998E-4
v -0.0010984499 0.0175286 0.00146769
v 0.0 0.01977402 8.097E-5
v 0.0 0.01481945 0.00253622
v -0.0010984499 0.0175286 0.00146769
v -8.6384E-4 0.01489661 0.00218473
v 0.0 0.0177593 0.0018628599
v 0.0010984499 0.0175286 0.00146769
v 0.0 0.01977402 8.097E-5
v 0.0 0.0177593 0.0018628599
v 0.00133811 0.01951534 -4.4720998E-4
v -0.0010984499 0.0175286 0.00146769
v -0.0018955299 0.01815972 -0.0018320299
v -0.00155603 0.01697164 5.1366E-4
v -0.00133811 0.01951534 -4.4720998E-4
v 0.00155603 0.01697164 5.1366E-4
v 0.00133811 0.01951534 -4.4720998E-4
v 0.0010984499 0.0175286 0.00146769
v 0.0018955299 0.01815972 -0.0018320299
v -0.0010984499 0.01641468 -4.4036997E-4
v 0.0 0.017276509 -0.00363538
v 0.0 0.01618398 -8.3554996E-4
v -0.00133811 0.0175352 -0.0031071901
v 0.0 0.01618398 -8.3554996E-4
v 0.00133811 0.0175352 -0.0031071901
v 0.0010984499 0.01641468 -4.4036997E-4
v 0.0 0.017276509 -0.00363538
v -0.00155603 0.01697164 5.1366E-4
v -0.00133811 0.0175352 -0.0031071901
v -0.0010984499 0.01641468 -4.4036997E-4
v -0.0018955299 0.01815972 -0.0018320299
v 0.0010984499 0.01641468 -4.4036997E-4
v 0.0018955299 0.01815972 -0.0018320299
v 0.00155603 0.01697164 5.1366E-4
v 0.00133811 0.0175352 -0.0031071901
v 0.00133811 0.0175352 -0.0031071901
v 0.00245039 0.01987058 -0.0068186596
v 0.0018955299 0.01815972 -0.0018320299
v 0.0017297899 0.01855139 -0.00951222
v -0.0018955299 0.01815972 -0.0018320299
v -0.0017297899 0.01855139 -0.00951222
v -0.00133811 0.0175352 -0.0031071901
v -0.00245039 0.01987058 -0.0068186596
v 0.0 0.017276509 -0.00363538
v 0.0017297899 0.01855139 -0.00951222
v 0.00133811 0.0175352 -0.0031071901
v 0.0 0.01800496 -0.01062793
v -0.00133811 0.0175352 -0.0031071901
v 0.0 0.01800496 -0.01062793
v 0.0 0.017276509 -0.00363538
v -0.0017297899 0.01855139 -0.00951222
v 0.00144641 0.01881728 -0.00946919
v 0.0017297899 0.01855139 -0.00951222
v 0.0 0.01836037 -0.01040212
v 0.0018955299 0.01815972 -0.0018320299
v 0.0017297899 0.021189779 -0.00412509
v 0.00133811 0.01951534 -4.4720998E-4
v 0.00245039 0.01987058 -0.0068186596
v -0.00133811 0.01951534 -4.4720998E-4
v -0.00245039 0.01987058 -0.0068186596
v -0.0018955299 0.01815972 -0.0018320299
v -0.0017297899 0.021189779 -0.00412509
v 0.00133811 0.01951534 -4.4720998E-4
v 0.0 0.021736208 -0.0030093899
v 0.0 0.01977402 8.097E-5
v 0.0017297899 0.021189779 -0.00412509
v 0.0 0.01977402 8.097E-5
v -0.0017297899 0.021189779 -0.00412509
v -0.00133811 0.01951534 -4.4720998E-4
v 0.0 0.021736208 -0.0030093899
v 0.0 0.021736208 -0.0030093899
v -0.00144641 0.021023449 -0.0049646
v -0.0017297899 0.021189779 -0.00412509
v 0.0 0.02148036 -0.00403167
v 0.0017297899 0.021189779 -0.00412509
v 0.0 0.02148036 -0.00403167
v 0.0 0.021736208 -0.0030093899
v 0.00144641 0.021023449 -0.0049646
v -0.0017297899 0.021189779 -0.00412509
v -0.00204896 0.01992036 -0.00721689
v -0.00245039 0.01987058 -0.0068186596
v -0.00144641 0.021023449 -0.0049646
v 0.00245039 0.01987058 -0.0068186596
v 0.00144641 0.021023449 -0.0049646
v 0.0017297899 0.021189779 -0.00412509
v 0.00204896 0.01992036 -0.00721689
v -0.0017297899 0.01855139 -0.00951222
v 0.0 0.01836037 -0.01040212
v 0.0 0.01800496 -0.01062793
v -0.00144641 0.01881728 -0.00946919
v -0.00245039 0.01987058 -0.0068186596
v -0.00144641 0.01881728 -0.00946919
v -0.0017297899 0.01855139 -0.00951222
v -0.00204896 0.01992036 -0.00721689
v 0.0017297899 0.01855139 -0.00951222
v 0.00204896 0.01992036 -0.00721689
v 0.00245039 0.01987058 -0.0068186596
v 0.00144641 0.01881728 -0.00946919
v -0.00144641 0.01881728 -0.00946919
v 0.00144641 0.01881728 -0.00946919
v 0.0 0.01836037 -0.01040212
v -0.00144641 0.021023449 -0.0049646
v 0.00204896 0.01992036 -0.00721689
v -0.00204896 0.01992036 -0.00721689
v 0.00144641 0.021023449 -0.0049646
v 0.0 0.02148036 -0.00403167
v 0.00144641 0.021023449 -0.0049646
v -0.00144641 0.021023449 -0.0049646
v -0.00204896 0.01992036 -0.00721689
v 0.00144641 0.01881728 -0.00946919
v -0.00144641 0.01881728 -0.00946919
v 0.00204896 0.01992036 -0.00721689
vn -0.67951393 -0.08377569 0.7288637
vn 0.0 -0.5473259 0.83691967
vn 0.0 -0.08069131 0.9967391
vn -0.6797614 -0.43072206 0.59363526
vn -0.98484695 -0.17215748 -0.020936009
vn -0.98623604 -0.15702258 0.0517915
vn -0.6797614 -0.43072206 0.59363526
vn -0.67951393 -0.08377569 0.7288637
vn -0.9883337 -0.106359415 0.10901456
vn -0.68954426 0.30943123 0.65481377
vn 0.0 -0.5473259 0.83691967
vn 0.67951393 -0.08377569 0.7288637
vn 0.0 -0.08069131 0.9967391
vn 0.6797614 -0.43072206 0.59363526
vn 0.98484695 -0.17215748 -0.020936009
vn 0.98623604 -0.15702258 0.0517915
vn 0.6797614 -0.43072206 0.59363526
vn -0.98484695 -0.17215748 -0.020936009
vn -0.6895551 -0.36730087 -0.6241826
vn -0.71833026 0.04983784 -0.6939148
vn -0.98484695 -0.17215748 -0.020936009
vn -0.98623604 -0.15702258 0.0517915
vn 0.6895551 -0.36730087 -0.6241826
vn 0.98484695 -0.17215748 -0.020936009
vn 0.71833026 0.04983784 -0.6939148
vn 0.98623604 -0.15702258 0.0517915
vn 0.98484695 -0.17215748 -0.020936009
vn -0.71833026 0.04983784 -0.6939148
vn 0.0 -0.5029238 -0.8643307
vn 0.0 0.12821051 -0.9917469
vn -0.6895551 -0.36730087 -0.6241826
vn 0.0 -0.5029238 -0.8643307
vn 0.71833026 0.04983784 -0.6939148
vn 0.0 0.12821051 -0.9917469
vn 0.6895551 -0.36730087 -0.6241826
vn -0.70031816 0.30280894 -0.64642173
vn 0.0 0.12821051 -0.9917469
vn 0.0 0.47585145 -0.87952566
vn -0.71833026 0.04983784 -0.6939148
vn 0.0 0.12821051 -0.9917469
vn 0.70031816 0.30280894 -0.64642173
vn 0.0 0.47585145 -0.87952566
vn 0.71833026 0.04983784 -0.6939148
vn -0.98973304 -0.11392765 -0.0863079
vn -0.71833026 0.04983784 -0.6939148
vn -0.70031816 0.30280894 -0.64642173
vn -0.98484695 -0.17215748 -0.020936009
vn 0.71833026 0.04983784 -0.6939148
vn 0.98973304 -0.11392765 -0.0863079
vn 0.70031816 0.30280894 -0.64642173
vn 0.98484695 -0.17215748 -0.020936009
vn -0.98973304 -0.11392765 -0.0863079
vn -0.6797614 -0.43072206 0.59363526
vn -0.98484695 -0.17215748 -0.020936009
vn -0.70157415 -0.53127736 0.47490847
vn 0.0 -0.7055027 0.7087072
vn -0.70157415 -0.53127736 0.47490847
vn 0.0 -0.5473259 0.83691967
vn 0.6797614 -0.43072206 0.59363526
vn 0.98973304 -0.11392765 -0.0863079
vn 0.98484695 -0.17215748 -0.020936009
vn 0.70157415 -0.53127736 0.47490847
vn 0.0 -0.7055027 0.7087072
vn 0.70157415 -0.53127736 0.47490847
vn 0.0 -0.5473259 0.83691967
vn 0.6895551 -0.36730087 -0.6241826
vn 0.9883337 -0.106359415 0.10901456
vn 0.98623604 -0.15702258 0.0517915
vn 0.6715493 -0.63977855 -0.37377134
vn -0.98623604 -0.15702258 0.0517915
vn -0.6715493 -0.63977855 -0.37377134
vn -0.6895551 -0.36730087 -0.6241826
vn -0.9883337 -0.106359415 0.10901456
vn 0.0 -0.5029238 -0.8643307
vn 0.6715493 -0.63977855 -0.37377134
vn 0.6895551 -0.36730087 -0.6241826
vn 0.0 -0.8513911 -0.5245316
vn -0.6895551 -0.36730087 -0.6241826
vn 0.0 -0.8513911 -0.5245316
vn 0.0 -0.5029238 -0.8643307
vn -0.6715493 -0.63977855 -0.37377134
vn 0.98623604 -0.15702258 0.0517915
vn 0.68954426 0.30943123 0.65481377
vn 0.67951393 -0.08377569 0.7288637
vn 0.9883337 -0.106359415 0.10901456
vn 0.67951393 -0.08377569 0.7288637
vn 0.0 0.46205693 0.88685024
vn 0.0 -0.08069131 0.9967391
vn 0.68954426 0.30943123 0.65481377
vn 0.0 0.46205693 0.88685024
vn -0.73282844 0.5177592 0.4414611
vn -0.68954426 0.30943123 0.65481377
vn 0.0 0.76465464 0.6444402
vn 0.0 -0.08069131 0.9967391
vn -0.68954426 0.30943123 0.65481377
vn -0.67951393 -0.08377569 0.7288637
vn 0.0 0.46205693 0.88685024
vn 0.68954426 0.30943123 0.65481377
vn 0.0 0.76465464 0.6444402
vn 0.0 0.46205693 0.88685024
vn 0.73282844 0.5177592 0.4414611
vn -0.68954426 0.30943123 0.65481377
vn -0.9864413 -0.15070377 0.06497536
vn -0.9883337 -0.106359415 0.10901456
vn -0.73282844 0.5177592 0.4414611
vn 0.9883337 -0.106359415 0.10901456
vn 0.73282844 0.5177592 0.4414611
vn 0.68954426 0.30943123 0.65481377
vn 0.9864413 -0.15070377 0.06497536
vn -0.6715493 -0.63977855 -0.37377134
vn 0.0 -0.975628 -0.21943083
vn 0.0 -0.8513911 -0.5245316
vn -0.648727 -0.74288034 -0.16517268
vn 0.0 -0.8513911 -0.5245316
vn 0.648727 -0.74288034 -0.16517268
vn 0.6715493 -0.63977855 -0.37377134
vn 0.0 -0.975628 -0.21943083
vn -0.9883337 -0.106359415 0.10901456
vn -0.648727 -0.74288034 -0.16517268
vn -0.6715493 -0.63977855 -0.37377134
vn -0.9864413 -0.15070377 0.06497536
vn 0.6715493 -0.63977855 -0.37377134
vn 0.9864413 -0.15070377 0.06497536
vn 0.9883337 -0.106359415 0.10901456
vn 0.648727 -0.74288034 -0.16517268
vn 0.648727 -0.74288034 -0.16517268
vn 0.9321636 0.2898057 -0.21698806
vn 0.9864413 -0.15070377 0.06497536
vn 0.7685033 -0.2282529 -0.5977485
vn -0.9864413 -0.15070377 0.06497536
vn -0.7685033 -0.2282529 -0.5977485
vn -0.648727 -0.74288034 -0.16517268
vn -0.9321636 0.2898057 -0.21698806
vn 0.0 -0.975628 -0.21943083
vn 0.7685033 -0.2282529 -0.5977485
vn 0.648727 -0.74288034 -0.16517268
vn 0.0 -0.44161367 -0.89720523
vn -0.648727 -0.74288034 -0.16517268
vn 0.0 -0.44161367 -0.89720523
vn 0.0 -0.975628 -0.21943083
vn -0.7685033 -0.2282529 -0.5977485
vn 0.28932527 0.75007886 -0.59470385
vn 0.7685033 -0.2282529 -0.5977485
vn 0.0 0.6765175 -0.7364266
vn 0.9864413 -0.15070377 0.06497536
vn 0.66436476 0.7454228 0.05444562
vn 0.73282844 0.5177592 0.4414611
vn 0.9321636 0.2898057 -0.21698806
vn -0.73282844 0.5177592 0.4414611
vn -0.9321636 0.2898057 -0.21698806
vn -0.9864413 -0.15070377 0.06497536
vn -0.66436476 0.7454228 0.05444562
vn 0.73282844 0.5177592 0.4414611
vn 0.0 0.9695218 0.24500507
vn 0.0 0.76465464 0.6444402
vn 0.66436476 0.7454228 0.05444562
vn 0.0 0.76465464 0.6444402
vn -0.66436476 0.7454228 0.05444562
vn -0.73282844 0.5177592 0.4414611
vn 0.0 0.9695218 0.24500507
vn 0.0 0.9695218 0.24500507
vn -0.20206803 0.91344154 -0.35326046
vn -0.66436476 0.7454228 0.05444562
vn 0.0 0.952535 -0.3044291
vn 0.66436476 0.7454228 0.05444562
vn 0.0 0.952535 -0.3044291
vn 0.0 0.9695218 0.24500507
vn 0.20206803 0.91344154 -0.35326046
vn -0.66436476 0.7454228 0.05444562
vn -0.30537507 0.8391253 -0.45012757
vn -0.9321636 0.2898057 -0.21698806
vn -0.20206803 0.91344154 -0.35326046
vn 0.9321636 0.2898057 -0.21698806
vn 0.20206803 0.91344154 -0.35326046
vn 0.66436476 0.7454228 0.05444562
vn 0.30537507 0.8391253 -0.45012757
vn -0.7685033 -0.2282529 -0.5977485
vn 0.0 0.6765175 -0.7364266
vn 0.0 -0.44161367 -0.89720523
vn -0.28932527 0.75007886 -0.59470385
vn -0.9321636 0.2898057 -0.21698806
vn -0.28932527 0.75007886 -0.59470385
vn -0.7685033 -0.2282529 -0.5977485
vn -0.30537507 0.8391253 -0.45012757
vn 0.7685033 -0.2282529 -0.5977485
vn 0.30537507 0.8391253 -0.45012757
vn 0.9321636 0.2898057 -0.21698806
vn 0.28932527 0.75007886 -0.59470385
vn -0.28932527 0.75007886 -0.59470385
vn 0.28932527 0.75007886 -0.59470385
vn 0.0 0.6765175 -0.7364266
vn -0.20206803 0.91344154 -0.35326046
vn 0.30537507 0.8391253 -0.45012757
vn -0.30537507 0.8391253 -0.45012757
vn 0.20206803 0.91344154 -0.35326046
vn 0.0 0.952535 -0.3044291
vn 0.20206803 0.91344154 -0.35326046
vn -0.20206803 0.91344154 -0.35326046
vn -0.30537507 0.8391253 -0.45012757
vn 0.28932527 0.75007886 -0.59470385
vn -0.28932527 0.75007886 -0.59470385
vn 0.30537507 0.8391253 -0.45012757
vt 1.0 1.0
vt 0.0 0.0
vt 0.0 1.0
vt 1.0 0.0
vt 0.0 0.0
vt 1.0 0.0
vt 0.0 1.0
vt 0.0 0.0
vt 1.0 1.0
vt 0.0 1.0
vt 0.0 0.0
vt 1.0 1.0
vt 0.0 1.0
vt 1.0 0.0
vt 0.0 0.0
vt 1.0 0.0
vt 0.0 1.0
vt 0.0 0.0
vt 1.0 1.0
vt 1.0 0.0
vt 0.0 0.0
vt 0.0 1.0
vt 1.0 1.0
vt 0.0 0.0
vt 1.0 0.0
vt 0.0 1.0
vt 0.0 0.0
vt 0.0 0.0
vt 1.0 1.0
vt 1.0 0.0
vt 0.0 1.0
vt 1.0 1.0
vt 0.0 0.0
vt 1.0 0.0
vt 0.0 1.0
vt 0.0 0.0
vt 1.0 1.0
vt 1.0 0.0
vt 0.0 1.0
vt 1.0 1.0
vt 0.0 0.0
vt 1.0 0.0
vt 0.0 1.0
vt 0.0 0.0
vt 1.0 1.0
vt 1.0 0.0
vt 0.0 1.0
vt 1.0 1.0
vt 0.0 0.0
vt 1.0 0.0
vt 0.0 1.0
vt 0.0 0.0
vt 1.0 1.0
vt 1.0 0.0
vt 0.0 1.0
vt 0.0 0.0
vt 1.0 0.0
vt 0.0 1.0
vt 1.0 1.0
vt 0.0 0.0
vt 1.0 0.0
vt 0.0 1.0
vt 0.0 0.0
vt 1.0 0.0
vt 0.0 1.0
vt 1.0 1.0
vt 0.0 0.0
vt 1.0 0.0
vt 0.0 1.0
vt 0.0 0.0
vt 1.0 1.0
vt 1.0 0.0
vt 0.0 1.0
vt 1.0 1.0
vt 0.0 0.0
vt 1.0 0.0
vt 0.0 1.0
vt 0.0 0.0
vt 1.0 1.0
vt 1.0 0.0
vt 0.0 1.0
vt 1.0 1.0
vt 0.0 0.0
vt 1.0 0.0
vt 0.0 1.0
vt 0.0 0.0
vt 1.0 1.0
vt 0.0 1.0
vt 1.0 0.0
vt 1.0 1.0
vt 0.0 0.0
vt 0.0 1.0
vt 1.0 0.0
vt 1.0 1.0
vt 0.0 0.0
vt 0.0 1.0
vt 1.0 0.0
vt 0.0 0.0
vt 1.0 1.0
vt 0.0 1.0
vt 1.0 0.0
vt 0.0 0.0
vt 1.0 1.0
vt 1.0 0.0
vt 0.0 1.0
vt 1.0 1.0
vt 0.0 0.0
vt 1.0 0.0
vt 0.0 1.0
vt 0.0 0.0
vt 1.0 1.0
vt 1.0 0.0
vt 0.0 1.0
vt 1.0 1.0
vt 0.0 0.0
vt 1.0 0.0
vt 0.0 1.0
vt 0.0 0.0
vt 1.0 1.0
vt 1.0 0.0
vt 0.0 1.0
vt 1.0 1.0
vt 0.0 0.0
vt 1.0 0.0
vt 0.0 1.0
vt 1.0 1.0
vt 0.0 0.0
vt 1.0 0.0
vt 0.0 1.0
vt 0.0 0.0
vt 1.0 1.0
vt 1.0 0.0
vt 0.0 1.0
vt 1.0 1.0
vt 0.0 0.0
vt 1.0 0.0
vt 0.0 1.0
vt 0.0 0.0
vt 1.0 1.0
vt 1.0 0.0
vt 0.0 1.0
vt 0.0 0.0
vt 1.0 0.0
vt 0.0 1.0
vt 1.0 1.0
vt 0.0 0.0
vt 1.0 0.0
vt 0.0 1.0
vt 0.0 0.0
vt 1.0 1.0
vt 1.0 0.0
vt 0.0 1.0
vt 0.0 0.0
vt 1.0 1.0
vt 0.0 1.0
vt 1.0 0.0
vt 1.0 1.0
vt 0.0 0.0
vt 0.0 1.0
vt 1.0 0.0
vt 1.0 1.0
vt 0.0 0.0
vt 0.0 1.0
vt 1.0 0.0
vt 0.0 0.0
vt 1.0 1.0
vt 0.0 1.0
vt 1.0 0.0
vt 0.0 0.0
vt 1.0 1.0
vt 1.0 0.0
vt 0.0 1.0
vt 1.0 1.0
vt 0.0 0.0
vt 1.0 0.0
vt 0.0 1.0
vt 0.0 0.0
vt 1.0 1.0
vt 1.0 0.0
vt 0.0 1.0
vt 0.0 0.0
vt 1.0 1.0
vt 1.0 0.0
vt 0.0 1.0
vt 1.0 1.0
vt 0.0 0.0
vt 1.0 0.0
vt 0.0 1.0
vt 0.0 0.0
vt 1.0 0.0
vt 1.0 1.0
vt 0.0 0.0
vt 1.0 1.0
vt 1.0 0.0
vt 0.0 1.0
vt 0.0 0.0
vt 1.0 1.0
vt 1.0 0.0
vt 0.0 0.0
vt 1.0 1.0
vt 0.0 1.0
vt 1.0 0.0

o Plane_016
s 1
usemtl Plane_016_0
f 1/1/1 2/2/2 3/3/3
f 1/1/1 4/4/4 2/2/2
f 5/5/5 1/1/1 6/6/6
f 5/5/5 7/7/7 1/1/1
f 8/8/8 9/9/9 6/6/6
f 8/8/8 10/10/10 9/9/9
f 11/11/11 12/12/12 13/13/13
f 11/11/11 14/14/14 12/12/12
f 12/12/12 15/15/15 16/16/16
f 12/12/12 17/17/17 15/15/15
f 18/18/18 19/19/19 20/20/20
f 21/21/21 22/22/22 19/19/19
f 23/23/23 24/24/24 25/25/25
f 23/23/23 26/26/26 27/27/27
f 28/28/28 29/29/29 30/30/30
f 28/28/28 31/31/31 29/29/29
f 32/32/32 33/33/33 34/34/34
f 32/32/32 35/35/35 33/33/33
f 36/36/36 37/37/37 38/38/38
f 36/36/36 39/39/39 37/37/37
f 40/40/40 41/41/41 42/42/42
f 40/40/40 43/43/43 41/41/41
f 44/44/44 45/45/45 46/46/46
f 44/44/44 47/47/47 45/45/45
f 48/48/48 49/49/49 50/50/50
f 48/48/48 51/51/51 49/49/49
f 52/52/52 53/53/53 54/54/54
f 52/52/52 55/55/55 53/53/53
f 56/56/56 53/53/53 57/57/57
f 56/56/56 58/58/58 53/53/53
f 59/59/59 60/60/60 61/61/61
f 59/59/59 62/62/62 60/60/60
f 59/59/59 63/63/63 64/64/64
f 59/59/59 65/65/65 63/63/63
f 66/66/66 67/67/67 68/68/68
f 66/66/66 69/69/69 67/67/67
f 70/70/70 71/71/71 72/72/72
f 70/70/70 73/73/73 71/71/71
f 74/74/74 75/75/75 76/76/76
f 74/74/74 77/77/77 75/75/75
f 78/78/78 79/79/79 80/80/80
f 78/78/78 81/81/81 79/79/79
f 82/82/82 83/83/83 84/84/84
f 82/82/82 85/85/85 83/83/83
f 86/86/86 87/87/87 88/88/88
f 86/86/86 89/89/89 90/90/90
f 87/87/87 91/91/91 92/92/92
f 87/87/87 93/93/93 91/91/91
f 94/94/94 95/95/95 96/96/96
f 94/94/94 97/97/97 95/95/95
f 98/98/98 99/99/99 100/100/100
f 98/98/98 101/101/101 99/99/99
f 102/102/102 103/103/103 104/104/104
f 102/102/102 105/105/105 103/103/103
f 106/106/106 107/107/107 108/108/108
f 106/106/106 109/109/109 107/107/107
f 110/110/110 111/111/111 112/112/112
f 110/110/110 113/113/113 111/111/111
f 114/114/114 115/115/115 116/116/116
f 114/114/114 117/117/117 115/115/115
f 118/118/118 119/119/119 120/120/120
f 118/118/118 121/121/121 119/119/119
f 122/122/122 123/123/123 124/124/124
f 122/122/122 125/125/125 123/123/123
f 126/126/126 127/127/127 128/128/128
f 126/126/126 129/129/129 127/127/127
f 130/130/130 131/131/131 132/132/132
f 130/130/130 133/133/133 131/131/131
f 134/134/134 135/135/135 136/136/136
f 134/134/134 137/137/137 135/135/135
f 138/138/138 139/139/139 140/140/140
f 138/138/138 141/141/141 139/139/139
f 139/139/139 142/142/142 143/143/143
f 139/139/139 144/144/144 142/142/142
f 145/145/145 146/146/146 147/147/147
f 145/145/145 148/148/148 146/146/146
f 149/149/149 150/150/150 151/151/151
f 149/149/149 152/152/152 150/150/150
f 153/153/153 154/154/154 155/155/155
f 153/153/153 156/156/156 154/154/154
f 157/157/157 158/158/158 159/159/159
f 157/157/157 160/160/160 158/158/158
f 161/161/161 162/162/162 163/163/163
f 161/161/161 164/164/164 162/162/162
f 165/165/165 166/166/166 167/167/167
f 165/165/165 168/168/168 166/166/166
f 169/169/169 170/170/170 171/171/171
f 169/169/169 172/172/172 170/170/170
f 173/173/173 174/174/174 175/175/175
f 173/173/173 176/176/176 174/174/174
f 177/177/177 178/178/178 179/179/179
f 177/177/177 180/180/180 178/178/178
f 181/181/181 182/182/182 183/183/183
f 181/181/181 184/184/184 182/182/182
f 185/185/185 186/186/186 187/187/187
f 185/185/185 188/188/188 186/186/186
f 189/189/189 190/190/190 191/191/191
f 192/192/192 193/193/193 194/194/194
f 192/192/192 195/195/195 193/193/193
f 196/196/196 197/197/197 198/198/198
f 199/199/199 200/200/200 201/201/201
f 199/199/199 202/202/202 200/200/200

