# Created by DisUnity v0.2.1
v -0.021478528 0.0034069393 -0.0069787973
v -0.02258386 -0.0034069393 -7.564925E-19
v -0.02258386 0.0034069393 7.564925E-19
v -0.021478528 -0.0034069393 -0.0069787973
v -0.01827073 0.0034069393 -0.013274462
v -0.01827073 -0.0034069393 -0.013274462
v -0.013274461 0.0034069393 -0.018270731
v -0.013274461 -0.0034069393 -0.018270731
v -0.006978797 0.0034069393 -0.02147853
v -0.006978797 -0.0034069393 -0.02147853
v 5.9604643E-10 0.0034069393 -0.022583866
v 5.9604643E-10 -0.0034069393 -0.022583866
v 0.006978799 0.0034069393 -0.021478534
v 0.006978799 -0.0034069393 -0.021478534
v 0.013274465 0.0034069393 -0.018270733
v 0.013274465 -0.0034069393 -0.018270733
v 0.018270733 0.0034069393 -0.013274465
v 0.018270733 -0.0034069393 -0.013274465
v 0.021478536 0.0034069393 -0.0069787996
v 0.021478536 -0.0034069393 -0.0069787996
v 0.02258387 0.0034069393 7.564925E-19
v 0.02258387 -0.0034069393 -7.564925E-19
v 0.021478537 0.0034069393 0.0069788
v 0.021478537 -0.0034069393 0.0069788
v 0.018270738 0.0034069393 0.013274467
v 0.018270738 -0.0034069393 0.013274467
v 0.013274469 0.0034069393 0.018270738
v 0.013274469 -0.0034069393 0.018270738
v 0.0069788015 0.0034069393 0.021478541
v 0.0069788015 -0.0034069393 0.021478541
v 5.9604643E-10 0.0034069393 0.022583872
v 5.9604643E-10 -0.0034069393 0.022583872
v -0.0069788 0.0034069393 0.021478541
v -0.0069788 -0.0034069393 0.021478541
v -0.013274467 0.0034069393 0.018270738
v -0.013274467 -0.0034069393 0.018270738
v -0.018270738 0.0034069393 0.013274469
v -0.018270738 -0.0034069393 0.013274469
v -0.021478541 0.0034069393 0.0069788015
v -0.021478541 -0.0034069393 0.0069788015
v -0.02258386 0.0034069393 7.564925E-19
v -0.02258386 -0.0034069393 -7.564925E-19
vn -0.95105654 0.0 -0.3090169
vn -1.0 0.0 -8.528275E-7
vn -1.0 0.0 -8.528275E-7
vn -0.95105654 0.0 -0.3090169
vn -0.80901706 0.0 -0.5877852
vn -0.80901706 0.0 -0.5877852
vn -0.58778524 0.0 -0.809017
vn -0.58778524 0.0 -0.809017
vn -0.309017 0.0 -0.95105654
vn -0.309017 0.0 -0.95105654
vn -2.543521E-7 0.0 -1.0
vn -2.543521E-7 0.0 -1.0
vn 0.30901685 0.0 -0.95105654
vn 0.30901685 0.0 -0.95105654
vn 0.58778524 0.0 -0.809017
vn 0.58778524 0.0 -0.809017
vn 0.809017 0.0 -0.58778536
vn 0.809017 0.0 -0.58778536
vn 0.9510565 0.0 -0.30901712
vn 0.9510565 0.0 -0.30901712
vn 1.0 0.0 -1.7455531E-7
vn 1.0 0.0 -1.7455531E-7
vn 0.95105654 0.0 0.3090168
vn 0.95105654 0.0 0.3090168
vn 0.8090172 0.0 0.587785
vn 0.8090172 0.0 0.587785
vn 0.5877854 0.0 0.8090169
vn 0.5877854 0.0 0.8090169
vn 0.3090169 0.0 0.95105654
vn 0.3090169 0.0 0.95105654
vn 0.0 0.0 1.0
vn 0.0 0.0 1.0
vn -0.3090169 0.0 0.95105654
vn -0.3090169 0.0 0.95105654
vn -0.58778524 0.0 0.809017
vn -0.58778524 0.0 0.809017
vn -0.809017 0.0 0.58778524
vn -0.809017 0.0 0.58778524
vn -0.9510568 0.0 0.3090161
vn -0.9510568 0.0 0.3090161
vn -1.0 0.0 -8.528275E-7
vn -1.0 0.0 -8.528275E-7
vt 0.05 0.5
vt 0.0 0.25
vt 0.0 0.5
vt 0.05 0.25
vt 0.1 0.5
vt 0.1 0.25
vt 0.15 0.5
vt 0.15 0.25
vt 0.2 0.5
vt 0.2 0.25
vt 0.25 0.5
vt 0.25 0.25
vt 0.3 0.5
vt 0.3 0.25
vt 0.35000002 0.5
vt 0.35000002 0.25
vt 0.40000004 0.5
vt 0.40000004 0.25
vt 0.45000005 0.5
vt 0.45000005 0.25
vt 0.50000006 0.5
vt 0.50000006 0.25
vt 0.5500001 0.5
vt 0.5500001 0.25
vt 0.6000001 0.5
vt 0.6000001 0.25
vt 0.6500001 0.5
vt 0.6500001 0.25
vt 0.7000001 0.5
vt 0.7000001 0.25
vt 0.7500001 0.5
vt 0.7500001 0.25
vt 0.80000013 0.5
vt 0.80000013 0.25
vt 0.85000014 0.5
vt 0.85000014 0.25
vt 0.90000015 0.5
vt 0.90000015 0.25
vt 0.95000017 0.5
vt 0.95000017 0.25
vt 1.0000001 0.5
vt 1.0000001 0.25

o pPipe1
s 1
usemtl pPipe1_0
f 1/1/1 2/2/2 3/3/3
f 1/1/1 4/4/4 2/2/2
f 5/5/5 4/4/4 1/1/1
f 5/5/5 6/6/6 4/4/4
f 7/7/7 6/6/6 5/5/5
f 7/7/7 8/8/8 6/6/6
f 9/9/9 8/8/8 7/7/7
f 9/9/9 10/10/10 8/8/8
f 11/11/11 10/10/10 9/9/9
f 11/11/11 12/12/12 10/10/10
f 13/13/13 12/12/12 11/11/11
f 13/13/13 14/14/14 12/12/12
f 15/15/15 14/14/14 13/13/13
f 15/15/15 16/16/16 14/14/14
f 17/17/17 16/16/16 15/15/15
f 17/17/17 18/18/18 16/16/16
f 19/19/19 18/18/18 17/17/17
f 19/19/19 20/20/20 18/18/18
f 21/21/21 20/20/20 19/19/19
f 21/21/21 22/22/22 20/20/20
f 23/23/23 22/22/22 21/21/21
f 23/23/23 24/24/24 22/22/22
f 25/25/25 24/24/24 23/23/23
f 25/25/25 26/26/26 24/24/24
f 27/27/27 26/26/26 25/25/25
f 27/27/27 28/28/28 26/26/26
f 29/29/29 28/28/28 27/27/27
f 29/29/29 30/30/30 28/28/28
f 31/31/31 30/30/30 29/29/29
f 31/31/31 32/32/32 30/30/30
f 33/33/33 32/32/32 31/31/31
f 33/33/33 34/34/34 32/32/32
f 35/35/35 34/34/34 33/33/33
f 35/35/35 36/36/36 34/34/34
f 37/37/37 36/36/36 35/35/35
f 37/37/37 38/38/38 36/36/36
f 39/39/39 38/38/38 37/37/37
f 39/39/39 40/40/40 38/38/38
f 41/41/41 40/40/40 39/39/39
f 41/41/41 42/42/42 40/40/40

