# Created by DisUnity v0.2.1
v -0.41727638 -0.21522653 0.41727674
v 0.0 0.37500003 0.37500003
v -0.27777767 0.2777778 0.2777778
v 0.0 -0.21522653 0.55636907
v 0.41727638 -0.21522653 0.41727674
v 0.27777863 0.2777778 0.2777778
v -0.375 0.37500003 0.0
v 0.0 0.5 0.0
v 0.0 0.37500003 -0.37500003
v -0.27777767 0.2777778 -0.2777778
v 0.375 0.37500003 0.0
v 0.27777863 0.2777778 -0.2777778
v -0.41727638 -0.21522653 -0.41727674
v 0.0 -0.21522653 -0.55636907
v 0.41727638 -0.21522653 -0.41727674
v -0.5563688 -0.21522653 0.0
v 0.5563688 -0.21522653 0.0
vn -0.6668524 0.33258945 0.66685236
vn 0.0 0.5972718 0.80203885
vn -0.61901057 0.48337546 0.61901045
vn 0.0 0.3271791 0.9449623
vn 0.66685224 0.332589 0.6668527
vn 0.6190109 0.48337534 0.61901027
vn -0.802039 0.59727156 0.0
vn 0.0 1.0 0.0
vn 0.0 0.59727186 -0.8020388
vn -0.6190106 0.48337546 -0.61901045
vn 0.8020388 0.597272 0.0
vn 0.6190109 0.48337534 -0.61901027
vn -0.6668525 0.33258945 -0.66685236
vn 0.0 0.3271791 -0.9449623
vn 0.66685224 0.332589 -0.6668527
vn -0.9449624 0.32717904 0.0
vn 0.94496274 0.32717815 0.0
vt 7.951499 -4.0781446
vt 0.50000423 -2.0513294
vt 4.2003665 -1.5961208
vt 0.5000053 -6.9007874
vt -6.9514885 -4.0781474
vt -3.2003684 -1.5961163
vt 4.9669905 0.5000001
vt 0.50000477 0.5
vt 0.50000405 3.0513294
vt 4.2003665 2.596121
vt -3.96698 0.49999967
vt -3.2003684 2.596116
vt 7.9514995 5.078145
vt 0.50000525 7.9007874
vt -6.951488 5.078147
vt 9.989168 0.5
vt -8.989159 0.4999997

o rock_Pebblle2
s 1
usemtl rock_Pebblle2_0
f 1/1/1 2/2/2 3/3/3
f 1/1/1 4/4/4 2/2/2
f 2/2/2 4/4/4 5/5/5
f 2/2/2 5/5/5 6/6/6
f 2/2/2 7/7/7 3/3/3
f 7/7/7 1/1/1 3/3/3
f 2/2/2 8/8/8 7/7/7
f 7/7/7 8/8/8 9/9/9
f 7/7/7 9/9/9 10/10/10
f 9/9/9 8/8/8 11/11/11
f 11/11/11 2/2/2 6/6/6
f 11/11/11 8/8/8 2/2/2
f 5/5/5 11/11/11 6/6/6
f 9/9/9 11/11/11 12/12/12
f 9/9/9 13/13/13 10/10/10
f 13/13/13 7/7/7 10/10/10
f 9/9/9 14/14/14 13/13/13
f 15/15/15 9/9/9 12/12/12
f 15/15/15 14/14/14 9/9/9
f 11/11/11 15/15/15 12/12/12
f 13/13/13 16/16/16 7/7/7
f 7/7/7 16/16/16 1/1/1
f 5/5/5 17/17/17 11/11/11
f 11/11/11 17/17/17 15/15/15

